<svg width="618" height="336" viewBox="0 0 618 336" fill="none" xmlns="http://www.w3.org/2000/svg">
<g clip-path="url(#clip0)">
<path d="M310.983 336C478.559 336 614.406 327.008 614.406 315.916C614.406 304.824 478.559 295.832 310.983 295.832C143.407 295.832 7.56024 304.824 7.56024 315.916C7.56024 327.008 143.407 336 310.983 336Z" fill="#F2F2F2"/>
<path d="M299.354 96.0498C249.918 96.0498 214.423 127.761 214.423 201.755C214.423 285.614 249.918 307.812 299.354 307.812C348.789 307.812 386.398 283.5 386.398 201.755C386.398 114.372 348.789 96.0498 299.354 96.0498ZM299.679 279.976C265.438 279.976 247.55 259.892 247.55 201.809C247.55 150.559 266.17 123.533 300.411 123.533C334.651 123.533 353.272 141.286 353.272 201.809C353.272 258.427 333.919 279.976 299.679 279.976Z" fill="#2F2E41"/>
<path d="M184.821 249.322H164.382V189.142C164.382 185.946 163.112 182.88 160.851 180.62C158.59 178.36 155.524 177.09 152.328 177.09H147.538C145.955 177.09 144.388 177.402 142.925 178.008C141.463 178.613 140.134 179.501 139.015 180.62C137.895 181.739 137.007 183.068 136.402 184.53C135.796 185.992 135.484 187.56 135.484 189.142V249.322H77.8309C76.6448 249.322 75.4789 249.015 74.4462 248.432C73.4136 247.849 72.5492 247.009 71.937 245.993C71.3248 244.977 70.9856 243.821 70.9522 242.635C70.9188 241.45 71.1925 240.276 71.7465 239.227L132.766 123.756C133.527 122.316 133.988 120.737 134.122 119.114C134.255 117.492 134.059 115.859 133.544 114.314C133.029 112.769 132.206 111.345 131.125 110.127C130.044 108.909 128.728 107.923 127.255 107.228L123.653 105.527C120.856 104.206 117.659 104.011 114.722 104.982C111.785 105.953 109.334 108.016 107.876 110.743L33.4542 249.94C32.187 252.31 31.5239 254.956 31.5239 257.644V257.644C31.5239 259.79 31.9467 261.915 32.7681 263.898C33.5895 265.881 34.7935 267.682 36.3113 269.2C37.8291 270.717 39.6309 271.921 41.614 272.742C43.5971 273.564 45.7225 273.986 47.869 273.986H135.484V312.04C135.484 313.937 135.858 315.816 136.584 317.569C137.31 319.321 138.374 320.914 139.716 322.255C141.058 323.597 142.651 324.661 144.404 325.387C146.157 326.113 148.035 326.486 149.933 326.486H149.933C151.83 326.486 153.709 326.113 155.462 325.387C157.215 324.661 158.808 323.597 160.15 322.255C161.491 320.914 162.556 319.321 163.282 317.569C164.008 315.816 164.382 313.937 164.382 312.04V273.986H184.821C188.092 273.986 191.23 272.687 193.543 270.374C195.856 268.062 197.155 264.925 197.155 261.654V261.654C197.155 258.383 195.856 255.247 193.543 252.934C191.23 250.621 188.092 249.322 184.821 249.322V249.322Z" fill="#1FB4DB"/>
<path d="M563.307 249.322H542.867V189.142C542.867 185.946 541.597 182.88 539.337 180.62C537.076 178.36 534.01 177.09 530.813 177.09H526.024C524.441 177.09 522.873 177.402 521.411 178.008C519.948 178.613 518.62 179.501 517.5 180.62C516.381 181.739 515.493 183.068 514.887 184.53C514.281 185.992 513.97 187.56 513.97 189.142V249.322H456.316C455.13 249.322 453.964 249.015 452.932 248.432C451.899 247.849 451.035 247.009 450.423 245.993C449.81 244.977 449.471 243.821 449.438 242.635C449.404 241.45 449.678 240.276 450.232 239.227L511.252 123.756C512.012 122.316 512.474 120.737 512.607 119.115C512.741 117.492 512.544 115.859 512.029 114.314C511.514 112.769 510.691 111.345 509.611 110.127C508.53 108.909 507.213 107.923 505.741 107.228L502.139 105.527C499.342 104.206 496.144 104.011 493.207 104.982C490.271 105.953 487.819 108.016 486.361 110.743L411.94 249.94C410.673 252.31 410.01 254.956 410.01 257.644V257.644C410.01 261.978 411.732 266.135 414.797 269.2C417.862 272.265 422.02 273.986 426.355 273.986H513.97V312.04C513.97 315.872 515.492 319.546 518.202 322.255C520.911 324.964 524.586 326.486 528.418 326.486V326.486C532.25 326.486 535.925 324.964 538.635 322.255C541.345 319.546 542.867 315.872 542.867 312.04V273.986H563.307C566.578 273.986 569.715 272.687 572.028 270.374C574.341 268.062 575.641 264.925 575.641 261.654V261.654C575.641 258.383 574.341 255.247 572.028 252.934C569.715 250.621 566.578 249.322 563.307 249.322Z" fill="#1FB4DB"/>
<path d="M190.46 242.275H170.02V182.095C170.02 180.513 169.708 178.945 169.103 177.483C168.497 176.021 167.609 174.692 166.49 173.573C165.37 172.454 164.041 171.566 162.579 170.961C161.116 170.355 159.549 170.043 157.966 170.043H153.177C149.98 170.043 146.914 171.313 144.653 173.573C142.393 175.833 141.123 178.899 141.123 182.095V242.275H83.4694C82.2833 242.275 81.1174 241.969 80.0848 241.385C79.0521 240.802 78.1877 239.962 77.5755 238.946C76.9633 237.93 76.6241 236.774 76.5907 235.588C76.5574 234.403 76.831 233.229 77.385 232.181L138.405 116.709C139.165 115.269 139.626 113.69 139.76 112.068C139.894 110.445 139.697 108.812 139.182 107.267C138.667 105.723 137.844 104.298 136.764 103.08C135.683 101.862 134.366 100.876 132.894 100.181L129.292 98.4799C126.495 97.1593 123.297 96.9643 120.36 97.9353C117.423 98.9062 114.972 100.969 113.514 103.696L39.0928 242.893C37.8255 245.263 37.1625 247.909 37.1625 250.597V250.597C37.1625 254.931 38.8845 259.088 41.9498 262.153C45.0151 265.218 49.1725 266.939 53.5075 266.939H141.123V304.993C141.123 306.89 141.496 308.769 142.222 310.522C142.949 312.274 144.013 313.867 145.355 315.208C146.696 316.55 148.289 317.614 150.042 318.34C151.795 319.066 153.674 319.44 155.571 319.44H155.571C159.403 319.44 163.078 317.918 165.788 315.208C168.498 312.499 170.02 308.825 170.02 304.993V266.939H190.46C192.079 266.939 193.683 266.621 195.18 266.001C196.676 265.381 198.036 264.473 199.181 263.327C200.327 262.182 201.235 260.823 201.855 259.327C202.475 257.83 202.794 256.227 202.794 254.607V254.607C202.794 252.988 202.475 251.384 201.855 249.888C201.235 248.392 200.327 247.032 199.181 245.887C198.036 244.742 196.676 243.834 195.18 243.214C193.683 242.594 192.079 242.275 190.46 242.275V242.275Z" stroke="#3F3D56" stroke-miterlimit="10"/>
<path d="M573.879 242.275H553.439V182.095C553.439 178.899 552.169 175.833 549.909 173.573C547.648 171.313 544.582 170.043 541.385 170.043H536.596C535.013 170.043 533.446 170.355 531.983 170.961C530.521 171.566 529.192 172.454 528.072 173.573C526.953 174.692 526.065 176.021 525.459 177.483C524.854 178.945 524.542 180.513 524.542 182.095V242.275H466.889C465.703 242.275 464.537 241.969 463.504 241.385C462.471 240.802 461.607 239.962 460.995 238.946C460.383 237.93 460.043 236.774 460.01 235.588C459.977 234.403 460.25 233.229 460.804 232.181L521.824 116.709C522.585 115.269 523.046 113.69 523.179 112.068C523.313 110.445 523.116 108.812 522.601 107.267C522.086 105.723 521.264 104.298 520.183 103.08C519.102 101.862 517.786 100.876 516.313 100.181L512.711 98.4799C509.914 97.1593 506.716 96.9643 503.78 97.9353C500.843 98.9062 498.392 100.969 496.933 103.696L422.512 242.893C421.245 245.263 420.582 247.909 420.582 250.597C420.582 254.931 422.304 259.088 425.369 262.153C428.434 265.218 432.592 266.939 436.927 266.939H524.542V304.993C524.542 308.825 526.064 312.499 528.774 315.208C531.483 317.918 535.159 319.44 538.991 319.44V319.44C542.823 319.44 546.498 317.918 549.207 315.208C551.917 312.499 553.439 308.825 553.439 304.993V266.939H573.879C575.499 266.939 577.103 266.621 578.599 266.001C580.095 265.381 581.455 264.473 582.601 263.327C583.746 262.182 584.654 260.823 585.274 259.327C585.894 257.83 586.213 256.227 586.213 254.607V254.607C586.213 251.337 584.914 248.2 582.601 245.887C580.287 243.574 577.15 242.275 573.879 242.275V242.275Z" stroke="#3F3D56" stroke-miterlimit="10"/>
<path d="M310.631 89.7075C261.195 89.7075 225.7 121.419 225.7 195.412C225.7 279.272 261.195 301.47 310.631 301.47C360.066 301.47 397.675 277.158 397.675 195.412C397.675 108.03 360.066 89.7075 310.631 89.7075ZM310.956 273.634C276.715 273.634 258.827 253.549 258.827 195.467C258.827 144.217 277.447 117.191 311.688 117.191C345.928 117.191 364.549 134.943 364.549 195.467C364.549 252.085 345.196 273.634 310.956 273.634V273.634Z" stroke="#3F3D56" stroke-miterlimit="10"/>
<path d="M271.005 17.9157C275.103 17.9157 278.426 14.5938 278.426 10.4961C278.426 6.39831 275.103 3.07642 271.005 3.07642C266.906 3.07642 263.584 6.39831 263.584 10.4961C263.584 14.5938 266.906 17.9157 271.005 17.9157Z" fill="#2F2E41"/>
<path d="M289.104 53.9283C300.6 53.9283 309.919 41.856 309.919 26.9641C309.919 12.0723 300.6 0 289.104 0C277.609 0 268.29 12.0723 268.29 26.9641C268.29 41.856 277.609 53.9283 289.104 53.9283Z" fill="#2F2E41"/>
<path opacity="0.1" d="M289.104 45.7847C278.677 45.7847 270.041 35.8522 268.526 22.8923C268.368 24.2439 268.289 25.6034 268.29 26.9641C268.29 41.856 277.609 53.9282 289.104 53.9282C300.6 53.9282 309.919 41.856 309.919 26.9641C309.919 25.6034 309.84 24.2439 309.683 22.8923C308.167 35.8522 299.531 45.7847 289.104 45.7847Z" fill="black"/>
<path d="M331.46 105.93C331.013 107.766 329.085 109.237 326.951 110.265C322.463 112.426 316.928 113.07 311.558 113.287C310.189 113.37 308.814 113.345 307.449 113.211C304.802 112.955 302.32 111.814 300.402 109.972C300.265 109.883 300.153 109.761 300.076 109.616C300 109.472 299.961 109.311 299.963 109.147C299.966 108.984 300.01 108.824 300.091 108.682C300.172 108.54 300.288 108.422 300.427 108.337C303.286 105.197 308.056 103.272 312.861 101.886C316.505 100.835 322.859 98.1128 326.833 98.4801C330.682 98.836 332.024 103.611 331.46 105.93Z" fill="#3F3D56"/>
<path opacity="0.1" d="M331.46 105.93C331.013 107.766 329.085 109.237 326.951 110.265C322.463 112.426 316.928 113.07 311.558 113.287C310.189 113.37 308.814 113.345 307.449 113.211C304.802 112.955 302.32 111.814 300.402 109.972C300.265 109.883 300.153 109.761 300.076 109.616C300 109.472 299.961 109.311 299.963 109.147C299.966 108.984 300.01 108.824 300.091 108.682C300.172 108.54 300.288 108.422 300.427 108.337C303.286 105.197 308.056 103.272 312.861 101.886C316.505 100.835 322.859 98.1128 326.833 98.4801C330.682 98.836 332.024 103.611 331.46 105.93Z" fill="black"/>
<path d="M274.4 92.2032C273.03 94.8875 272.782 98.0058 273.71 100.873C274.655 103.718 276.422 106.22 278.789 108.06C284.596 112.714 292.587 113.354 300.029 113.289C306.55 113.233 313.063 112.786 319.531 111.953C321.699 111.761 323.829 111.266 325.859 110.484C328.288 109.433 330.422 107.506 331.287 105.005C332.152 102.505 331.538 99.4427 329.484 97.7738C327.68 96.3075 325.192 96.1058 322.871 95.9663L309.591 95.1684C310.903 93.8408 312.65 93.0899 314.247 92.1247C316.367 90.8443 317.775 88.6945 319.317 86.7562C321.692 83.9184 324.275 81.2622 327.047 78.8099C327.479 81.2888 329.047 83.3245 330.893 85.0349C332.739 86.7454 334.867 88.1224 336.786 89.7509C341.433 93.6953 344.779 99.0488 349.666 102.691C353.028 101.808 356.171 100.239 358.897 98.0833L356.998 94.6433C356.84 94.2893 356.593 93.9818 356.282 93.7503C355.744 93.4196 355.051 93.59 354.427 93.4964C352.758 93.2462 352.03 91.3202 351.375 89.7654C349.577 85.4971 346.136 82.1854 343.197 78.606C341.027 75.9637 339.103 73.1296 337.447 70.1387C336.46 68.3549 335.556 66.4976 334.216 64.9608C332.876 63.424 330.998 62.2158 328.959 62.2114C327.157 62.2076 325.496 63.1222 323.947 64.0421C319.229 66.8441 314.689 69.9363 310.354 73.3008C308.086 75.0616 305.831 76.922 303.17 78.0018C302.05 78.4563 300.869 78.767 299.794 79.3201C297.912 80.2888 296.483 81.9278 294.945 83.3828C289.459 88.5721 281.947 91.9343 274.4 92.2032Z" fill="#3F3D56"/>
<path d="M302.169 55.2674C302.107 56.8537 301.77 58.4171 301.171 59.8875C300.868 60.6209 300.417 61.284 299.846 61.8354C299.276 62.3868 298.597 62.8147 297.854 63.0925C296.798 63.3753 295.691 63.4112 294.619 63.1974C293.685 63.0998 292.784 62.793 291.984 62.2998C290.739 61.4438 290.118 59.9165 289.892 58.4217C289.665 56.9287 289.767 55.4031 289.622 53.8993C289.481 52.6846 289.25 51.4821 288.931 50.3017C288.833 49.909 288.733 49.5181 288.636 49.1272C288.54 48.7363 288.445 48.3454 288.359 47.9546C288.279 47.5872 288.205 47.218 288.141 46.847C288.089 46.534 288.042 46.2191 288.007 45.9024C287.976 44.9635 287.819 44.033 287.542 43.1354C287.282 42.5532 286.957 42.0026 286.572 41.494C286.407 41.2588 286.248 41.0235 286.102 40.7792C285.678 40.1443 285.48 39.3848 285.542 38.6239C285.56 38.5062 285.588 38.3905 285.627 38.2782C285.642 38.2348 285.658 38.1914 285.676 38.1498C285.839 38.1056 285.989 38.0223 286.112 37.9072C286.235 37.792 286.329 37.6486 286.384 37.4892C286.446 37.1468 286.417 36.7941 286.299 36.4667C286.164 36.0093 285.979 35.5681 285.747 35.1511C285.595 34.876 285.079 34.3802 285.075 34.0653C285.068 33.4319 286.306 32.9216 286.808 32.6718C288.338 31.9056 290.044 31.5596 291.752 31.6693C292.847 31.7435 294.035 32.0801 294.639 32.9976C295.182 33.8246 295.11 34.8959 295.341 35.8569C295.366 35.9965 295.425 36.1278 295.513 36.2387C295.632 36.3463 295.78 36.4146 295.939 36.4341C296.207 36.4874 296.482 36.4985 296.753 36.4667H296.755C296.827 36.461 296.898 36.4507 296.969 36.4359C297.392 36.3579 297.791 36.1853 298.138 35.931C298.362 35.8713 298.589 35.8225 298.817 35.7845C298.826 35.7835 298.835 35.7817 298.844 35.779C299.751 38.6401 299.868 41.7075 300.61 44.6211C300.978 46.0706 301.504 47.5021 301.579 48.9933C301.584 49.0584 301.586 49.1254 301.588 49.1923C301.599 49.6719 301.561 50.1551 301.58 50.6328C301.587 50.848 301.612 51.0622 301.653 51.2734C301.734 51.6132 301.835 51.948 301.955 52.276L301.961 52.2923C301.995 52.3972 302.028 52.504 302.055 52.6108C302.075 52.6886 302.093 52.7646 302.107 52.8424L302.109 52.8479C302.243 53.6475 302.263 54.4621 302.169 55.2674V55.2674Z" fill="#FBBEBE"/>
<path d="M289.466 36.5553C295.364 36.5553 300.145 31.775 300.145 25.8782C300.145 19.9815 295.364 15.2012 289.466 15.2012C283.569 15.2012 278.787 19.9815 278.787 25.8782C278.787 31.775 283.569 36.5553 289.466 36.5553Z" fill="#FBBEBE"/>
<path d="M357.264 84.052C356.955 81.139 355.919 78.3502 354.252 75.941C354.529 77.5878 354.807 79.2341 355.085 80.8797C354.739 80.9797 354.372 80.9766 354.028 80.8709C353.684 80.7651 353.378 80.5612 353.148 80.2843C352.699 79.7229 352.355 79.0846 352.133 78.4004C350.92 75.3891 349.333 72.542 347.411 69.9257C340.612 69.3593 333.892 66.5416 327.914 63.257C321.934 59.9743 316.337 56.0383 310.437 52.6162C309.414 51.9979 308.348 51.4536 307.247 50.9874C305.401 50.2473 303.329 49.8636 301.579 48.9932C301.461 48.9353 301.343 48.8738 301.227 48.8104C300.832 48.5954 300.458 48.344 300.109 48.0594C299.92 47.9064 299.742 47.742 299.573 47.5672C298.7 46.5514 298.008 45.3933 297.526 44.1433C296.587 42.0658 296.252 39.5594 295.314 37.4819C295.745 37.0792 296.229 36.7376 296.753 36.4666H296.755C296.831 36.4268 296.907 36.3888 296.985 36.3526C297.356 36.1779 297.742 36.0368 298.138 35.931C298.362 35.8712 298.589 35.8224 298.817 35.7844C298.826 35.7834 298.835 35.7816 298.844 35.7789C299.901 35.6067 300.985 35.6923 302.002 36.0287C303.49 36.5318 304.744 37.5361 305.995 38.4862C308.027 39.9174 309.976 41.463 311.832 43.1154C312.864 44.1034 313.805 45.1892 314.915 46.0869C315.836 46.7983 316.809 47.4424 317.823 48.0142C323.827 51.5901 329.831 55.1654 335.836 58.7401C337.868 59.9508 339.903 61.1614 341.89 62.4427C344.909 64.3899 347.82 66.5 350.728 68.6082C352.442 69.8497 354.156 71.0917 355.869 72.3343C356.431 72.6928 356.924 73.1488 357.326 73.6807C357.68 74.2848 357.901 74.9582 357.972 75.6551C358.402 78.4707 358.159 81.3481 357.264 84.052V84.052Z" fill="#FBBEBE"/>
<path d="M304.817 63.2969C304.096 66.5271 300.831 68.4798 299.124 71.3173C297.003 74.839 297.868 78.9324 298.665 82.9662C297.209 84.2203 295.754 85.4744 294.297 86.7285C293.494 87.418 292.69 88.1111 291.825 88.721C290.563 89.5661 289.245 90.3231 287.879 90.9867C286.59 91.649 285.302 92.312 284.013 92.9755C282.815 93.649 281.546 94.1868 280.228 94.5789C277.689 95.2304 274.992 94.7743 272.48 94.0197C272.184 93.942 271.899 93.8258 271.633 93.674C271.476 93.5806 271.339 93.457 271.231 93.3103C270.983 92.8663 270.893 92.3515 270.976 91.8499C271.231 87.6225 272.264 83.4838 273.294 79.3758C273.845 76.9113 274.585 74.493 275.508 72.1425C276.413 70.1285 277.454 68.178 278.623 66.3045C279.913 63.9473 281.441 61.7285 283.184 59.6829C284.032 58.8956 284.746 57.9751 285.298 56.9576C285.941 55.4917 285.693 53.8105 285.823 52.2144C285.923 51.0152 286.241 49.8444 286.762 48.7598V48.758C287.041 48.1737 287.377 47.6185 287.765 47.1003C287.941 47.5093 288.116 47.9177 288.292 48.3254C288.408 48.5933 288.522 48.8605 288.636 49.1272C288.784 49.471 288.931 49.8136 289.077 50.155C289.499 51.1359 289.92 52.1161 290.341 53.0958C290.795 54.3296 291.443 55.4835 292.259 56.5142C292.632 57.042 293.136 57.464 293.721 57.739C294.306 58.014 294.953 58.1326 295.597 58.0832C296.242 58.0338 296.863 57.8181 297.399 57.4571C297.935 57.0962 298.369 56.6023 298.657 56.0238C299.266 54.9439 299.706 53.7778 299.964 52.5655C300.322 51.0894 300.371 49.5555 300.109 48.0595C299.673 45.1784 298.447 42.2359 297.557 39.5594C297.194 38.667 296.985 37.72 296.936 36.758C296.938 36.6499 296.949 36.5422 296.969 36.4359C296.974 36.4088 296.98 36.3798 296.985 36.3527C297.356 36.178 297.742 36.0369 298.138 35.931C298.362 35.8713 298.589 35.8224 298.817 35.7844C299.6 40.0263 300.385 44.2682 301.171 48.51C301.19 48.6096 301.209 48.7091 301.228 48.8104C301.34 49.4185 301.454 50.0266 301.58 50.6328C301.695 51.1829 301.818 51.7313 301.955 52.276L301.961 52.2923C302.008 52.4769 302.057 52.6596 302.107 52.8424L302.109 52.8478C302.248 53.3473 302.404 53.8431 302.58 54.3318C303.644 57.2761 305.499 60.2403 304.817 63.2969Z" fill="#1FB4DB"/>
<path d="M348.155 108.692C348.122 109.315 348.242 109.936 348.506 110.5C349.175 111.721 350.778 111.999 352.166 112.113C360.272 112.779 368.427 112.531 376.478 111.373C376.914 111.343 377.338 111.211 377.715 110.989C378.86 110.186 378.154 108.231 376.904 107.605C375.654 106.979 374.171 107.13 372.8 106.859C371.438 106.516 370.14 105.953 368.959 105.193C366.178 103.596 363.437 101.93 360.737 100.197C359.13 99.1644 357.233 98.0629 355.422 98.6748C350.519 100.333 348.123 103.403 348.155 108.692Z" fill="#3F3D56"/>
<path d="M288.4 47.7283V47.7301C288.388 47.8061 288.375 47.8803 288.359 47.9545C288.339 48.0776 288.315 48.2024 288.292 48.3254C288.067 49.4746 287.792 50.6183 287.475 51.7548C286.607 54.8946 285.443 57.9837 284.288 61.0275C281.189 69.1892 278.09 77.3514 274.99 85.5142C274.208 87.57 273.428 89.6276 272.539 91.6418C272.243 92.3132 271.937 92.99 271.633 93.674C270.543 96.1225 269.497 98.6506 269.149 101.257C268.825 102.972 268.788 104.728 269.039 106.456C269.387 108.164 270.424 109.833 272.047 110.464C272.84 110.774 273.975 111.188 273.758 112.011C273.64 112.464 273.126 112.685 272.664 112.761C272.055 112.858 271.431 112.82 270.838 112.649C270.245 112.478 269.697 112.179 269.233 111.773C268.366 111.003 267.7 109.807 266.547 109.679C265.748 109.592 265.014 110.07 264.282 110.404C261.3 111.767 257.824 110.813 254.691 109.845C254.938 108.577 256.212 107.741 257.477 107.487C258.742 107.232 260.051 107.413 261.341 107.379C261.754 107.401 262.165 107.295 262.516 107.076C262.831 106.787 263.051 106.41 263.149 105.994C263.981 103.532 264.599 101.002 264.997 98.4335C265.414 95.7497 265.587 93.0244 266.181 90.3732C266.643 88.3047 267.356 86.3015 267.967 84.271C269.15 80.0904 270.122 75.8528 270.878 71.5743C271.26 69.7968 271.534 67.9977 271.698 66.1869C271.801 64.6849 271.752 63.1756 271.897 61.679C272.14 59.7319 272.546 57.8087 273.111 55.9297C273.665 53.8793 274.218 51.8302 274.771 49.7822C275.591 46.751 276.471 43.6022 278.549 41.246C279.27 40.4165 280.155 39.7441 281.147 39.2703C282.139 38.7965 283.218 38.5315 284.317 38.4917C284.729 38.4912 285.14 38.5355 285.542 38.6238C285.609 38.6401 285.676 38.6564 285.743 38.6745C286.182 38.7891 286.603 38.9633 286.994 39.192C287.635 38.7849 287.96 38.9278 288.386 39.5558C288.759 40.2204 288.934 40.9774 288.893 41.7383C288.928 43.7463 288.763 45.753 288.4 47.7283Z" fill="#FBBEBE"/>
<path d="M289.104 50.1281L289.077 50.1552L288.931 50.3018L287.475 51.755L286.762 48.76L284.317 38.4919C284.729 38.4914 285.14 38.5357 285.542 38.624C285.56 38.5063 285.588 38.3906 285.627 38.2783L285.743 38.6746L286.572 41.4941L288.141 46.8471L288.4 47.7284V47.7302L289.104 50.1281Z" fill="#1FB4DB"/>
<path d="M298.339 17.3701C298.337 18.3209 298.149 19.2621 297.784 20.1399C297.418 21.0178 296.884 21.8151 296.21 22.4862C295.966 22.7305 295.705 22.9566 295.428 23.1627C294.179 24.1042 292.657 24.6137 291.093 24.6144H282.41C280.491 24.6115 278.652 23.8473 277.296 22.4897C275.94 21.1321 275.179 19.2921 275.179 17.3736C275.179 15.4552 275.94 13.6151 277.296 12.2575C278.652 10.8999 280.491 10.1358 282.41 10.1328H291.093C293.012 10.1378 294.851 10.9017 296.209 12.2577C297.566 13.6136 298.332 15.4515 298.339 17.3701V17.3701Z" fill="#2F2E41"/>
<path d="M306.48 17.9157C310.578 17.9157 313.901 14.5938 313.901 10.4961C313.901 6.39831 310.578 3.07642 306.48 3.07642C302.382 3.07642 299.059 6.39831 299.059 10.4961C299.059 14.5938 302.382 17.9157 306.48 17.9157Z" fill="#2F2E41"/>
<path opacity="0.1" d="M306.299 3.07642C306.208 3.07642 306.118 3.08003 306.027 3.08328C307.947 3.15306 309.765 3.96459 311.098 5.34714C312.432 6.72968 313.177 8.57545 313.177 10.4961C313.177 12.4167 312.432 14.2625 311.098 15.645C309.765 17.0276 307.947 17.8391 306.027 17.9089C306.118 17.9121 306.208 17.9157 306.299 17.9157C308.267 17.9157 310.155 17.134 311.546 15.7426C312.938 14.3511 313.72 12.4639 313.72 10.4961C313.72 8.52826 312.938 6.64104 311.546 5.24959C310.155 3.85813 308.267 3.07642 306.299 3.07642V3.07642Z" fill="black"/>
<path opacity="0.1" d="M271.005 3.07642C271.096 3.07642 271.186 3.08003 271.276 3.08328C269.356 3.15306 267.539 3.96459 266.205 5.34714C264.872 6.72968 264.127 8.57545 264.127 10.4961C264.127 12.4167 264.872 14.2625 266.205 15.645C267.539 17.0276 269.356 17.8391 271.276 17.9089C271.186 17.9121 271.096 17.9157 271.005 17.9157C269.038 17.914 267.152 17.1315 265.761 15.7403C264.371 14.349 263.59 12.4628 263.59 10.4961C263.59 8.52939 264.371 6.64316 265.761 5.25189C267.152 3.86063 269.038 3.07815 271.005 3.07642Z" fill="black"/>
<path opacity="0.1" d="M295.428 23.1628C294.179 24.1042 292.657 24.6138 291.093 24.6145H282.41C280.846 24.6138 279.324 24.1042 278.075 23.1628H295.428Z" fill="black"/>
<path d="M351.502 76.9251C351.502 76.9251 353.373 82.3148 355.085 80.8798L353.72 73.8347L351.502 76.9251Z" fill="#FBBEBE"/>
<path d="M579.157 241.289C580.9 241.923 582.765 242.143 584.607 241.932C586.449 241.721 588.217 241.086 589.772 240.076C591.326 239.065 592.625 237.708 593.565 236.11C594.505 234.513 595.062 232.718 595.19 230.869C595.319 229.02 595.016 227.166 594.305 225.454C593.595 223.741 592.497 222.218 591.097 221.002C589.697 219.787 588.034 218.913 586.238 218.45C584.443 217.987 582.565 217.947 580.751 218.333L581.051 224.494L578.136 219.214C575.275 220.558 573.064 222.983 571.99 225.956C571.609 226.997 571.377 228.088 571.302 229.194C571.118 231.79 571.785 234.375 573.203 236.558C574.62 238.74 576.711 240.401 579.157 241.289V241.289Z" fill="#57B894"/>
<path d="M593.582 312.744C592.553 307.504 597.012 302.859 601.417 299.84C605.821 296.821 610.968 293.854 612.471 288.731C614.631 281.367 608.197 274.623 603.19 268.808C599.474 264.492 596.284 259.751 593.685 254.684C592.643 252.653 591.686 250.529 591.412 248.262C591.017 244.998 592.066 241.75 593.122 238.637C596.642 228.265 600.406 217.98 604.413 207.782" stroke="#3F3D56" stroke-miterlimit="10"/>
<path d="M579.65 239.703C581.393 240.336 583.258 240.556 585.1 240.346C586.943 240.135 588.71 239.5 590.265 238.489C591.819 237.479 593.118 236.122 594.058 234.524C594.998 232.926 595.555 231.132 595.683 229.283C595.812 227.434 595.509 225.58 594.798 223.867C594.088 222.155 592.989 220.631 591.59 219.416C590.19 218.2 588.526 217.327 586.731 216.864C584.936 216.401 583.058 216.361 581.244 216.747L581.544 222.908L578.629 217.628C575.768 218.972 573.557 221.397 572.484 224.37C572.102 225.411 571.87 226.501 571.795 227.608C571.611 230.204 572.278 232.789 573.696 234.971C575.113 237.154 577.204 238.815 579.65 239.703V239.703Z" stroke="#3F3D56" stroke-miterlimit="10"/>
<path d="M592.119 205.654C592.803 203.768 593.95 202.084 595.456 200.757C596.962 199.431 598.777 198.505 600.735 198.064L601.721 203.921L603.548 197.77C606.086 197.807 608.546 198.65 610.573 200.177C612.599 201.703 614.089 203.834 614.825 206.262C615.562 208.69 615.508 211.289 614.671 213.684C613.834 216.08 612.257 218.147 610.169 219.588C608.08 221.028 605.587 221.768 603.051 221.7C600.514 221.633 598.064 220.76 596.056 219.21C594.047 217.659 592.583 215.511 591.876 213.074C591.168 210.638 591.253 208.039 592.119 205.654H592.119Z" fill="#57B894"/>
<path d="M592.776 203.539C593.46 201.653 594.608 199.969 596.113 198.642C597.619 197.316 599.435 196.39 601.393 195.949L602.378 201.806L604.206 195.655C606.743 195.692 609.203 196.535 611.23 198.062C613.257 199.588 614.746 201.719 615.483 204.147C616.22 206.575 616.166 209.174 615.329 211.569C614.491 213.965 612.915 216.032 610.826 217.473C608.737 218.913 606.245 219.653 603.708 219.585C601.171 219.518 598.722 218.645 596.713 217.095C594.705 215.544 593.241 213.396 592.533 210.959C591.825 208.523 591.911 205.924 592.776 203.539H592.776Z" stroke="#3F3D56" stroke-miterlimit="10"/>
<path d="M601.088 268.926C603.852 269.928 606.887 269.879 609.616 268.787C612.346 267.695 614.578 265.638 615.887 263.006C617.196 260.375 617.492 257.354 616.716 254.519C615.941 251.684 614.149 249.233 611.683 247.634L610.279 252.361L609.283 246.435C609.273 246.43 609.263 246.427 609.253 246.423C607.775 245.886 606.205 245.646 604.634 245.715C603.063 245.785 601.521 246.163 600.096 246.829C598.671 247.495 597.392 248.434 596.33 249.595C595.269 250.755 594.447 252.113 593.911 253.591C593.374 255.069 593.134 256.638 593.205 258.209C593.275 259.78 593.655 261.321 594.321 262.745C594.988 264.17 595.929 265.448 597.09 266.509C598.251 267.57 599.61 268.391 601.088 268.926H601.088Z" fill="#57B894"/>
<path d="M601.658 266.784C604.421 267.786 607.457 267.737 610.186 266.645C612.915 265.553 615.147 263.496 616.457 260.864C617.766 258.233 618.061 255.212 617.286 252.377C616.51 249.542 614.719 247.091 612.253 245.492L610.848 250.219L609.853 244.293C609.843 244.288 609.833 244.284 609.822 244.281C608.344 243.744 606.775 243.504 605.204 243.573C603.633 243.643 602.091 244.021 600.666 244.687C599.241 245.352 597.961 246.292 596.9 247.452C595.839 248.613 595.016 249.971 594.48 251.449C593.944 252.927 593.704 254.496 593.775 256.067C593.845 257.638 594.224 259.179 594.891 260.603C595.558 262.027 596.498 263.306 597.659 264.367C598.82 265.427 600.179 266.249 601.658 266.784H601.658Z" stroke="#3F3D56" stroke-miterlimit="10"/>
<path d="M588.625 288.804C589.1 291.507 590.491 293.965 592.563 295.765C594.635 297.564 597.263 298.597 600.007 298.69C602.75 298.782 605.442 297.928 607.631 296.272C609.82 294.615 611.372 292.257 612.028 289.592C612.684 286.927 612.404 284.117 611.234 281.634C610.064 279.152 608.076 277.147 605.602 275.955C603.129 274.764 600.322 274.46 597.651 275.092C594.98 275.725 592.608 277.257 590.932 279.431L596.266 287.458L588.978 283.197C588.413 285.011 588.292 286.934 588.625 288.804V288.804Z" fill="#57B894"/>
<path d="M589.118 287.217C589.593 289.921 590.984 292.378 593.056 294.178C595.128 295.978 597.757 297.011 600.5 297.103C603.243 297.196 605.935 296.342 608.124 294.686C610.313 293.029 611.865 290.671 612.521 288.005C613.177 285.34 612.897 282.531 611.727 280.048C610.557 277.565 608.568 275.56 606.095 274.369C603.622 273.178 600.815 272.873 598.144 273.506C595.473 274.139 593.101 275.671 591.425 277.845L596.759 285.871L589.471 281.611C588.906 283.425 588.785 285.347 589.118 287.217V287.217Z" stroke="#3F3D56" stroke-miterlimit="10"/>
<path d="M5.18118 270.447C6.32601 270.863 7.55187 271.008 8.76212 270.869C9.97238 270.731 11.134 270.314 12.1553 269.65C13.1766 268.986 14.0298 268.094 14.6476 267.044C15.2653 265.995 15.6308 264.816 15.7152 263.601C15.7996 262.386 15.6006 261.168 15.1338 260.043C14.6671 258.918 13.9454 257.917 13.0256 257.118C12.1058 256.32 11.0131 255.746 9.8336 255.441C8.65408 255.137 7.42 255.111 6.22863 255.365L6.42551 259.412L4.51014 255.944C2.63031 256.827 1.17806 258.42 0.472537 260.373C0.221975 261.057 0.0696512 261.773 0.0201112 262.5C-0.100788 264.206 0.337641 265.904 1.26896 267.338C2.20028 268.772 3.57372 269.864 5.18118 270.447V270.447Z" fill="#57B894"/>
<path d="M14.6585 317.394C13.9823 313.951 16.9121 310.9 19.8061 308.916C22.7001 306.932 26.0815 304.983 27.0689 301.617C28.488 296.779 24.261 292.348 20.9709 288.527C18.53 285.692 16.4338 282.577 14.7263 279.248C13.9839 277.94 13.4783 276.512 13.2326 275.029C12.9732 272.884 13.6623 270.75 14.3565 268.704C16.6692 261.89 19.1419 255.132 21.7746 248.432" stroke="#3F3D56" stroke-miterlimit="10"/>
<path d="M5.5051 269.405C6.64993 269.821 7.87579 269.966 9.08604 269.827C10.2963 269.689 11.4579 269.272 12.4792 268.608C13.5005 267.944 14.3537 267.052 14.9715 266.002C15.5892 264.953 15.9547 263.774 16.0391 262.559C16.1235 261.344 15.9245 260.126 15.4577 259.001C14.991 257.876 14.2693 256.875 13.3495 256.076C12.4297 255.278 11.337 254.704 10.1575 254.399C8.978 254.095 7.74392 254.069 6.55255 254.323L6.74943 258.37L4.83405 254.902C2.95422 255.785 1.50198 257.378 0.796451 259.331C0.545891 260.015 0.39357 260.731 0.344027 261.458C0.22312 263.164 0.661547 264.862 1.59287 266.296C2.52419 267.73 3.89764 268.822 5.5051 269.405V269.405Z" stroke="#3F3D56" stroke-miterlimit="10"/>
<path d="M13.6971 247.034C14.1464 245.795 14.9005 244.688 15.8898 243.817C16.8792 242.945 18.072 242.337 19.3584 242.047L20.006 245.895L21.2067 241.854C22.8737 241.879 24.4898 242.433 25.8216 243.435C27.1533 244.438 28.1319 245.838 28.6159 247.434C29.0999 249.029 29.0644 250.736 28.5144 252.31C27.9645 253.884 26.9286 255.242 25.5563 256.189C24.1839 257.135 22.5462 257.621 20.8796 257.577C19.2129 257.532 17.6036 256.959 16.2839 255.941C14.9642 254.922 14.0025 253.51 13.5375 251.909C13.0725 250.308 13.1284 248.601 13.6971 247.034V247.034Z" fill="#57B894"/>
<path d="M14.129 245.645C14.5783 244.405 15.3323 243.299 16.3217 242.427C17.3111 241.556 18.5039 240.947 19.7903 240.658L20.4379 244.506L21.6386 240.465C23.3056 240.489 24.9217 241.043 26.2534 242.046C27.5852 243.049 28.5637 244.449 29.0478 246.044C29.5318 247.639 29.4963 249.347 28.9463 250.921C28.3964 252.494 27.3605 253.853 25.9881 254.799C24.6158 255.746 22.9781 256.232 21.3115 256.187C19.6448 256.143 18.0355 255.57 16.7158 254.551C15.3961 253.532 14.4343 252.121 13.9694 250.52C13.5044 248.919 13.5603 247.212 14.129 245.645V245.645Z" stroke="#3F3D56" stroke-miterlimit="10"/>
<path d="M19.5902 288.605C21.4058 289.264 23.4003 289.231 25.1934 288.514C26.9866 287.796 28.4531 286.444 29.3133 284.716C30.1736 282.987 30.3675 281.002 29.8581 279.139C29.3487 277.276 28.1716 275.666 26.5512 274.616L25.6286 277.721L24.9744 273.828C24.9679 273.825 24.9612 273.822 24.9544 273.82C23.9832 273.467 22.952 273.309 21.9197 273.355C20.8873 273.4 19.874 273.649 18.9378 274.086C18.0016 274.523 17.1607 275.141 16.4632 275.903C15.7658 276.665 15.2254 277.558 14.873 278.529C14.5206 279.5 14.3631 280.531 14.4095 281.564C14.4559 282.596 14.7052 283.609 15.1433 284.544C15.5814 285.48 16.1996 286.32 16.9626 287.017C17.7256 287.714 18.6185 288.253 19.5902 288.605V288.605Z" fill="#57B894"/>
<path d="M19.9644 287.198C21.78 287.856 23.7745 287.824 25.5676 287.106C27.3608 286.389 28.8273 285.037 29.6876 283.308C30.5478 281.579 30.7417 279.594 30.2323 277.732C29.7229 275.869 28.5458 274.259 26.9254 273.208L26.0028 276.314L25.3486 272.421C25.3421 272.418 25.3355 272.415 25.3286 272.413C24.3577 272.061 23.3269 271.903 22.295 271.95C21.2632 271.996 20.2506 272.245 19.315 272.682C17.4255 273.565 15.9643 275.163 15.253 277.124C14.5416 279.084 14.6384 281.247 15.522 283.136C16.4055 285.026 18.0035 286.486 19.9644 287.198V287.198Z" stroke="#3F3D56" stroke-miterlimit="10"/>
<path d="M11.4018 301.665C11.714 303.441 12.6274 305.056 13.989 306.238C15.3505 307.421 17.0773 308.099 18.8798 308.16C20.6824 308.221 22.4509 307.66 23.889 306.572C25.327 305.483 26.347 303.934 26.778 302.183C27.2089 300.432 27.0246 298.586 26.256 296.955C25.4873 295.323 24.181 294.006 22.5562 293.223C20.9313 292.441 19.0868 292.241 17.3318 292.656C15.5769 293.072 14.0183 294.079 12.9175 295.507L16.4218 300.781L11.6336 297.982C11.2623 299.173 11.1828 300.436 11.4018 301.665V301.665Z" fill="#57B894"/>
<path d="M11.7257 300.623C12.0379 302.399 12.9513 304.014 14.3129 305.196C15.6744 306.379 17.4013 307.057 19.2038 307.118C21.0063 307.179 22.7748 306.618 24.2129 305.53C25.6509 304.441 26.6709 302.892 27.1019 301.141C27.5328 299.39 27.3485 297.544 26.5799 295.912C25.8112 294.281 24.5049 292.964 22.8801 292.181C21.2552 291.399 19.4107 291.198 17.6558 291.614C15.9008 292.03 14.3422 293.036 13.2414 294.465L16.7457 299.738L11.9575 296.939C11.5862 298.131 11.5067 299.394 11.7257 300.623V300.623Z" stroke="#3F3D56" stroke-miterlimit="10"/>
<path d="M276.645 196.181C282.045 196.181 286.423 190.516 286.423 183.528C286.423 176.54 282.045 170.875 276.645 170.875C271.244 170.875 266.866 176.54 266.866 183.528C266.866 190.516 271.244 196.181 276.645 196.181Z" fill="#2F2E41"/>
<path d="M329.851 196.468C335.252 196.468 339.63 190.803 339.63 183.816C339.63 176.828 335.252 171.163 329.851 171.163C324.451 171.163 320.073 176.828 320.073 183.816C320.073 190.803 324.451 196.468 329.851 196.468Z" fill="#2F2E41"/>
<path d="M322.374 221.198C322.374 226.915 314.39 231.55 304.542 231.55C294.695 231.55 286.711 226.915 286.711 221.198C286.711 216.246 292.699 212.106 300.7 211.093C301.974 210.925 303.257 210.843 304.542 210.846C306.695 210.839 308.842 211.071 310.944 211.536C317.628 213.026 322.374 216.793 322.374 221.198Z" fill="#2F2E41"/>
<path d="M278.945 193.305C284.346 193.305 288.724 187.64 288.724 180.653C288.724 173.665 284.346 168 278.945 168C273.545 168 269.167 173.665 269.167 180.653C269.167 187.64 273.545 193.305 278.945 193.305Z" stroke="#3F3D56" stroke-miterlimit="10"/>
<path d="M332.152 193.593C337.553 193.593 341.931 187.928 341.931 180.94C341.931 173.952 337.553 168.288 332.152 168.288C326.752 168.288 322.374 173.952 322.374 180.94C322.374 187.928 326.752 193.593 332.152 193.593Z" stroke="#3F3D56" stroke-miterlimit="10"/>
<path d="M306.843 228.675C316.691 228.675 324.674 224.04 324.674 218.323C324.674 212.605 316.691 207.97 306.843 207.97C296.995 207.97 289.012 212.605 289.012 218.323C289.012 224.04 296.995 228.675 306.843 228.675Z" stroke="#3F3D56" stroke-miterlimit="10"/>
<path d="M311.157 212.399C311.162 213.122 310.89 213.82 310.398 214.35C310.165 214.603 309.883 214.806 309.568 214.946C309.253 215.085 308.913 215.158 308.569 215.159H302.816C302.108 215.135 301.438 214.831 300.953 214.313C300.467 213.796 300.207 213.108 300.228 212.399C300.225 211.838 300.389 211.289 300.7 210.822C301.973 210.643 303.257 210.555 304.542 210.558C306.698 210.551 308.847 210.799 310.944 211.295C311.086 211.645 311.158 212.02 311.157 212.399V212.399Z" fill="white"/>
<path d="M278.945 180.077C280.534 180.077 281.821 178.79 281.821 177.202C281.821 175.614 280.534 174.326 278.945 174.326C277.357 174.326 276.069 175.614 276.069 177.202C276.069 178.79 277.357 180.077 278.945 180.077Z" fill="white"/>
<path d="M332.44 180.077C334.028 180.077 335.316 178.79 335.316 177.202C335.316 175.614 334.028 174.326 332.44 174.326C330.851 174.326 329.564 175.614 329.564 177.202C329.564 178.79 330.851 180.077 332.44 180.077Z" fill="white"/>
<path opacity="0.3" d="M335.316 207.108C336.904 207.108 338.192 205.82 338.192 204.232C338.192 202.644 336.904 201.357 335.316 201.357C333.727 201.357 332.44 202.644 332.44 204.232C332.44 205.82 333.727 207.108 335.316 207.108Z" fill="#1FB4DB"/>
<path opacity="0.3" d="M265.14 207.108C266.729 207.108 268.016 205.82 268.016 204.232C268.016 202.644 266.729 201.357 265.14 201.357C263.552 201.357 262.264 202.644 262.264 204.232C262.264 205.82 263.552 207.108 265.14 207.108Z" fill="#1FB4DB"/>
</g>
<defs>
<clipPath id="clip0">
<rect width="618" height="336" fill="white"/>
</clipPath>
</defs>
</svg>
