<svg width="613" height="333" viewBox="0 0 613 333" fill="none" xmlns="http://www.w3.org/2000/svg">
<g clip-path="url(#clip0)">
<path d="M308.467 333C474.687 333 609.435 324.089 609.435 313.096C609.435 302.102 474.687 293.191 308.467 293.191C142.247 293.191 7.49902 302.102 7.49902 313.096C7.49902 324.089 142.247 333 308.467 333Z" fill="#F2F2F2"/>
<path d="M296.932 95.1921C247.896 95.1921 212.689 126.62 212.689 199.953C212.689 283.064 247.896 305.064 296.932 305.064C345.967 305.064 383.272 280.969 383.272 199.953C383.272 113.351 345.967 95.1921 296.932 95.1921ZM297.254 277.477C263.291 277.477 245.547 257.571 245.547 200.007C245.547 149.215 264.017 122.43 297.98 122.43C331.944 122.43 350.414 140.024 350.414 200.007C350.414 256.12 331.217 277.477 297.254 277.477Z" fill="#2F2E41"/>
<path d="M183.326 247.096H163.052V187.453C163.052 184.286 161.792 181.247 159.55 179.007C157.307 176.767 154.266 175.509 151.095 175.509H146.344C144.774 175.509 143.22 175.818 141.769 176.418C140.318 177.019 139 177.898 137.89 179.007C136.78 180.117 135.899 181.433 135.298 182.883C134.697 184.332 134.388 185.885 134.388 187.453V247.096H77.2012C76.0248 247.096 74.8683 246.792 73.844 246.214C72.8196 245.636 71.9623 244.803 71.355 243.797C70.7478 242.79 70.4113 241.644 70.3782 240.469C70.3451 239.294 70.6165 238.131 71.1661 237.091L131.692 122.651C132.447 121.224 132.904 119.659 133.036 118.051C133.169 116.443 132.974 114.824 132.463 113.293C131.952 111.763 131.136 110.351 130.064 109.144C128.992 107.937 127.686 106.959 126.226 106.27L122.653 104.585C119.878 103.276 116.707 103.083 113.794 104.045C110.881 105.007 108.449 107.051 107.003 109.754L33.1836 247.708C31.9266 250.057 31.2689 252.68 31.2689 255.344V255.344C31.2689 257.471 31.6883 259.577 32.503 261.542C33.3178 263.507 34.512 265.292 36.0175 266.796C37.523 268.3 39.3103 269.493 41.2774 270.307C43.2444 271.121 45.3526 271.54 47.4817 271.54H134.388V309.254C134.388 311.134 134.759 312.996 135.479 314.733C136.199 316.47 137.255 318.048 138.586 319.378C139.917 320.707 141.496 321.762 143.235 322.482C144.974 323.201 146.838 323.571 148.72 323.571H148.72C150.602 323.571 152.466 323.201 154.204 322.482C155.943 321.762 157.523 320.707 158.854 319.378C160.185 318.048 161.24 316.47 161.961 314.733C162.681 312.996 163.052 311.134 163.052 309.254V271.54H183.326C186.571 271.54 189.683 270.252 191.977 267.96C194.271 265.668 195.56 262.559 195.56 259.318V259.318C195.56 256.076 194.271 252.968 191.977 250.676C189.683 248.383 186.571 247.096 183.326 247.096V247.096Z" fill="#B8E34B"/>
<path d="M558.749 247.096H538.475V187.453C538.475 184.286 537.215 181.247 534.973 179.007C532.731 176.767 529.69 175.509 526.519 175.509H521.768C520.198 175.509 518.643 175.818 517.192 176.418C515.742 177.019 514.424 177.898 513.313 179.007C512.203 180.117 511.322 181.433 510.722 182.883C510.121 184.332 509.811 185.885 509.811 187.453V247.096H452.625C451.448 247.096 450.292 246.792 449.267 246.214C448.243 245.636 447.386 244.803 446.778 243.797C446.171 242.79 445.835 241.644 445.802 240.469C445.768 239.294 446.04 238.131 446.589 237.091L507.115 122.651C507.87 121.224 508.327 119.659 508.46 118.051C508.592 116.443 508.397 114.824 507.886 113.293C507.376 111.763 506.56 110.351 505.488 109.144C504.416 107.937 503.11 106.959 501.649 106.27L498.076 104.585C495.302 103.276 492.13 103.083 489.217 104.045C486.304 105.007 483.873 107.051 482.426 109.754L408.607 247.708C407.35 250.057 406.692 252.68 406.692 255.344V255.344C406.692 259.639 408.4 263.759 411.441 266.796C414.481 269.834 418.605 271.54 422.905 271.54H509.811V309.254C509.811 313.051 511.321 316.693 514.009 319.378C516.697 322.063 520.342 323.571 524.143 323.571V323.571C527.944 323.571 531.59 322.063 534.277 319.378C536.965 316.693 538.475 313.051 538.475 309.254V271.54H558.749C561.994 271.54 565.106 270.252 567.4 267.96C569.695 265.668 570.984 262.559 570.984 259.318V259.318C570.984 256.076 569.695 252.968 567.4 250.676C565.106 248.383 561.994 247.096 558.749 247.096Z" fill="#B8E34B"/>
<path d="M188.919 240.112H168.645V180.469C168.645 178.901 168.335 177.348 167.734 175.898C167.134 174.449 166.253 173.133 165.143 172.023C164.032 170.914 162.714 170.034 161.264 169.434C159.813 168.834 158.258 168.525 156.688 168.525H151.937C148.766 168.525 145.725 169.783 143.483 172.023C141.241 174.263 139.981 177.301 139.981 180.469V240.112H82.7941C81.6176 240.112 80.4612 239.808 79.4369 239.23C78.4125 238.652 77.5552 237.819 76.9479 236.812C76.3407 235.806 76.0042 234.66 75.9711 233.485C75.938 232.31 76.2094 231.147 76.759 230.107L137.285 115.667C138.039 114.24 138.497 112.675 138.629 111.067C138.762 109.459 138.567 107.84 138.056 106.309C137.545 104.778 136.729 103.367 135.657 102.16C134.585 100.953 133.279 99.9751 131.819 99.286L128.246 97.6005C125.471 96.2917 122.3 96.0984 119.386 97.0607C116.473 98.023 114.042 100.067 112.596 102.77L38.7765 240.724C37.5195 243.073 36.8618 245.696 36.8618 248.36V248.36C36.8618 252.655 38.5699 256.775 41.6104 259.812C44.6509 262.85 48.7747 264.556 53.0746 264.556H139.981V302.27C139.981 304.15 140.352 306.012 141.072 307.749C141.792 309.486 142.848 311.064 144.179 312.394C145.509 313.723 147.089 314.778 148.828 315.497C150.567 316.217 152.431 316.587 154.313 316.587H154.313C158.114 316.587 161.759 315.079 164.447 312.394C167.135 309.709 168.644 306.067 168.644 302.27V264.556H188.919C190.525 264.556 192.116 264.24 193.601 263.626C195.085 263.011 196.434 262.111 197.57 260.976C198.706 259.841 199.607 258.494 200.222 257.011C200.837 255.528 201.153 253.939 201.153 252.334V252.334C201.153 250.729 200.837 249.139 200.222 247.657C199.607 246.174 198.706 244.826 197.57 243.692C196.434 242.557 195.085 241.656 193.601 241.042C192.116 240.428 190.525 240.112 188.919 240.112V240.112Z" stroke="#3F3D56" stroke-miterlimit="10"/>
<path d="M569.236 240.112H548.962V180.469C548.962 177.301 547.702 174.263 545.46 172.023C543.217 169.783 540.176 168.525 537.005 168.525H532.255C530.684 168.525 529.13 168.834 527.679 169.434C526.228 170.034 524.91 170.914 523.8 172.023C522.69 173.133 521.809 174.449 521.208 175.898C520.607 177.348 520.298 178.901 520.298 180.469V240.112H463.111C461.935 240.112 460.778 239.808 459.754 239.23C458.73 238.652 457.872 237.819 457.265 236.812C456.658 235.806 456.321 234.66 456.288 233.485C456.255 232.31 456.527 231.147 457.076 230.107L517.602 115.667C518.357 114.24 518.814 112.675 518.947 111.067C519.079 109.459 518.884 107.84 518.373 106.309C517.862 104.778 517.046 103.367 515.974 102.16C514.902 100.953 513.597 99.9751 512.136 99.286L508.563 97.6005C505.789 96.2917 502.617 96.0984 499.704 97.0607C496.791 98.023 494.359 100.067 492.913 102.77L419.094 240.724C417.837 243.073 417.179 245.696 417.179 248.36C417.179 252.655 418.887 256.775 421.928 259.812C424.968 262.85 429.092 264.556 433.392 264.556H520.298V302.27C520.298 306.067 521.808 309.709 524.496 312.394C527.183 315.079 530.829 316.587 534.63 316.587V316.587C538.431 316.587 542.076 315.079 544.764 312.394C547.452 309.709 548.962 306.067 548.962 302.27V264.556H569.236C570.843 264.556 572.433 264.24 573.918 263.626C575.402 263.011 576.751 262.111 577.887 260.976C579.023 259.841 579.924 258.494 580.539 257.011C581.154 255.528 581.47 253.939 581.47 252.334V252.334C581.47 249.092 580.181 245.984 577.887 243.692C575.593 241.399 572.481 240.112 569.236 240.112V240.112Z" stroke="#3F3D56" stroke-miterlimit="10"/>
<path d="M308.117 88.9065C259.082 88.9065 223.874 120.335 223.874 193.668C223.874 276.778 259.082 298.778 308.117 298.778C357.153 298.778 394.458 274.683 394.458 193.668C394.458 107.065 357.153 88.9065 308.117 88.9065ZM308.44 271.191C274.476 271.191 256.733 251.286 256.733 193.721C256.733 142.929 275.203 116.144 309.166 116.144C343.13 116.144 361.6 133.738 361.6 193.721C361.6 249.834 342.403 271.191 308.44 271.191V271.191Z" stroke="#3F3D56" stroke-miterlimit="10"/>
<path d="M268.812 17.7557C272.877 17.7557 276.173 14.4634 276.173 10.4022C276.173 6.34106 272.877 3.04883 268.812 3.04883C264.747 3.04883 261.451 6.34106 261.451 10.4022C261.451 14.4634 264.747 17.7557 268.812 17.7557Z" fill="#2F2E41"/>
<path d="M286.765 53.4468C298.168 53.4468 307.411 41.4823 307.411 26.7234C307.411 11.9645 298.168 0 286.765 0C275.363 0 266.119 11.9645 266.119 26.7234C266.119 41.4823 275.363 53.4468 286.765 53.4468Z" fill="#2F2E41"/>
<path opacity="0.1" d="M286.765 45.376C276.423 45.376 267.856 35.5321 266.353 22.688C266.197 24.0274 266.119 25.3749 266.119 26.7234C266.119 41.4823 275.363 53.4468 286.765 53.4468C298.168 53.4468 307.412 41.4823 307.412 26.7234C307.412 25.3749 307.334 24.0274 307.177 22.688C305.674 35.5321 297.108 45.376 286.765 45.376Z" fill="black"/>
<path d="M328.778 104.984C328.335 106.804 326.423 108.262 324.306 109.28C319.854 111.422 314.363 112.061 309.038 112.275C307.679 112.358 306.316 112.332 304.961 112.2C302.336 111.946 299.874 110.815 297.972 108.99C297.836 108.902 297.725 108.78 297.649 108.637C297.573 108.494 297.534 108.335 297.536 108.173C297.539 108.011 297.582 107.852 297.663 107.712C297.743 107.571 297.858 107.453 297.997 107.369C300.832 104.258 305.564 102.35 310.33 100.976C313.944 99.9346 320.247 97.2366 324.189 97.6007C328.007 97.9534 329.338 102.686 328.778 104.984Z" fill="#3F3D56"/>
<path opacity="0.1" d="M328.778 104.984C328.335 106.804 326.423 108.262 324.306 109.28C319.854 111.422 314.363 112.061 309.038 112.275C307.679 112.358 306.316 112.332 304.961 112.2C302.336 111.946 299.874 110.815 297.972 108.99C297.836 108.902 297.725 108.78 297.649 108.637C297.573 108.494 297.534 108.335 297.536 108.173C297.539 108.011 297.582 107.852 297.663 107.712C297.743 107.571 297.858 107.453 297.997 107.369C300.832 104.258 305.564 102.35 310.33 100.976C313.944 99.9346 320.247 97.2366 324.189 97.6007C328.007 97.9534 329.338 102.686 328.778 104.984Z" fill="black"/>
<path d="M272.18 91.38C270.821 94.0404 270.575 97.1308 271.496 99.9723C272.433 102.792 274.186 105.271 276.534 107.095C282.293 111.707 290.22 112.342 297.601 112.278C304.07 112.222 310.53 111.779 316.946 110.953C319.096 110.763 321.209 110.273 323.223 109.497C325.632 108.456 327.749 106.546 328.607 104.068C329.464 101.59 328.856 98.5549 326.819 96.9009C325.029 95.4476 322.561 95.2477 320.258 95.1095L307.086 94.3187C308.387 93.0029 310.12 92.2588 311.705 91.3022C313.807 90.0332 315.204 87.9026 316.733 85.9817C319.089 83.1692 321.652 80.5367 324.401 78.1062C324.829 80.5631 326.385 82.5805 328.216 84.2757C330.047 85.9709 332.158 87.3356 334.061 88.9496C338.67 92.8588 341.989 98.1644 346.837 101.774C350.172 100.899 353.289 99.3442 355.993 97.2076L354.109 93.7983C353.952 93.4475 353.708 93.1427 353.399 92.9132C352.866 92.5855 352.178 92.7544 351.559 92.6616C349.904 92.4137 349.181 90.5048 348.532 88.964C346.749 84.7337 343.335 81.4517 340.42 77.9042C338.268 75.2855 336.359 72.4767 334.717 69.5125C333.737 67.7446 332.841 65.9039 331.512 64.3808C330.183 62.8578 328.32 61.6603 326.298 61.656C324.511 61.6522 322.862 62.5586 321.326 63.4703C316.646 66.2473 312.143 69.3119 307.843 72.6464C305.593 74.3915 303.357 76.2352 300.718 77.3054C299.606 77.7559 298.435 78.0637 297.369 78.6119C295.501 79.572 294.084 81.1964 292.558 82.6383C287.117 87.7813 279.666 91.1135 272.18 91.38Z" fill="#3F3D56"/>
<path d="M299.724 54.7738C299.663 56.3459 299.328 57.8953 298.735 59.3527C298.434 60.0795 297.987 60.7367 297.42 61.2832C296.854 61.8297 296.181 62.2538 295.444 62.529C294.397 62.8093 293.299 62.8449 292.236 62.633C291.309 62.5363 290.415 62.2322 289.622 61.7434C288.387 60.8951 287.771 59.3814 287.546 57.8999C287.322 56.4203 287.422 54.9083 287.279 53.4179C287.139 52.2141 286.91 51.0223 286.593 49.8524C286.496 49.4632 286.397 49.0758 286.3 48.6884C286.205 48.301 286.112 47.9136 286.026 47.5263C285.947 47.1622 285.873 46.7963 285.81 46.4286C285.758 46.1183 285.711 45.8063 285.677 45.4924C285.646 44.5619 285.491 43.6397 285.216 42.7501C284.958 42.1732 284.635 41.6274 284.254 41.1234C284.09 40.8902 283.932 40.6571 283.787 40.415C283.366 39.7857 283.171 39.033 283.232 38.2789C283.249 38.1623 283.278 38.0476 283.317 37.9363C283.331 37.8933 283.347 37.8503 283.365 37.809C283.527 37.7652 283.675 37.6827 283.797 37.5686C283.92 37.4545 284.012 37.3123 284.067 37.1543C284.129 36.815 284.1 36.4654 283.983 36.141C283.848 35.6876 283.665 35.2504 283.435 34.8371C283.284 34.5645 282.773 34.0731 282.769 33.761C282.762 33.1333 283.99 32.6275 284.487 32.38C286.005 31.6206 287.698 31.2777 289.392 31.3864C290.478 31.4599 291.656 31.7935 292.255 32.7028C292.794 33.5224 292.722 34.5842 292.952 35.5366C292.976 35.675 293.035 35.8051 293.123 35.915C293.24 36.0216 293.387 36.0893 293.544 36.1087C293.81 36.1615 294.083 36.1724 294.352 36.141H294.354C294.425 36.1353 294.496 36.1252 294.566 36.1105C294.985 36.0332 295.382 35.8621 295.726 35.6101C295.948 35.5509 296.173 35.5025 296.399 35.4648C296.408 35.4639 296.417 35.4621 296.426 35.4594C297.325 38.295 297.442 41.335 298.178 44.2226C298.543 45.6592 299.065 47.0778 299.139 48.5557C299.144 48.6202 299.146 48.6866 299.148 48.753C299.159 49.2282 299.121 49.7071 299.141 50.1806C299.147 50.3938 299.171 50.6061 299.212 50.8155C299.293 51.1523 299.393 51.484 299.512 51.8091L299.518 51.8253C299.552 51.9293 299.584 52.0351 299.611 52.1409C299.631 52.218 299.649 52.2934 299.663 52.3705L299.665 52.3759C299.798 53.1684 299.818 53.9757 299.724 54.7738V54.7738Z" fill="#FBBEBE"/>
<path d="M287.124 36.2289C292.974 36.2289 297.717 31.4913 297.717 25.6472C297.717 19.803 292.974 15.0654 287.124 15.0654C281.274 15.0654 276.532 19.803 276.532 25.6472C276.532 31.4913 281.274 36.2289 287.124 36.2289Z" fill="#FBBEBE"/>
<path d="M354.374 83.3016C354.067 80.4146 353.039 77.6508 351.386 75.2631C351.661 76.8952 351.936 78.5267 352.212 80.1576C351.869 80.2567 351.505 80.2537 351.163 80.1489C350.822 80.0441 350.519 79.842 350.291 79.5675C349.845 79.0112 349.504 78.3786 349.284 77.7005C348.08 74.7161 346.507 71.8943 344.6 69.3014C337.857 68.7401 331.191 65.9476 325.261 62.6923C319.329 59.4389 313.778 55.538 307.925 52.1465C306.91 51.5337 305.853 50.9943 304.762 50.5323C302.93 49.7987 300.875 49.4185 299.139 48.5558C299.022 48.4984 298.905 48.4375 298.79 48.3747C298.398 48.1616 298.027 47.9124 297.681 47.6304C297.494 47.4787 297.316 47.3158 297.149 47.1425C296.283 46.1358 295.596 44.9881 295.119 43.7492C294.187 41.6903 293.855 39.2062 292.925 37.1473C293.352 36.7482 293.833 36.4097 294.352 36.1411H294.354C294.43 36.1017 294.505 36.064 294.582 36.0281C294.95 35.855 295.333 35.7152 295.726 35.6102C295.948 35.551 296.173 35.5026 296.399 35.465C296.408 35.464 296.417 35.4622 296.426 35.4596C297.475 35.2888 298.55 35.3737 299.559 35.7071C301.035 36.2057 302.279 37.2011 303.519 38.1427C305.535 39.5611 307.468 41.0929 309.309 42.7305C310.333 43.7097 311.266 44.7858 312.367 45.6754C313.281 46.3805 314.245 47.0189 315.252 47.5855C321.207 51.1295 327.162 54.6729 333.119 58.2157C335.135 59.4156 337.153 60.6154 339.124 61.8852C342.119 63.8151 345.006 65.9063 347.891 67.9957C349.591 69.2261 351.29 70.457 352.989 71.6886C353.547 72.0438 354.036 72.4957 354.435 73.023C354.787 73.6216 355.005 74.289 355.076 74.9797C355.502 77.7701 355.262 80.6218 354.374 83.3016V83.3016Z" fill="#FBBEBE"/>
<path d="M302.35 62.7319C301.636 65.9333 298.397 67.8685 296.704 70.6807C294.6 74.1709 295.458 78.2278 296.248 82.2256C294.805 83.4685 293.361 84.7114 291.916 85.9543C291.119 86.6376 290.322 87.3246 289.464 87.929C288.212 88.7666 286.905 89.5168 285.55 90.1745C284.272 90.8309 282.993 91.4879 281.715 92.1455C280.527 92.813 279.268 93.346 277.961 93.7346C275.442 94.3803 272.767 93.9283 270.275 93.1804C269.981 93.1034 269.699 92.9882 269.435 92.8378C269.28 92.7452 269.144 92.6227 269.036 92.4773C268.791 92.0373 268.702 91.5271 268.783 91.03C269.036 86.8403 270.062 82.7385 271.083 78.6673C271.629 76.2248 272.363 73.8281 273.279 71.4986C274.177 69.5025 275.209 67.5695 276.369 65.7127C277.648 63.3765 279.164 61.1775 280.893 59.1502C281.734 58.37 282.443 57.4576 282.99 56.4492C283.627 54.9964 283.381 53.3303 283.51 51.7484C283.609 50.5599 283.925 49.3995 284.442 48.3246V48.3228C284.719 47.7438 285.052 47.1935 285.437 46.6799C285.611 47.0853 285.785 47.49 285.959 47.8941C286.074 48.1596 286.188 48.4244 286.3 48.6887C286.448 49.0295 286.594 49.369 286.738 49.7074C287.157 50.6795 287.574 51.651 287.992 52.6219C288.442 53.8447 289.085 54.9883 289.895 56.0098C290.265 56.5329 290.764 56.9511 291.345 57.2237C291.925 57.4962 292.566 57.6137 293.206 57.5647C293.845 57.5158 294.461 57.302 294.993 56.9443C295.525 56.5865 295.955 56.0971 296.241 55.5238C296.844 54.4535 297.282 53.2979 297.537 52.0964C297.892 50.6334 297.941 49.1132 297.681 47.6305C297.248 44.7752 296.033 41.859 295.149 39.2064C294.79 38.3219 294.582 37.3834 294.534 36.43C294.535 36.3229 294.546 36.2161 294.566 36.1108C294.571 36.0839 294.577 36.0552 294.582 36.0283C294.95 35.8551 295.333 35.7153 295.726 35.6104C295.948 35.5512 296.173 35.5028 296.399 35.4651C297.176 39.6691 297.955 43.8731 298.735 48.0771C298.753 48.1757 298.772 48.2744 298.79 48.3748C298.902 48.9774 299.015 49.5801 299.14 50.1809C299.254 50.7261 299.376 51.2695 299.512 51.8094L299.517 51.8255C299.564 52.0085 299.613 52.1896 299.663 52.3708L299.665 52.3761C299.803 52.8712 299.957 53.3626 300.131 53.8468C301.187 56.7649 303.027 59.7026 302.35 62.7319Z" fill="#B8E34B"/>
<path d="M345.338 107.722C345.305 108.339 345.425 108.954 345.687 109.514C346.349 110.724 347.94 110.999 349.317 111.112C357.357 111.773 365.446 111.526 373.432 110.378C373.865 110.349 374.285 110.218 374.659 109.998C375.794 109.203 375.094 107.265 373.855 106.644C372.615 106.024 371.144 106.173 369.784 105.905C368.432 105.565 367.145 105.007 365.974 104.254C363.215 102.671 360.497 101.02 357.819 99.302C356.224 98.2791 354.342 97.1874 352.547 97.7939C347.683 99.4377 345.306 102.48 345.338 107.722Z" fill="#3F3D56"/>
<path d="M286.067 47.3023V47.3041C286.054 47.3794 286.042 47.453 286.026 47.5265C286.006 47.6485 285.983 47.7722 285.959 47.8941C285.737 49.033 285.464 50.1665 285.149 51.2928C284.288 54.4046 283.133 57.4661 281.988 60.4828C278.914 68.5716 275.84 76.6609 272.765 84.7509C271.99 86.7883 271.216 88.8275 270.334 90.8237C270.04 91.4891 269.737 92.1599 269.435 92.8378C268.354 95.2644 267.317 97.77 266.972 100.353C266.65 102.052 266.613 103.794 266.862 105.505C267.207 107.198 268.236 108.852 269.846 109.478C270.632 109.785 271.758 110.195 271.543 111.012C271.426 111.46 270.916 111.679 270.458 111.754C269.854 111.85 269.235 111.812 268.647 111.643C268.059 111.474 267.515 111.177 267.054 110.775C266.194 110.013 265.534 108.827 264.39 108.7C263.598 108.614 262.869 109.087 262.144 109.419C259.185 110.769 255.738 109.824 252.631 108.865C252.875 107.607 254.139 106.779 255.394 106.528C256.649 106.275 257.947 106.454 259.227 106.42C259.637 106.442 260.043 106.337 260.392 106.121C260.704 105.834 260.923 105.46 261.02 105.048C261.845 102.607 262.458 100.1 262.853 97.5548C263.266 94.895 263.439 92.194 264.027 89.5665C264.485 87.5165 265.193 85.5311 265.799 83.5187C266.973 79.3755 267.936 75.1757 268.686 70.9354C269.065 69.1738 269.337 67.3907 269.5 65.5961C269.602 64.1075 269.553 62.6117 269.697 61.1285C269.938 59.1988 270.341 57.2928 270.902 55.4305C271.451 53.3984 272 51.3676 272.548 49.3379C273.361 46.3338 274.234 43.2131 276.295 40.8779C277.011 40.0558 277.888 39.3894 278.872 38.9198C279.856 38.4503 280.927 38.1876 282.017 38.1482C282.425 38.1477 282.833 38.1916 283.232 38.2791C283.298 38.2953 283.365 38.3114 283.431 38.3293C283.866 38.4429 284.284 38.6155 284.672 38.8423C285.307 38.4387 285.631 38.5804 286.053 39.2028C286.422 39.8614 286.597 40.6117 286.555 41.3658C286.591 43.3559 286.427 45.3446 286.067 47.3023Z" fill="#FBBEBE"/>
<path d="M286.765 49.6805L286.738 49.7074L286.593 49.8527L285.15 51.2929L284.442 48.3246L282.017 38.1482C282.425 38.1477 282.833 38.1916 283.232 38.2791C283.249 38.1625 283.278 38.0478 283.317 37.9365L283.431 38.3293L284.254 41.1236L285.81 46.4288L286.067 47.3023V47.3041L286.765 49.6805Z" fill="#B8E34B"/>
<path d="M295.925 17.2151C295.924 18.1574 295.737 19.0902 295.374 19.9603C295.012 20.8303 294.482 21.6204 293.814 22.2856C293.572 22.5277 293.312 22.7518 293.038 22.9561C291.799 23.8891 290.29 24.3941 288.738 24.3948H280.125C278.222 24.3919 276.397 23.6345 275.053 22.289C273.708 20.9436 272.953 19.12 272.953 17.2186C272.953 15.3173 273.708 13.4937 275.053 12.1482C276.397 10.8028 278.222 10.0454 280.125 10.0425H288.738C290.641 10.0474 292.465 10.8045 293.812 12.1484C295.159 13.4922 295.918 15.3137 295.925 17.2151V17.2151Z" fill="#2F2E41"/>
<path d="M304 17.7557C308.066 17.7557 311.361 14.4634 311.361 10.4022C311.361 6.34106 308.066 3.04883 304 3.04883C299.935 3.04883 296.64 6.34106 296.64 10.4022C296.64 14.4634 299.935 17.7557 304 17.7557Z" fill="#2F2E41"/>
<path opacity="0.1" d="M303.821 3.04883C303.731 3.04883 303.641 3.05241 303.552 3.05563C305.456 3.12479 307.259 3.92907 308.581 5.29927C309.904 6.66947 310.643 8.49876 310.643 10.4022C310.643 12.3057 309.904 14.135 308.581 15.5052C307.259 16.8754 305.456 17.6797 303.552 17.7489C303.641 17.7521 303.731 17.7557 303.821 17.7557C305.773 17.7557 307.645 16.9809 309.026 15.6019C310.406 14.2229 311.182 12.3525 311.182 10.4022C311.182 8.452 310.406 6.58163 309.026 5.2026C307.645 3.82356 305.773 3.04883 303.821 3.04883V3.04883Z" fill="black"/>
<path opacity="0.1" d="M268.812 3.04883C268.902 3.04883 268.992 3.05241 269.081 3.05563C267.177 3.12479 265.374 3.92907 264.051 5.29927C262.729 6.66947 261.99 8.49876 261.99 10.4022C261.99 12.3057 262.729 14.135 264.051 15.5052C265.374 16.8754 267.177 17.6797 269.081 17.7489C268.992 17.7521 268.902 17.7557 268.812 17.7557C266.861 17.7539 264.99 16.9784 263.611 15.5996C262.232 14.2208 261.458 12.3514 261.458 10.4022C261.458 8.45312 262.232 6.58373 263.611 5.20488C264.99 3.82604 266.861 3.05054 268.812 3.04883Z" fill="black"/>
<path opacity="0.1" d="M293.038 22.9561C291.799 23.8891 290.29 24.394 288.738 24.3948H280.125C278.574 24.394 277.064 23.8891 275.825 22.9561H293.038Z" fill="black"/>
<path d="M348.658 76.2383C348.658 76.2383 350.514 81.58 352.212 80.1577L350.858 73.1755L348.658 76.2383Z" fill="#FBBEBE"/>
<path d="M574.471 239.135C576.2 239.763 578.05 239.981 579.878 239.772C581.705 239.563 583.458 238.933 585 237.932C586.542 236.931 587.83 235.586 588.763 234.002C589.696 232.419 590.247 230.641 590.375 228.808C590.502 226.975 590.202 225.138 589.497 223.441C588.792 221.744 587.703 220.233 586.314 219.029C584.926 217.824 583.276 216.958 581.495 216.499C579.714 216.04 577.851 216.001 576.053 216.384L576.35 222.49L573.458 217.257C570.62 218.589 568.428 220.992 567.363 223.939C566.984 224.971 566.754 226.051 566.68 227.148C566.497 229.72 567.159 232.282 568.565 234.445C569.971 236.609 572.045 238.255 574.471 239.135V239.135Z" fill="#57B894"/>
<path d="M588.779 309.951C587.759 304.759 592.182 300.155 596.551 297.163C600.92 294.171 606.025 291.231 607.516 286.153C609.658 278.855 603.277 272.171 598.309 266.408C594.624 262.13 591.46 257.432 588.882 252.41C587.849 250.397 586.899 248.292 586.627 246.046C586.235 242.811 587.276 239.592 588.324 236.506C591.815 226.227 595.548 216.034 599.523 205.927" stroke="#3F3D56" stroke-miterlimit="10"/>
<path d="M574.96 237.563C576.689 238.191 578.539 238.409 580.367 238.2C582.194 237.991 583.947 237.361 585.489 236.36C587.031 235.359 588.319 234.013 589.252 232.43C590.185 230.847 590.736 229.068 590.864 227.236C590.991 225.403 590.691 223.566 589.986 221.869C589.281 220.172 588.192 218.661 586.803 217.457C585.415 216.252 583.765 215.386 581.984 214.927C580.203 214.468 578.34 214.429 576.542 214.812L576.839 220.918L573.947 215.685C571.109 217.017 568.917 219.42 567.852 222.367C567.473 223.399 567.243 224.479 567.169 225.576C566.986 228.148 567.648 230.71 569.054 232.873C570.46 235.036 572.534 236.683 574.96 237.563V237.563Z" stroke="#3F3D56" stroke-miterlimit="10"/>
<path d="M587.328 203.818C588.006 201.948 589.145 200.279 590.638 198.965C592.132 197.65 593.933 196.732 595.875 196.296L596.853 202.1L598.665 196.004C601.182 196.041 603.622 196.877 605.633 198.389C607.643 199.902 609.12 202.014 609.851 204.42C610.582 206.827 610.528 209.403 609.698 211.776C608.868 214.15 607.304 216.199 605.232 217.627C603.16 219.055 600.688 219.788 598.172 219.721C595.655 219.654 593.226 218.789 591.233 217.253C589.241 215.716 587.789 213.586 587.087 211.172C586.385 208.757 586.47 206.182 587.328 203.818H587.328Z" fill="#57B894"/>
<path d="M587.98 201.722C588.659 199.852 589.797 198.183 591.291 196.869C592.784 195.554 594.585 194.636 596.527 194.2L597.505 200.004L599.317 193.908C601.834 193.945 604.274 194.781 606.285 196.293C608.295 197.806 609.772 199.918 610.503 202.324C611.234 204.731 611.18 207.307 610.35 209.68C609.52 212.054 607.956 214.103 605.884 215.531C603.812 216.959 601.34 217.692 598.824 217.625C596.307 217.558 593.878 216.693 591.885 215.157C589.893 213.62 588.441 211.491 587.739 209.076C587.037 206.661 587.122 204.086 587.98 201.722H587.98Z" stroke="#3F3D56" stroke-miterlimit="10"/>
<path d="M596.225 266.525C598.966 267.518 601.977 267.469 604.684 266.387C607.391 265.305 609.605 263.266 610.904 260.658C612.203 258.05 612.496 255.056 611.727 252.246C610.958 249.436 609.18 247.008 606.734 245.423L605.341 250.108L604.354 244.235C604.344 244.23 604.334 244.226 604.323 244.223C602.857 243.691 601.301 243.452 599.742 243.521C598.184 243.59 596.654 243.965 595.241 244.625C593.828 245.285 592.559 246.216 591.506 247.366C590.453 248.516 589.637 249.862 589.105 251.327C588.573 252.792 588.336 254.347 588.406 255.904C588.475 257.46 588.852 258.988 589.513 260.399C590.174 261.811 591.107 263.078 592.259 264.129C593.411 265.18 594.758 265.994 596.225 266.525H596.225Z" fill="#57B894"/>
<path d="M596.79 264.402C599.531 265.395 602.542 265.346 605.249 264.264C607.956 263.182 610.17 261.143 611.469 258.535C612.768 255.927 613.061 252.933 612.292 250.123C611.523 247.314 609.745 244.885 607.299 243.3L605.906 247.985L604.919 242.112C604.909 242.107 604.899 242.103 604.888 242.1C603.422 241.568 601.866 241.33 600.307 241.399C598.749 241.468 597.219 241.843 595.806 242.502C594.393 243.162 593.124 244.093 592.071 245.243C591.018 246.393 590.202 247.739 589.67 249.204C589.138 250.669 588.901 252.224 588.971 253.781C589.041 255.338 589.417 256.865 590.078 258.277C590.739 259.688 591.672 260.956 592.824 262.007C593.976 263.058 595.323 263.872 596.79 264.402H596.79Z" stroke="#3F3D56" stroke-miterlimit="10"/>
<path d="M583.863 286.225C584.334 288.904 585.713 291.34 587.769 293.124C589.824 294.908 592.431 295.931 595.153 296.023C597.874 296.114 600.544 295.268 602.715 293.627C604.886 291.985 606.426 289.647 607.077 287.006C607.727 284.365 607.449 281.58 606.288 279.12C605.128 276.659 603.156 274.672 600.703 273.491C598.25 272.311 595.465 272.009 592.816 272.636C590.166 273.263 587.813 274.781 586.151 276.936L591.442 284.891L584.213 280.669C583.652 282.466 583.532 284.372 583.863 286.225V286.225Z" fill="#57B894"/>
<path d="M584.352 284.653C584.823 287.332 586.202 289.768 588.258 291.552C590.313 293.336 592.92 294.359 595.642 294.451C598.363 294.542 601.033 293.696 603.204 292.055C605.375 290.413 606.915 288.075 607.565 285.434C608.216 282.793 607.938 280.008 606.777 277.548C605.617 275.087 603.645 273.1 601.192 271.919C598.739 270.739 595.954 270.437 593.305 271.064C590.655 271.691 588.302 273.209 586.64 275.364L591.931 283.319L584.702 279.097C584.141 280.894 584.021 282.8 584.352 284.653V284.653Z" stroke="#3F3D56" stroke-miterlimit="10"/>
<path d="M5.1392 268.032C6.27477 268.445 7.49071 268.588 8.69118 268.451C9.89164 268.314 11.0438 267.9 12.0569 267.242C13.07 266.584 13.9162 265.7 14.529 264.66C15.1418 263.62 15.5043 262.451 15.588 261.247C15.6717 260.043 15.4743 258.836 15.0113 257.721C14.5484 256.606 13.8325 255.614 12.9202 254.822C12.0078 254.031 10.924 253.462 9.75398 253.16C8.58401 252.859 7.35991 252.833 6.17818 253.085L6.37346 257.096L4.47359 253.658C2.60897 254.533 1.16847 256.112 0.468656 258.048C0.220121 258.726 0.0690301 259.436 0.019891 260.157C-0.10003 261.847 0.334852 263.53 1.25863 264.951C2.18242 266.373 3.54475 267.454 5.1392 268.032V268.032Z" fill="#57B894"/>
<path d="M14.5398 314.56C13.8692 311.148 16.7753 308.124 19.6458 306.158C22.5164 304.192 25.8704 302.26 26.8499 298.924C28.2575 294.129 24.0646 289.738 20.8012 285.951C18.38 283.141 16.3008 280.054 14.6071 276.755C13.8707 275.459 13.3692 274.043 13.1255 272.573C12.8682 270.448 13.5517 268.333 14.2403 266.305C16.5343 259.552 18.987 252.855 21.5983 246.214" stroke="#3F3D56" stroke-miterlimit="10"/>
<path d="M5.46062 267C6.59619 267.412 7.81213 267.555 9.01259 267.418C10.2131 267.281 11.3652 266.867 12.3783 266.209C13.3914 265.552 14.2376 264.668 14.8504 263.627C15.4632 262.587 15.8257 261.419 15.9094 260.215C15.9931 259.01 15.7957 257.803 15.3327 256.688C14.8698 255.573 14.1539 254.581 13.2416 253.79C12.3292 252.998 11.2454 252.429 10.0754 252.128C8.90542 251.826 7.68133 251.8 6.4996 252.052L6.69488 256.063L4.795 252.626C2.93038 253.501 1.48989 255.08 0.790067 257.015C0.541535 257.694 0.390446 258.403 0.341304 259.124C0.221376 260.814 0.656255 262.497 1.58004 263.919C2.50382 265.34 3.86616 266.421 5.46062 267V267Z" stroke="#3F3D56" stroke-miterlimit="10"/>
<path d="M13.5864 244.829C14.032 243.6 14.78 242.504 15.7613 241.64C16.7427 240.776 17.9258 240.173 19.2018 239.886L19.8442 243.7L21.0351 239.695C22.6887 239.719 24.2917 240.268 25.6127 241.262C26.9337 242.256 27.9043 243.643 28.3844 245.224C28.8645 246.805 28.8293 248.498 28.2838 250.057C27.7383 251.617 26.7108 252.963 25.3495 253.901C23.9883 254.839 22.3639 255.321 20.7107 255.277C19.0576 255.233 17.4612 254.665 16.1522 253.655C14.8432 252.646 13.8892 251.247 13.428 249.66C12.9668 248.074 13.0223 246.382 13.5864 244.829V244.829Z" fill="#57B894"/>
<path d="M14.0147 243.451C14.4603 242.223 15.2083 241.126 16.1897 240.263C17.171 239.399 18.3542 238.796 19.6302 238.509L20.2725 242.323L21.4635 238.317C23.1171 238.342 24.7201 238.891 26.041 239.885C27.362 240.879 28.3326 242.266 28.8128 243.847C29.2929 245.428 29.2576 247.121 28.7121 248.68C28.1666 250.24 27.1391 251.586 25.7779 252.524C24.4167 253.462 22.7922 253.944 21.1391 253.9C19.4859 253.856 17.8896 253.288 16.5805 252.278C15.2715 251.269 14.3176 249.869 13.8564 248.283C13.3952 246.696 13.4506 245.004 14.0147 243.451V243.451Z" stroke="#3F3D56" stroke-miterlimit="10"/>
<path d="M19.4317 286.028C21.2326 286.681 23.2109 286.649 24.9896 285.938C26.7682 285.227 28.2229 283.887 29.0762 282.173C29.9295 280.46 30.1218 278.493 29.6166 276.647C29.1113 274.801 27.9437 273.205 26.3364 272.164L25.4212 275.242L24.7723 271.383C24.7659 271.38 24.7593 271.377 24.7525 271.375C23.7892 271.026 22.7663 270.869 21.7423 270.914C20.7183 270.959 19.7133 271.205 18.7846 271.639C17.8559 272.072 17.0218 272.684 16.33 273.44C15.6382 274.195 15.1022 275.079 14.7527 276.042C14.4031 277.005 14.2469 278.027 14.2929 279.05C14.3389 280.072 14.5862 281.076 15.0208 282.004C15.4553 282.931 16.0685 283.764 16.8254 284.454C17.5822 285.145 18.4679 285.68 19.4317 286.028V286.028Z" fill="#57B894"/>
<path d="M19.803 284.634C21.6039 285.286 23.5822 285.254 25.3608 284.543C27.1395 283.832 28.5941 282.492 29.4474 280.779C30.3007 279.065 30.4931 277.098 29.9878 275.252C29.4825 273.406 28.315 271.81 26.7076 270.769L25.7925 273.847L25.1436 269.988C25.1372 269.985 25.1305 269.983 25.1237 269.981C24.1607 269.632 23.1382 269.476 22.1147 269.521C21.0913 269.567 20.0868 269.814 19.1588 270.247C17.2845 271.123 15.8352 272.706 15.1296 274.649C14.424 276.593 14.52 278.736 15.3964 280.608C16.2729 282.481 17.8579 283.929 19.803 284.634V284.634Z" stroke="#3F3D56" stroke-miterlimit="10"/>
<path d="M11.3095 298.972C11.6192 300.732 12.5253 302.332 13.8758 303.504C15.2263 304.676 16.9392 305.349 18.7271 305.409C20.515 305.469 22.2693 304.913 23.6957 303.834C25.1221 302.756 26.1339 301.22 26.5613 299.485C26.9888 297.749 26.806 295.92 26.0435 294.303C25.2811 292.687 23.9854 291.381 22.3737 290.605C20.762 289.83 18.9324 289.631 17.1916 290.043C15.4509 290.455 13.9049 291.453 12.813 292.869L16.289 298.095L11.5394 295.321C11.1712 296.502 11.0923 297.754 11.3095 298.972V298.972Z" fill="#57B894"/>
<path d="M11.6308 297.939C11.9405 299.699 12.8466 301.299 14.1971 302.471C15.5476 303.643 17.2605 304.316 19.0484 304.376C20.8363 304.436 22.5906 303.88 24.017 302.802C25.4434 301.723 26.4551 300.187 26.8826 298.452C27.3101 296.716 27.1273 294.887 26.3648 293.27C25.6024 291.654 24.3066 290.348 22.695 289.572C21.0833 288.797 19.2536 288.598 17.5129 289.01C15.7722 289.423 14.2262 290.42 13.1343 291.836L16.6103 297.062L11.8607 294.288C11.4925 295.469 11.4136 296.721 11.6308 297.939V297.939Z" stroke="#3F3D56" stroke-miterlimit="10"/>
<path d="M274.406 194.429C279.763 194.429 284.106 188.815 284.106 181.889C284.106 174.964 279.763 169.35 274.406 169.35C269.049 169.35 264.707 174.964 264.707 181.889C264.707 188.815 269.049 194.429 274.406 194.429Z" fill="#2F2E41"/>
<path d="M327.183 194.714C332.539 194.714 336.882 189.1 336.882 182.175C336.882 175.249 332.539 169.635 327.183 169.635C321.826 169.635 317.483 175.249 317.483 182.175C317.483 189.1 321.826 194.714 327.183 194.714Z" fill="#2F2E41"/>
<path d="M319.765 219.223C319.765 224.889 311.846 229.483 302.078 229.483C292.31 229.483 284.391 224.889 284.391 219.223C284.391 214.316 290.33 210.212 298.267 209.209C299.53 209.042 300.804 208.96 302.078 208.964C304.214 208.957 306.343 209.186 308.428 209.648C315.058 211.124 319.765 214.857 319.765 219.223Z" fill="#2F2E41"/>
<path d="M276.688 191.579C282.045 191.579 286.388 185.965 286.388 179.04C286.388 172.114 282.045 166.5 276.688 166.5C271.332 166.5 266.989 172.114 266.989 179.04C266.989 185.965 271.332 191.579 276.688 191.579Z" stroke="#3F3D56" stroke-miterlimit="10"/>
<path d="M329.465 191.864C334.822 191.864 339.164 186.25 339.164 179.324C339.164 172.399 334.822 166.785 329.465 166.785C324.108 166.785 319.765 172.399 319.765 179.324C319.765 186.25 324.108 191.864 329.465 191.864Z" stroke="#3F3D56" stroke-miterlimit="10"/>
<path d="M304.36 226.633C314.129 226.633 322.048 222.039 322.048 216.373C322.048 210.707 314.129 206.114 304.36 206.114C294.592 206.114 286.673 210.707 286.673 216.373C286.673 222.039 294.592 226.633 304.36 226.633Z" stroke="#3F3D56" stroke-miterlimit="10"/>
<path d="M308.64 210.503C308.644 211.219 308.375 211.911 307.886 212.436C307.656 212.687 307.376 212.889 307.063 213.027C306.751 213.165 306.414 213.237 306.072 213.238H300.367C299.663 213.214 298.999 212.912 298.518 212.4C298.036 211.887 297.778 211.205 297.799 210.503C297.796 209.947 297.959 209.403 298.267 208.94C299.529 208.763 300.803 208.675 302.078 208.679C304.216 208.672 306.348 208.916 308.428 209.408C308.569 209.756 308.641 210.128 308.64 210.503V210.503Z" fill="white"/>
<path d="M276.688 178.47C278.264 178.47 279.541 177.194 279.541 175.62C279.541 174.046 278.264 172.77 276.688 172.77C275.113 172.77 273.836 174.046 273.836 175.62C273.836 177.194 275.113 178.47 276.688 178.47Z" fill="white"/>
<path d="M329.75 178.47C331.326 178.47 332.603 177.194 332.603 175.62C332.603 174.046 331.326 172.77 329.75 172.77C328.175 172.77 326.897 174.046 326.897 175.62C326.897 177.194 328.175 178.47 329.75 178.47Z" fill="white"/>
<path opacity="0.3" d="M332.603 205.259C334.178 205.259 335.456 203.983 335.456 202.409C335.456 200.835 334.178 199.559 332.603 199.559C331.027 199.559 329.75 200.835 329.75 202.409C329.75 203.983 331.027 205.259 332.603 205.259Z" fill="#B8E34B"/>
<path opacity="0.3" d="M262.995 205.259C264.571 205.259 265.848 203.983 265.848 202.409C265.848 200.835 264.571 199.559 262.995 199.559C261.42 199.559 260.142 200.835 260.142 202.409C260.142 203.983 261.42 205.259 262.995 205.259Z" fill="#B8E34B"/>
</g>
<defs>
<clipPath id="clip0">
<rect width="613" height="333" fill="white"/>
</clipPath>
</defs>
</svg>
