<svg width="502" height="400" viewBox="0 0 502 400" fill="none" xmlns="http://www.w3.org/2000/svg">
<g clip-path="url(#clip0)">
<path d="M414.437 357.687C414.476 357.622 414.518 357.56 414.563 357.5C414.675 357.237 414.815 356.988 414.982 356.757L428.848 337.402L440.272 321.462H459.759L458.381 323.381L455.928 326.807L448.329 337.408L432.044 360.133L447.139 390.386C447.756 391.618 446.703 393.389 444.802 394.334L437.522 397.952C436.799 398.32 436.002 398.52 435.191 398.535C434.166 398.535 433.312 398.156 432.953 397.435L414.189 359.825C414.041 359.478 413.986 359.098 414.029 358.723C414.073 358.348 414.213 357.991 414.437 357.687Z" fill="#1FB4DB"/>
<path d="M440.659 356.527L421.029 349.25C420.139 348.919 419.417 348.249 419.021 347.388C418.626 346.526 418.589 345.543 418.918 344.655L424.676 329.192C425.008 328.304 425.68 327.584 426.543 327.189C427.406 326.795 428.391 326.758 429.282 327.086L448.912 334.364C449.802 334.695 450.524 335.365 450.92 336.226C451.315 337.088 451.352 338.07 451.023 338.959L445.264 354.422C445.101 354.862 444.852 355.265 444.531 355.609C444.211 355.953 443.826 356.231 443.399 356.426C442.971 356.622 442.509 356.731 442.039 356.749C441.569 356.766 441.1 356.691 440.659 356.527H440.659Z" fill="#2F2E41"/>
<path d="M423.967 347.932C423.834 347.932 423.703 347.908 423.579 347.861H423.578C423.305 347.758 423.084 347.55 422.964 347.285C422.844 347.019 422.834 346.717 422.937 346.444L430.145 327.412C430.248 327.14 430.456 326.919 430.722 326.799C430.989 326.679 431.292 326.669 431.565 326.772C431.839 326.876 432.06 327.083 432.18 327.349C432.301 327.614 432.31 327.917 432.207 328.19L424.999 347.221C424.92 347.43 424.778 347.61 424.594 347.737C424.41 347.864 424.191 347.932 423.967 347.932V347.932Z" fill="white"/>
<path d="M455.642 395.704V326.966C455.64 326.902 455.644 326.838 455.654 326.775C455.687 325.978 455.953 325.207 456.42 324.559C456.886 323.911 457.533 323.412 458.279 323.126C458.755 322.937 459.263 322.841 459.775 322.842H467.909C469.005 322.844 470.056 323.278 470.831 324.051C471.606 324.825 472.041 325.873 472.043 326.966V395.704C472.041 396.797 471.606 397.845 470.831 398.618C470.056 399.391 469.005 399.826 467.909 399.827H459.775C458.679 399.826 457.629 399.391 456.854 398.618C456.079 397.845 455.643 396.797 455.642 395.704Z" fill="#1FB4DB"/>
<path d="M451.228 352.804V336.308C451.229 335.361 451.607 334.452 452.278 333.782C452.95 333.112 453.86 332.735 454.81 332.734H475.751C476.701 332.735 477.612 333.112 478.283 333.782C478.955 334.452 479.332 335.361 479.334 336.308V352.804C479.332 353.752 478.955 354.66 478.283 355.33C477.612 356 476.701 356.377 475.751 356.378H454.81C453.86 356.377 452.95 356 452.278 355.33C451.607 354.66 451.229 353.752 451.228 352.804Z" fill="#2F2E41"/>
<path d="M467.251 354.637C466.958 354.637 466.678 354.521 466.472 354.315C466.265 354.108 466.149 353.829 466.148 353.537V333.193C466.148 332.901 466.265 332.621 466.471 332.415C466.678 332.209 466.958 332.093 467.251 332.093C467.543 332.093 467.823 332.209 468.03 332.415C468.237 332.621 468.353 332.901 468.353 333.193V353.537C468.353 353.829 468.236 354.108 468.03 354.315C467.823 354.521 467.543 354.637 467.251 354.637V354.637Z" fill="white"/>
<path d="M429.592 274.683L369.336 243.688C368.364 243.185 367.631 242.318 367.298 241.276C366.965 240.235 367.058 239.105 367.558 238.132L371.284 230.918C371.788 229.948 372.657 229.217 373.701 228.884C374.744 228.552 375.877 228.646 376.852 229.145L437.109 260.14C437.412 260.295 437.693 260.489 437.946 260.716C438.638 261.322 439.106 262.141 439.277 263.044C439.447 263.946 439.31 264.88 438.886 265.696L435.16 272.91C434.912 273.392 434.57 273.82 434.155 274.17C433.741 274.52 433.261 274.785 432.743 274.949C432.333 275.076 431.906 275.142 431.477 275.142C430.821 275.142 430.174 274.984 429.592 274.683V274.683Z" fill="#1FB4DB"/>
<path d="M430.763 276.465L401.468 264.925C400.49 264.434 399.747 263.577 399.401 262.54C399.055 261.504 399.135 260.373 399.624 259.395L406.304 245.657C406.798 244.682 407.657 243.941 408.696 243.595C409.218 243.423 409.77 243.357 410.318 243.4C410.867 243.443 411.401 243.595 411.89 243.846L438.345 259.847C438.448 259.898 438.542 259.964 438.627 260.043C439.301 260.648 439.637 262.102 439.906 263.268L439.949 263.45C440.023 263.763 440.086 264.033 440.151 264.222L440.172 264.295C440.196 264.372 440.22 264.451 440.236 264.525C440.473 265.477 440.36 266.482 439.918 267.359L436.269 274.611C435.921 275.295 435.391 275.869 434.737 276.271C434.083 276.673 433.33 276.888 432.562 276.891C431.937 276.892 431.321 276.747 430.763 276.465V276.465Z" fill="#2F2E41"/>
<path d="M452.373 238.817C468.662 238.817 481.867 225.642 481.867 209.39C481.867 193.137 468.662 179.962 452.373 179.962C436.084 179.962 422.879 193.137 422.879 209.39C422.879 225.642 436.084 238.817 452.373 238.817Z" fill="#1FB4DB"/>
<path d="M454.095 225.245L454.125 224.146C452.075 224.089 450.267 223.96 448.909 222.97C448.524 222.674 448.207 222.298 447.981 221.868C447.754 221.438 447.623 220.965 447.596 220.48C447.573 220.184 447.617 219.887 447.728 219.611C447.838 219.335 448.01 219.088 448.232 218.889C449.134 218.129 450.584 218.375 451.642 218.859L452.554 219.276L450.805 206.525L449.713 206.674L451.201 217.521C449.764 217.099 448.432 217.281 447.52 218.049C447.17 218.354 446.895 218.736 446.718 219.164C446.54 219.593 446.464 220.056 446.495 220.519C446.527 221.17 446.702 221.807 447.006 222.384C447.311 222.96 447.738 223.464 448.259 223.858C450.004 225.131 452.272 225.194 454.095 225.245Z" fill="#2F2E41"/>
<path d="M444.313 207.609H438.377V208.709H444.313V207.609Z" fill="#2F2E41"/>
<path d="M463.05 207.609H457.114V208.709H463.05V207.609Z" fill="#2F2E41"/>
<path d="M425.487 337.669C423.539 337.557 422.02 334.362 422.02 330.355V278.849C422.019 276.34 422.335 273.842 422.96 271.412L422.96 271.412C423.187 270.538 423.457 269.669 423.761 268.831C425.611 263.673 428.859 259.128 433.143 255.701C433.627 255.307 434.133 254.926 434.646 254.568C437.142 252.811 439.895 251.45 442.808 250.535C442.728 250.172 442.687 249.802 442.686 249.431C442.687 248.046 443.239 246.719 444.221 245.739C445.202 244.76 446.533 244.209 447.921 244.208H455.636C457.024 244.209 458.355 244.76 459.337 245.739C460.318 246.719 460.87 248.046 460.872 249.431C460.871 249.802 460.83 250.171 460.75 250.532C466.78 252.437 472.045 256.209 475.783 261.3C479.521 266.391 481.536 272.538 481.538 278.849V330.355C481.538 334.464 479.964 337.683 477.956 337.683H425.602C425.563 337.684 425.524 337.679 425.487 337.669V337.669Z" fill="#2F2E41"/>
<path d="M459.568 342.371C459.225 341.771 459.039 341.095 459.026 340.405L457.867 272.776C457.857 272.234 457.954 271.696 458.153 271.192C458.352 270.688 458.649 270.228 459.026 269.839L459.027 269.838C459.404 269.448 459.854 269.137 460.352 268.921C460.85 268.704 461.385 268.588 461.928 268.579L470.062 268.443C471.086 268.424 472.081 268.787 472.853 269.46C473.625 270.133 474.119 271.068 474.238 272.083C474.256 272.219 474.264 272.355 474.265 272.491L475.429 340.124C475.444 341.218 475.025 342.272 474.263 343.058C473.501 343.844 472.459 344.296 471.363 344.317L463.232 344.457C462.49 344.468 461.759 344.28 461.114 343.913C460.47 343.546 459.936 343.013 459.568 342.371V342.371Z" fill="#1FB4DB"/>
<path d="M456.149 295.929C455.841 295.388 455.66 294.785 455.618 294.165L455.965 262.833C455.881 261.742 456.233 260.663 456.945 259.832C457.657 259.001 458.671 258.485 459.763 258.399L467.871 257.765C468.858 257.69 469.84 257.968 470.64 258.55C470.723 258.613 470.806 258.69 470.887 258.744C471.09 258.913 471.301 259.071 471.52 259.217L471.695 259.342C472.861 260.165 474.182 261.098 474.246 262.007L479.124 292.577C479.197 293.45 478.985 294.323 478.52 295.065C478.411 295.248 478.286 295.421 478.147 295.582C478.025 295.725 477.892 295.858 477.75 295.98C477.077 296.584 476.223 296.948 475.32 297.016L460.06 297.999C459.279 298.059 458.496 297.896 457.804 297.529C457.112 297.163 456.538 296.608 456.149 295.929V295.929Z" fill="#2F2E41"/>
<path d="M427.572 330.444C427.28 330.443 427 330.327 426.793 330.121C426.586 329.915 426.47 329.635 426.47 329.344V276.008C426.47 275.716 426.586 275.437 426.793 275.23C426.999 275.024 427.28 274.908 427.572 274.908C427.864 274.908 428.145 275.024 428.351 275.23C428.558 275.437 428.674 275.716 428.674 276.008V329.344C428.674 329.635 428.558 329.915 428.351 330.121C428.144 330.327 427.864 330.443 427.572 330.444V330.444Z" fill="white"/>
<path d="M479.122 202.399L427.885 183.697C427.613 183.598 427.363 183.446 427.15 183.251C426.937 183.055 426.765 182.82 426.643 182.558C426.521 182.296 426.452 182.013 426.44 181.724C426.428 181.435 426.472 181.147 426.572 180.876L426.745 180.058C430.747 169.145 444.01 162.276 454.948 166.269L470.715 172.024C481.653 176.016 486.407 188.94 482.406 199.853L481.95 201.089C481.749 201.637 481.338 202.083 480.808 202.329C480.278 202.574 479.671 202.6 479.122 202.399Z" fill="#2F2E41"/>
<path d="M481.882 203.437C410.467 206.066 404.227 197.113 425.987 183.035L430.603 174.56L483.508 193.805L481.882 203.437Z" fill="#2F2E41"/>
<path d="M467.879 170.682C468.273 169.373 466.584 167.71 464.107 166.967C461.629 166.224 459.301 166.682 458.907 167.991C458.513 169.299 460.202 170.963 462.679 171.706C465.157 172.449 467.485 171.99 467.879 170.682Z" fill="#2F2E41"/>
<path d="M156.282 0C105.077 0 63.4247 41.5585 63.4247 92.6488C63.4101 105.727 66.1855 118.658 71.5665 130.583C86.1192 162.81 118.612 185.298 156.282 185.298C180.906 185.284 204.516 175.518 221.928 158.146C239.339 140.774 249.127 117.217 249.14 92.6488C249.14 41.5586 207.48 0 156.282 0ZM233.109 129.894C226.097 144.272 215.177 156.395 201.593 164.881C188.009 173.366 172.309 177.873 156.282 177.886C120.083 177.886 89.0683 155.302 76.6551 123.512C72.808 113.676 70.8402 103.208 70.8533 92.6488C70.8533 45.6499 109.178 7.41191 156.282 7.41191C203.387 7.41191 241.712 45.6499 241.712 92.6488C241.728 105.556 238.785 118.295 233.109 129.894V129.894Z" fill="#E6E6E6"/>
<path d="M156.283 185.572C138.694 185.558 121.467 180.581 106.593 171.214C91.7184 161.848 79.8023 148.475 72.2205 132.64C71.9179 132.009 71.7865 131.309 71.8395 130.611C71.8924 129.913 72.1279 129.241 72.5223 128.663L72.5721 128.59C72.966 128.021 73.5031 127.565 74.1294 127.268C74.7557 126.971 75.4493 126.844 76.1404 126.899C76.8316 126.954 77.4961 127.19 78.0671 127.582C78.6382 127.975 79.0958 128.51 79.394 129.134C93.4819 158.583 123.662 177.611 156.283 177.611C171.189 177.573 185.827 173.647 198.744 166.222C211.661 158.798 222.408 148.133 229.919 135.285C230.268 134.682 230.771 134.181 231.377 133.835C231.983 133.488 232.67 133.308 233.368 133.312C234.059 133.31 234.738 133.493 235.335 133.84C235.932 134.187 236.425 134.687 236.764 135.288L236.807 135.364C237.151 135.97 237.33 136.655 237.326 137.352C237.323 138.048 237.137 138.732 236.787 139.334C228.57 153.373 216.818 165.024 202.697 173.135C188.576 181.245 172.576 185.533 156.283 185.572V185.572Z" fill="#1FB4DB"/>
<path d="M135.353 101.123C137.877 101.106 140.328 101.965 142.289 103.551C144.249 105.137 145.597 107.353 146.102 109.82C146.607 112.288 146.238 114.854 145.058 117.08C143.878 119.306 141.961 121.055 139.633 122.027C137.304 123 134.71 123.136 132.292 122.412C129.875 121.689 127.784 120.151 126.376 118.06C124.969 115.97 124.333 113.456 124.576 110.95C124.819 108.443 125.926 106.098 127.709 104.316C128.708 103.306 129.898 102.503 131.21 101.955C132.522 101.407 133.93 101.124 135.353 101.123V101.123ZM135.353 96.4903C132.291 96.4887 129.298 97.3928 126.752 99.0885C124.205 100.784 122.22 103.195 121.047 106.017C119.874 108.838 119.566 111.943 120.161 114.939C120.757 117.936 122.23 120.688 124.393 122.849C126.557 125.01 129.314 126.483 132.317 127.08C135.319 127.678 138.432 127.374 141.261 126.206C144.09 125.039 146.508 123.061 148.21 120.522C149.913 117.983 150.822 114.997 150.824 111.943C150.826 107.847 149.197 103.918 146.296 101.02C143.395 98.1217 139.458 96.4925 135.353 96.4903H135.353ZM167.604 74.4035C169.005 74.4106 170.35 73.8624 171.345 72.8796C172.34 71.8967 172.903 70.5597 172.911 69.1627C172.911 69.1449 172.911 69.1271 172.911 69.1093C172.917 68.4249 172.789 67.7459 172.532 67.1111C172.276 66.4764 171.896 65.8982 171.416 65.4097C170.936 64.9211 170.363 64.5318 169.732 64.2638C169.101 63.9959 168.423 63.8547 167.737 63.8481C167.704 63.8478 167.671 63.8478 167.638 63.8481C166.235 63.8349 164.884 64.3783 163.883 65.3587C162.881 66.3391 162.312 67.6762 162.298 69.0759C162.285 70.4756 162.83 71.8233 163.812 72.8223C164.795 73.8214 166.135 74.3901 167.538 74.4033C167.56 74.4035 167.582 74.4036 167.604 74.4035V74.4035ZM178.698 101.123C181.222 101.106 183.673 101.965 185.633 103.551C187.594 105.137 188.941 107.353 189.447 109.82C189.952 112.288 189.583 114.854 188.403 117.08C187.223 119.306 185.305 121.055 182.977 122.027C180.649 123 178.055 123.136 175.637 122.412C173.219 121.689 171.129 120.151 169.721 118.06C168.314 115.97 167.677 113.456 167.92 110.95C168.163 108.443 169.271 106.098 171.053 104.316C172.053 103.306 173.243 102.503 174.555 101.955C175.867 101.407 177.275 101.124 178.698 101.123V101.123ZM178.698 96.4903C175.638 96.4903 172.647 97.3956 170.103 99.0917C167.558 100.788 165.575 103.199 164.405 106.019C163.234 108.84 162.927 111.943 163.524 114.938C164.121 117.932 165.595 120.682 167.758 122.841C169.922 125 172.678 126.47 175.679 127.066C178.68 127.661 181.791 127.356 184.618 126.187C187.445 125.019 189.861 123.04 191.561 120.502C193.261 117.964 194.168 114.979 194.168 111.926C194.168 109.899 193.768 107.892 192.991 106.019C192.213 104.146 191.074 102.445 189.637 101.011C188.201 99.578 186.495 98.441 184.618 97.6653C182.741 96.8896 180.729 96.4903 178.698 96.4903V96.4903Z" fill="#E6E6E6"/>
<path d="M175.597 85.025H167.638L162.746 75.0818C162.351 74.3845 161.8 73.7882 161.135 73.3396C160.47 72.891 159.71 72.6024 158.915 72.4966C158.119 72.3907 157.31 72.4705 156.55 72.7296C155.791 72.9887 155.102 73.4201 154.538 73.9898L142.649 85.4221C141.676 86.4131 141.123 87.7406 141.107 89.128C141.107 92.0067 143.196 93.0325 144.174 93.6115C151.719 97.9462 154.372 98.426 154.372 100.593V111.496C154.372 112.198 154.652 112.871 155.149 113.368C155.647 113.864 156.322 114.143 157.025 114.143C157.729 114.143 158.404 113.864 158.901 113.368C159.399 112.871 159.678 112.198 159.678 111.496V96.6061C159.678 94.4222 154.637 92.6354 151.669 90.3192L159.778 81.7988C162.879 86.514 164.305 90.3192 166.079 90.3192H175.597C176.3 90.3203 176.976 90.0425 177.474 89.5469C177.972 89.0513 178.253 88.3784 178.254 87.6764C178.255 86.9743 177.977 86.3006 177.48 85.8033C176.983 85.3061 176.309 85.0261 175.605 85.025H175.597V85.025Z" fill="#E6E6E6"/>
<path d="M81.5928 235.259C79.3073 235.259 77.4151 241.898 77.0484 250.603H33.0802C32.7134 241.898 30.8212 235.259 28.5357 235.259C25.9877 235.259 23.922 243.503 23.922 253.672C23.922 263.841 25.9877 272.085 28.5357 272.085C30.8212 272.085 32.7134 265.446 33.0802 256.741H77.0483C77.4151 265.446 79.3073 272.085 81.5928 272.085C84.1408 272.085 86.2065 263.841 86.2065 253.672C86.2065 243.503 84.1408 235.259 81.5928 235.259Z" fill="#E6E6E6"/>
<path d="M103.01 226.486C96.4933 214.832 85.9425 205.948 73.3333 201.497C60.7242 197.046 46.9212 197.333 34.5091 202.305C22.0969 207.277 11.9266 216.592 5.90257 228.507C-0.12147 240.422 -1.58619 254.119 1.78266 267.034C5.15151 279.949 13.1229 291.195 24.2043 298.668C35.2857 306.141 48.7171 309.328 61.9837 307.631C75.2503 305.935 87.4422 299.472 96.2767 289.452C105.111 279.432 109.982 266.543 109.978 253.198C109.975 243.847 107.577 234.652 103.01 226.486V226.486ZM54.9766 303.681C41.6459 303.613 28.8864 298.273 19.4964 288.831C10.1063 279.39 4.85243 266.619 4.88692 253.318C4.92141 240.017 10.2415 227.273 19.6803 217.88C29.1192 208.487 41.9063 203.213 55.2372 203.214C68.5681 203.215 81.3545 208.491 90.7921 217.885C100.23 227.279 105.548 240.023 105.581 253.324C105.614 266.625 100.358 279.396 90.9668 288.836C81.5756 298.276 68.8153 303.615 55.4846 303.681C55.3153 303.682 55.146 303.682 54.9766 303.681V303.681Z" fill="#E6E6E6"/>
<path d="M55.0035 308.351C44.5235 308.356 34.2589 305.382 25.4114 299.778C24.9695 299.497 24.6285 299.083 24.4375 298.596L24.4098 298.525C24.2177 298.042 24.1862 297.511 24.3197 297.009C24.4533 296.508 24.7449 296.062 25.1516 295.738C25.5447 295.409 26.0337 295.214 26.5463 295.182C27.059 295.151 27.5681 295.285 27.9986 295.565C37.4026 301.537 48.5288 304.223 59.6293 303.201C70.7297 302.179 81.1753 297.507 89.3251 289.918C97.4749 282.329 102.867 272.254 104.655 261.276C106.442 250.297 104.524 239.037 99.2005 229.265C98.951 228.817 98.8523 228.301 98.919 227.792C98.9858 227.284 99.2144 226.811 99.5712 226.442C99.9236 226.059 100.39 225.8 100.901 225.702C101.413 225.604 101.942 225.672 102.412 225.897L102.48 225.929C102.951 226.149 103.34 226.513 103.591 226.967C108.147 235.363 110.44 244.796 110.246 254.341C110.051 263.887 107.375 273.219 102.48 281.422C97.5843 289.626 90.6378 296.421 82.32 301.141C74.0022 305.862 64.5984 308.346 55.0292 308.351H55.0035Z" fill="#1FB4DB"/>
<path d="M257.563 198.331C250.339 198.327 243.185 199.744 236.51 202.5C229.834 205.256 223.769 209.297 218.659 214.392C213.549 219.487 209.495 225.537 206.729 232.195C203.963 238.854 202.538 245.991 202.537 253.198C202.536 260.406 203.958 267.544 206.721 274.203C209.485 280.863 213.537 286.914 218.645 292.011C223.753 297.108 229.817 301.151 236.491 303.909C243.165 306.667 250.319 308.087 257.543 308.086H257.563C257.919 308.086 258.269 308.086 258.625 308.071C273.118 307.793 286.914 301.817 297.015 291.444C307.115 281.07 312.703 267.138 312.563 252.676C312.423 238.214 306.567 224.392 296.267 214.215C285.968 204.038 272.058 198.33 257.563 198.331V198.331ZM268.773 302.438C261.83 304.011 254.633 304.105 247.652 302.713C240.671 301.321 234.062 298.475 228.259 294.361C222.456 290.247 217.588 284.957 213.973 278.837C210.359 272.717 208.079 265.906 207.284 258.847C206.488 251.788 207.194 244.642 209.356 237.874C211.518 231.106 215.087 224.87 219.83 219.572C224.572 214.275 230.382 210.035 236.879 207.131C243.376 204.227 250.414 202.723 257.533 202.718H257.563C270.007 202.718 282.015 207.292 291.292 215.568C300.569 223.843 306.464 235.239 307.851 247.578C309.238 259.917 306.02 272.333 298.811 282.453C291.602 292.573 280.908 299.688 268.773 302.438V302.438Z" fill="#E6E6E6"/>
<path d="M257.563 308.361C243.921 308.361 230.762 303.328 220.615 294.23C210.469 285.133 204.052 272.613 202.6 259.079C201.147 245.546 204.762 231.955 212.748 220.92C220.734 209.885 232.527 202.186 245.86 199.305C246.188 199.234 246.526 199.23 246.856 199.292L246.971 199.313C247.524 199.42 248.023 199.715 248.384 200.146C248.745 200.578 248.946 201.12 248.952 201.683C248.959 202.245 248.771 202.792 248.42 203.232C248.069 203.672 247.577 203.977 247.026 204.097C234.873 206.697 224.114 213.691 216.821 223.734C209.528 233.776 206.217 246.156 207.526 258.488C208.836 270.821 214.672 282.234 223.912 290.529C233.152 298.824 245.141 303.414 257.57 303.416C258.056 303.411 258.529 303.409 259.009 303.395C259.544 303.373 260.07 303.54 260.494 303.866C260.919 304.192 261.215 304.656 261.33 305.178C261.457 305.682 261.401 306.215 261.172 306.682C260.942 307.148 260.555 307.519 260.078 307.728V307.729C259.754 307.877 259.429 308.022 259.102 308.165C258.827 308.286 258.53 308.352 258.229 308.357C258.008 308.361 257.787 308.361 257.563 308.361Z" fill="#1FB4DB"/>
<path d="M284.697 250.875C283.231 250.802 281.782 251.209 280.57 252.034C279.359 252.86 278.451 254.058 277.985 255.446H272.568L268.614 243.581C268.467 243.137 268.184 242.75 267.804 242.475C267.424 242.201 266.967 242.053 266.497 242.053H266.456C265.98 242.06 265.519 242.221 265.142 242.512C264.766 242.803 264.494 243.207 264.367 243.665L258.171 265.241L250.888 221.602C250.804 221.097 250.548 220.637 250.163 220.298C249.778 219.959 249.288 219.762 248.775 219.741C248.263 219.72 247.758 219.875 247.347 220.181C246.935 220.487 246.642 220.925 246.516 221.422L239.136 255.446H230.865C230.274 255.446 229.707 255.68 229.289 256.097C228.871 256.514 228.637 257.079 228.637 257.669C228.637 258.259 228.871 258.824 229.289 259.241C229.707 259.658 230.274 259.892 230.865 259.892H240.89C241.387 259.893 241.869 259.727 242.26 259.423C242.651 259.118 242.929 258.691 243.049 258.211L248.256 232.898L255.4 275.675C255.481 276.173 255.732 276.628 256.109 276.964C256.487 277.301 256.969 277.498 257.474 277.522H257.6C258.084 277.522 258.555 277.364 258.941 277.074C259.328 276.783 259.61 276.375 259.744 275.911L266.664 251.792L268.851 258.364C269 258.807 269.284 259.192 269.663 259.466C270.043 259.74 270.499 259.889 270.967 259.892H278.083C278.508 261.016 279.23 262.005 280.172 262.753C281.114 263.502 282.241 263.983 283.434 264.145C284.628 264.307 285.843 264.145 286.951 263.675C288.059 263.205 289.02 262.445 289.731 261.475C290.443 260.506 290.878 259.362 290.992 258.166C291.106 256.97 290.893 255.765 290.378 254.679C289.862 253.593 289.062 252.667 288.062 251.997C287.062 251.328 285.899 250.94 284.697 250.875H284.697Z" fill="#E6E6E6"/>
<path d="M501.449 400H400.599C400.452 400 400.312 399.942 400.209 399.839C400.106 399.736 400.048 399.596 400.048 399.45C400.048 399.304 400.106 399.165 400.209 399.061C400.312 398.958 400.452 398.9 400.599 398.9H501.449C501.595 398.9 501.735 398.958 501.839 399.061C501.942 399.165 502 399.304 502 399.45C502 399.596 501.942 399.736 501.839 399.839C501.735 399.942 501.595 400 501.449 400Z" fill="#3F3D56"/>
</g>
<defs>
<clipPath id="clip0">
<rect width="502" height="400" fill="white"/>
</clipPath>
</defs>
</svg>
