<svg width="506" height="403" viewBox="0 0 506 403" fill="none" xmlns="http://www.w3.org/2000/svg">
<g clip-path="url(#clip0)">
<path d="M417.739 360.369C417.778 360.305 417.821 360.242 417.867 360.181C417.979 359.917 418.121 359.666 418.289 359.433L432.265 339.933L443.78 323.873H463.422L462.033 325.807L459.561 329.258L451.902 339.939L435.487 362.835L450.702 393.315C451.324 394.555 450.263 396.339 448.346 397.292L441.008 400.937C440.28 401.308 439.476 401.509 438.659 401.524C437.625 401.524 436.765 401.142 436.403 400.416L417.489 362.524C417.34 362.174 417.285 361.792 417.329 361.414C417.372 361.036 417.514 360.676 417.739 360.369Z" fill="#B8E34B"/>
<path d="M444.17 359.201L424.383 351.869C423.486 351.536 422.759 350.861 422.36 349.993C421.961 349.125 421.924 348.135 422.256 347.24L428.06 331.661C428.395 330.766 429.072 330.041 429.942 329.643C430.812 329.246 431.805 329.208 432.703 329.54L452.489 336.871C453.386 337.205 454.114 337.88 454.513 338.748C454.911 339.616 454.949 340.606 454.616 341.501L448.812 357.08C448.647 357.523 448.396 357.93 448.074 358.276C447.751 358.623 447.363 358.903 446.932 359.1C446.501 359.297 446.035 359.407 445.561 359.424C445.087 359.442 444.615 359.366 444.17 359.201H444.17Z" fill="#2F2E41"/>
<path d="M427.345 350.541C427.211 350.541 427.079 350.517 426.954 350.47H426.954C426.678 350.366 426.455 350.157 426.334 349.889C426.213 349.621 426.203 349.317 426.307 349.042L433.572 329.868C433.676 329.593 433.886 329.371 434.154 329.25C434.423 329.129 434.728 329.119 435.004 329.223C435.28 329.327 435.503 329.536 435.624 329.804C435.745 330.071 435.755 330.376 435.651 330.651L428.386 349.825C428.305 350.036 428.163 350.217 427.977 350.345C427.791 350.473 427.571 350.541 427.345 350.541V350.541Z" fill="white"/>
<path d="M459.272 398.671V329.419C459.271 329.354 459.275 329.29 459.284 329.226C459.318 328.423 459.586 327.646 460.057 326.993C460.527 326.34 461.178 325.838 461.931 325.549C462.41 325.359 462.922 325.262 463.438 325.264H471.638C472.742 325.265 473.801 325.703 474.582 326.482C475.363 327.261 475.802 328.317 475.804 329.419V398.671C475.802 399.773 475.363 400.829 474.582 401.608C473.801 402.387 472.742 402.825 471.638 402.826H463.438C462.334 402.825 461.275 402.387 460.494 401.608C459.713 400.829 459.274 399.773 459.272 398.671Z" fill="#B8E34B"/>
<path d="M454.823 355.45V338.831C454.824 337.876 455.205 336.961 455.882 336.286C456.559 335.611 457.476 335.231 458.434 335.23H479.542C480.499 335.231 481.417 335.611 482.094 336.286C482.771 336.961 483.152 337.876 483.153 338.831V355.45C483.152 356.405 482.771 357.32 482.094 357.995C481.417 358.67 480.499 359.05 479.542 359.051H458.434C457.476 359.05 456.559 358.67 455.882 357.995C455.205 357.32 454.824 356.405 454.823 355.45Z" fill="#2F2E41"/>
<path d="M470.974 357.297C470.679 357.296 470.397 357.18 470.189 356.972C469.98 356.764 469.863 356.483 469.863 356.189V335.692C469.863 335.398 469.98 335.116 470.188 334.908C470.397 334.7 470.679 334.584 470.974 334.584C471.268 334.584 471.551 334.7 471.759 334.908C471.968 335.116 472.085 335.398 472.085 335.692V356.189C472.084 356.483 471.967 356.764 471.759 356.972C471.551 357.18 471.268 357.296 470.974 357.297V357.297Z" fill="white"/>
<path d="M433.015 276.743L372.279 245.516C371.299 245.009 370.56 244.135 370.225 243.086C369.889 242.037 369.983 240.898 370.487 239.918L374.242 232.65C374.751 231.672 375.627 230.936 376.679 230.601C377.73 230.266 378.872 230.361 379.854 230.863L440.592 262.091C440.897 262.247 441.181 262.442 441.435 262.671C442.133 263.282 442.605 264.107 442.777 265.017C442.949 265.926 442.81 266.867 442.383 267.688L438.627 274.957C438.377 275.442 438.033 275.874 437.615 276.226C437.197 276.579 436.713 276.846 436.191 277.011C435.778 277.139 435.348 277.205 434.915 277.206C434.254 277.205 433.602 277.047 433.015 276.743V276.743Z" fill="#B8E34B"/>
<path d="M434.196 278.539L404.667 266.912C403.681 266.417 402.932 265.554 402.584 264.509C402.235 263.465 402.316 262.326 402.808 261.341L409.542 247.5C410.039 246.517 410.906 245.77 411.952 245.422C412.479 245.249 413.035 245.182 413.588 245.225C414.141 245.269 414.679 245.422 415.172 245.675L441.838 261.796C441.941 261.848 442.037 261.914 442.122 261.993C442.801 262.603 443.14 264.067 443.412 265.243L443.455 265.426C443.529 265.741 443.593 266.013 443.658 266.204L443.68 266.277C443.704 266.354 443.728 266.435 443.744 266.508C443.983 267.468 443.869 268.481 443.423 269.364L439.746 276.671C439.395 277.359 438.86 277.938 438.201 278.343C437.542 278.748 436.783 278.964 436.009 278.968C435.379 278.969 434.758 278.822 434.196 278.539V278.539Z" fill="#2F2E41"/>
<path d="M455.977 240.609C472.396 240.609 485.707 227.335 485.707 210.96C485.707 194.586 472.396 181.312 455.977 181.312C439.558 181.312 426.248 194.586 426.248 210.96C426.248 227.335 439.558 240.609 455.977 240.609Z" fill="#B8E34B"/>
<path d="M457.713 226.935L457.744 225.827C455.677 225.769 453.855 225.64 452.486 224.643C452.098 224.344 451.779 223.965 451.55 223.532C451.322 223.099 451.19 222.622 451.163 222.134C451.139 221.836 451.184 221.536 451.295 221.258C451.406 220.979 451.58 220.731 451.803 220.53C452.712 219.765 454.175 220.013 455.241 220.5L456.16 220.921L454.397 208.074L453.297 208.224L454.796 219.152C453.348 218.727 452.005 218.91 451.086 219.684C450.733 219.992 450.456 220.376 450.277 220.808C450.098 221.24 450.021 221.707 450.053 222.173C450.085 222.829 450.261 223.47 450.568 224.051C450.875 224.633 451.306 225.14 451.831 225.537C453.59 226.82 455.876 226.883 457.713 226.935Z" fill="#2F2E41"/>
<path d="M447.853 209.166H441.87V210.274H447.853V209.166Z" fill="#2F2E41"/>
<path d="M466.74 209.166H460.756V210.274H466.74V209.166Z" fill="#2F2E41"/>
<path d="M428.877 340.202C426.914 340.088 425.382 336.869 425.382 332.832V280.94C425.382 278.413 425.7 275.895 426.33 273.448L426.33 273.447C426.559 272.567 426.831 271.692 427.137 270.848C429.002 265.651 432.276 261.071 436.594 257.619C437.082 257.222 437.592 256.837 438.11 256.477C440.625 254.707 443.4 253.336 446.336 252.413C446.255 252.048 446.214 251.676 446.213 251.302C446.215 249.907 446.771 248.569 447.76 247.582C448.75 246.596 450.091 246.041 451.49 246.039H459.267C460.666 246.041 462.007 246.596 462.997 247.582C463.986 248.569 464.542 249.907 464.544 251.302C464.543 251.675 464.502 252.047 464.421 252.411C470.499 254.331 475.807 258.13 479.574 263.26C483.341 268.389 485.373 274.582 485.375 280.94V332.832C485.375 336.973 483.789 340.216 481.764 340.216H428.993C428.954 340.216 428.915 340.212 428.877 340.202V340.202Z" fill="#2F2E41"/>
<path d="M463.23 344.938C462.884 344.334 462.697 343.653 462.683 342.958L461.515 274.822C461.505 274.276 461.603 273.734 461.804 273.226C462.004 272.718 462.303 272.255 462.684 271.863L462.685 271.862C463.064 271.469 463.518 271.155 464.02 270.937C464.522 270.72 465.061 270.603 465.608 270.593L473.807 270.456C474.84 270.438 475.843 270.803 476.621 271.481C477.399 272.158 477.897 273.101 478.017 274.124C478.034 274.26 478.043 274.397 478.044 274.535L479.217 342.675C479.232 343.777 478.81 344.839 478.042 345.631C477.274 346.423 476.223 346.879 475.119 346.899L466.923 347.04C466.175 347.051 465.438 346.862 464.788 346.492C464.139 346.123 463.601 345.586 463.23 344.938V344.938Z" fill="#B8E34B"/>
<path d="M459.784 298.149C459.474 297.604 459.29 296.996 459.248 296.371L459.598 264.804C459.513 263.706 459.869 262.618 460.586 261.781C461.304 260.944 462.325 260.424 463.427 260.337L471.6 259.698C472.594 259.622 473.584 259.903 474.39 260.489C474.474 260.553 474.557 260.63 474.639 260.685C474.843 260.855 475.056 261.014 475.277 261.162L475.454 261.287C476.629 262.117 477.961 263.057 478.025 263.973L482.942 294.771C483.016 295.651 482.802 296.53 482.333 297.278C482.223 297.462 482.097 297.636 481.957 297.799C481.834 297.943 481.7 298.077 481.556 298.2C480.878 298.809 480.017 299.176 479.108 299.244L463.726 300.234C462.938 300.294 462.15 300.13 461.452 299.761C460.754 299.392 460.176 298.833 459.784 298.149V298.149Z" fill="#2F2E41"/>
<path d="M430.979 332.922C430.684 332.921 430.402 332.805 430.194 332.597C429.985 332.389 429.868 332.108 429.868 331.814V278.078C429.868 277.784 429.985 277.502 430.193 277.294C430.402 277.087 430.684 276.97 430.979 276.97C431.274 276.97 431.556 277.087 431.765 277.294C431.973 277.502 432.09 277.784 432.09 278.078V331.814C432.09 332.108 431.972 332.389 431.764 332.597C431.556 332.805 431.273 332.921 430.979 332.922V332.922Z" fill="white"/>
<path d="M482.94 203.917L431.294 185.075C431.02 184.975 430.769 184.822 430.554 184.625C430.339 184.428 430.165 184.191 430.042 183.927C429.919 183.663 429.85 183.378 429.838 183.087C429.825 182.796 429.871 182.506 429.971 182.232L430.146 181.409C434.179 170.413 447.548 163.493 458.573 167.516L474.466 173.314C485.491 177.336 490.283 190.356 486.25 201.352L485.79 202.597C485.588 203.149 485.174 203.598 484.639 203.846C484.105 204.093 483.493 204.119 482.94 203.917Z" fill="#2F2E41"/>
<path d="M485.722 204.963C413.738 207.611 407.448 198.591 429.381 184.407L434.034 175.869L487.361 195.258L485.722 204.963Z" fill="#2F2E41"/>
<path d="M471.607 171.962C472.004 170.643 470.302 168.967 467.805 168.219C465.308 167.47 462.961 167.932 462.564 169.251C462.166 170.569 463.868 172.245 466.366 172.993C468.863 173.742 471.21 173.28 471.607 171.962Z" fill="#2F2E41"/>
<path d="M157.528 0C105.914 0 63.9302 41.8702 63.9302 93.3437C63.9155 106.52 66.713 119.548 72.1369 131.562C86.8055 164.031 119.557 186.687 157.528 186.687C182.347 186.674 206.146 176.835 223.696 159.332C241.246 141.83 251.112 118.096 251.125 93.3437C251.125 41.8703 209.134 0 157.528 0ZM234.967 130.868C227.899 145.354 216.891 157.568 203.199 166.118C189.507 174.667 173.682 179.207 157.528 179.22C121.04 179.22 89.7782 156.466 77.266 124.438C73.3883 114.528 71.4048 103.982 71.418 93.3437C71.418 45.9923 110.048 7.4675 157.528 7.4675C205.008 7.4675 243.638 45.9922 243.638 93.3437C243.654 106.347 240.688 119.183 234.967 130.868V130.868Z" fill="#E6E6E6"/>
<path d="M157.528 186.964C139.799 186.95 122.435 181.935 107.442 172.499C92.4493 163.062 80.4382 149.589 72.796 133.635C72.491 132.999 72.3586 132.294 72.4119 131.591C72.4653 130.888 72.7026 130.211 73.1002 129.628L73.1504 129.555C73.5474 128.981 74.0888 128.522 74.7201 128.223C75.3514 127.923 76.0505 127.795 76.7472 127.851C77.4439 127.906 78.1136 128.144 78.6892 128.539C79.2649 128.934 79.7261 129.474 80.0266 130.103C94.2269 159.772 124.648 178.943 157.528 178.943C172.554 178.905 187.308 174.949 200.328 167.469C213.348 159.989 224.18 149.244 231.751 136.3C232.103 135.692 232.61 135.188 233.221 134.839C233.831 134.49 234.524 134.308 235.228 134.312C235.924 134.31 236.609 134.494 237.21 134.844C237.812 135.193 238.309 135.697 238.651 136.302L238.694 136.379C239.041 136.99 239.221 137.68 239.218 138.382C239.214 139.084 239.026 139.772 238.673 140.38C230.391 154.523 218.546 166.262 204.312 174.433C190.079 182.605 173.951 186.924 157.528 186.964V186.964Z" fill="#B8E34B"/>
<path d="M136.432 101.881C138.976 101.865 141.447 102.73 143.423 104.328C145.399 105.926 146.757 108.158 147.266 110.644C147.775 113.13 147.404 115.715 146.214 117.958C145.025 120.201 143.092 121.963 140.745 122.943C138.398 123.922 135.783 124.06 133.347 123.331C130.91 122.602 128.802 121.052 127.384 118.946C125.965 116.839 125.323 114.308 125.568 111.782C125.813 109.257 126.929 106.894 128.726 105.098C129.734 104.081 130.933 103.272 132.256 102.72C133.578 102.168 134.998 101.883 136.432 101.881V101.881ZM136.432 97.2141C133.346 97.2125 130.329 98.1234 127.762 99.8318C125.195 101.54 123.194 103.969 122.012 106.812C120.829 109.654 120.519 112.783 121.119 115.802C121.719 118.82 123.204 121.594 125.385 123.771C127.566 125.948 130.345 127.432 133.371 128.034C136.397 128.636 139.535 128.329 142.386 127.153C145.238 125.977 147.676 123.984 149.391 121.426C151.107 118.868 152.024 115.86 152.026 112.783C152.028 108.656 150.386 104.697 147.462 101.777C144.537 98.8578 140.57 97.2163 136.432 97.2141H136.432ZM168.94 74.9617C170.351 74.9688 171.708 74.4165 172.711 73.4263C173.714 72.4361 174.281 71.0891 174.288 69.6816C174.289 69.6636 174.289 69.6457 174.288 69.6277C174.295 68.9382 174.165 68.2542 173.907 67.6146C173.648 66.9751 173.266 66.3926 172.782 65.9004C172.298 65.4082 171.721 65.0159 171.085 64.746C170.449 64.476 169.765 64.3337 169.074 64.3271C169.04 64.3268 169.007 64.3268 168.973 64.3271C167.559 64.3138 166.198 64.8613 165.189 65.849C164.179 66.8368 163.605 68.184 163.592 69.5942C163.578 71.0044 164.127 72.3621 165.118 73.3686C166.108 74.3752 167.459 74.9482 168.873 74.9614C168.895 74.9617 168.918 74.9617 168.94 74.9617V74.9617ZM180.122 101.881C182.666 101.865 185.137 102.729 187.113 104.328C189.089 105.926 190.447 108.158 190.956 110.644C191.465 113.13 191.094 115.715 189.904 117.958C188.715 120.201 186.782 121.963 184.435 122.943C182.089 123.922 179.474 124.06 177.037 123.331C174.6 122.602 172.492 121.052 171.074 118.946C169.655 116.839 169.013 114.308 169.258 111.782C169.503 109.257 170.62 106.894 172.417 105.098C173.424 104.081 174.623 103.272 175.946 102.72C177.269 102.168 178.688 101.883 180.122 101.881V101.881ZM180.122 97.2141C177.037 97.2141 174.022 98.1262 171.458 99.8351C168.894 101.544 166.895 103.973 165.715 106.814C164.534 109.656 164.226 112.783 164.827 115.8C165.429 118.817 166.914 121.588 169.095 123.763C171.276 125.938 174.054 127.419 177.079 128.019C180.104 128.619 183.24 128.311 186.089 127.134C188.939 125.957 191.374 123.963 193.088 121.406C194.801 118.848 195.716 115.842 195.716 112.766C195.716 110.724 195.312 108.701 194.529 106.814C193.745 104.928 192.596 103.213 191.148 101.769C189.7 100.325 187.981 99.1795 186.089 98.3979C184.197 97.6164 182.169 97.2141 180.122 97.2141V97.2141Z" fill="#E6E6E6"/>
<path d="M176.996 85.6629H168.973L164.043 75.6451C163.645 74.9426 163.089 74.3418 162.419 73.8898C161.749 73.4379 160.983 73.1471 160.181 73.0405C159.379 72.9339 158.563 73.0142 157.798 73.2753C157.032 73.5363 156.338 73.971 155.769 74.545L143.786 86.0629C142.805 87.0614 142.248 88.3989 142.231 89.7967C142.231 92.697 144.337 93.7305 145.323 94.3138C152.928 98.681 155.602 99.1644 155.602 101.348V112.332C155.602 113.04 155.884 113.718 156.386 114.218C156.887 114.718 157.567 114.999 158.276 114.999C158.986 114.999 159.666 114.718 160.167 114.218C160.669 113.718 160.951 113.04 160.951 112.332V97.3308C160.951 95.1306 155.87 93.3304 152.878 90.9968L161.051 82.4125C164.176 87.163 165.614 90.9968 167.402 90.9968H176.996C177.705 90.9979 178.386 90.7181 178.888 90.2187C179.391 89.7194 179.673 89.0415 179.675 88.3341C179.676 87.6268 179.395 86.948 178.894 86.4471C178.394 85.9461 177.714 85.664 177.005 85.6629H176.996V85.6629Z" fill="#E6E6E6"/>
<path d="M82.2431 237.023C79.9394 237.023 78.0321 243.712 77.6625 252.482H33.3439C32.9742 243.712 31.067 237.023 28.7632 237.023C26.1949 237.023 24.1128 245.329 24.1128 255.574C24.1128 265.82 26.1949 274.126 28.7632 274.126C31.067 274.126 32.9742 267.437 33.3439 258.666H77.6624C78.0321 267.437 79.9394 274.126 82.2431 274.126C84.8114 274.126 86.8935 265.82 86.8935 255.574C86.8935 245.329 84.8114 237.023 82.2431 237.023Z" fill="#E6E6E6"/>
<path d="M103.831 228.185C97.2622 216.444 86.6274 207.493 73.9177 203.008C61.2081 198.524 47.2952 198.813 34.7841 203.822C22.273 208.832 12.0217 218.217 5.94965 230.221C-0.122395 242.225 -1.59879 256.025 1.79691 269.037C5.19261 282.048 13.2275 293.379 24.3972 300.908C35.5669 308.437 49.1054 311.648 62.4777 309.938C75.8499 308.229 88.1391 301.718 97.0439 291.623C105.949 281.528 110.859 268.543 110.854 255.098C110.852 245.676 108.434 236.412 103.831 228.185V228.185ZM55.4148 305.959C41.9778 305.89 29.1166 300.51 19.6517 290.998C10.1869 281.486 4.89114 268.618 4.9259 255.218C4.96067 241.817 10.3231 228.977 19.8372 219.514C29.3513 210.051 42.2402 204.737 55.6774 204.738C69.1145 204.739 82.0028 210.055 91.5156 219.519C101.028 228.983 106.389 241.824 106.422 255.224C106.455 268.625 101.158 281.492 91.6917 291.003C82.2256 300.513 69.3637 305.892 55.9267 305.959C55.7561 305.96 55.5854 305.96 55.4148 305.959V305.959Z" fill="#E6E6E6"/>
<path d="M55.4416 310.664C44.8781 310.669 34.5318 307.673 25.6138 302.026C25.1684 301.743 24.8246 301.326 24.6321 300.836L24.6042 300.764C24.4106 300.278 24.3787 299.743 24.5134 299.237C24.648 298.732 24.942 298.283 25.3519 297.957C25.7481 297.624 26.241 297.428 26.7577 297.396C27.2744 297.365 27.7876 297.5 28.2215 297.782C37.7005 303.799 48.9154 306.505 60.1042 305.476C71.2931 304.446 81.8219 299.738 90.0367 292.093C98.2515 284.447 103.687 274.297 105.488 263.236C107.29 252.175 105.356 240.83 99.9908 230.984C99.7393 230.533 99.6398 230.013 99.7071 229.501C99.7744 228.989 100.005 228.512 100.364 228.14C100.72 227.755 101.19 227.494 101.705 227.395C102.221 227.296 102.754 227.365 103.227 227.591L103.297 227.624C103.772 227.845 104.164 228.212 104.416 228.67C109.009 237.129 111.32 246.632 111.124 256.249C110.927 265.866 108.23 275.268 103.296 283.533C98.3617 291.798 91.3598 298.644 82.9758 303.4C74.5917 308.156 65.113 310.659 55.4676 310.664H55.4416Z" fill="#B8E34B"/>
<path d="M259.615 199.818C252.333 199.815 245.122 201.242 238.394 204.019C231.666 206.795 225.552 210.867 220.401 216C215.251 221.133 211.164 227.228 208.376 233.937C205.588 240.645 204.152 247.836 204.151 255.097C204.15 262.359 205.583 269.55 208.369 276.26C211.154 282.969 215.238 289.066 220.387 294.201C225.535 299.336 231.648 303.409 238.375 306.188C245.103 308.967 252.313 310.397 259.595 310.397H259.615C259.974 310.397 260.326 310.397 260.686 310.382C275.294 310.101 289.2 304.081 299.381 293.63C309.562 283.179 315.195 269.142 315.054 254.571C314.913 240.001 309.009 226.075 298.628 215.822C288.246 205.569 274.226 199.817 259.615 199.818V199.818ZM270.914 304.707C263.916 306.291 256.662 306.386 249.625 304.983C242.588 303.581 235.927 300.714 230.078 296.569C224.228 292.424 219.321 287.094 215.678 280.929C212.035 274.763 209.737 267.9 208.935 260.788C208.133 253.677 208.845 246.476 211.024 239.658C213.203 232.839 216.801 226.556 221.581 221.219C226.362 215.882 232.217 211.61 238.766 208.685C245.315 205.759 252.409 204.244 259.585 204.239H259.615C272.158 204.238 284.262 208.847 293.613 217.184C302.964 225.522 308.906 237.004 310.304 249.435C311.702 261.866 308.458 274.375 301.192 284.571C293.925 294.768 283.146 301.936 270.914 304.707V304.707Z" fill="#E6E6E6"/>
<path d="M259.615 310.674C245.865 310.674 232.6 305.603 222.373 296.437C212.146 287.271 205.678 274.657 204.214 261.022C202.75 247.387 206.393 233.694 214.443 222.577C222.493 211.459 234.38 203.703 247.819 200.799C248.149 200.729 248.491 200.724 248.823 200.786L248.939 200.808C249.496 200.916 249.999 201.212 250.363 201.647C250.727 202.082 250.929 202.629 250.936 203.195C250.943 203.762 250.753 204.313 250.399 204.756C250.046 205.199 249.55 205.507 248.995 205.628C236.745 208.247 225.9 215.294 218.548 225.412C211.197 235.529 207.86 248.002 209.18 260.427C210.5 272.852 216.383 284.351 225.696 292.708C235.009 301.065 247.094 305.69 259.623 305.692C260.113 305.687 260.589 305.685 261.073 305.671C261.612 305.648 262.142 305.816 262.57 306.145C262.998 306.473 263.296 306.941 263.412 307.467C263.54 307.975 263.484 308.512 263.253 308.982C263.022 309.452 262.631 309.826 262.15 310.036V310.037C261.824 310.186 261.496 310.332 261.167 310.476C260.89 310.598 260.59 310.664 260.287 310.67C260.064 310.674 259.841 310.674 259.615 310.674Z" fill="#B8E34B"/>
<path d="M286.965 252.757C285.488 252.683 284.027 253.093 282.806 253.924C281.584 254.756 280.669 255.963 280.2 257.362H274.74L270.754 245.408C270.606 244.96 270.321 244.57 269.938 244.294C269.554 244.017 269.094 243.868 268.621 243.868H268.579C268.099 243.876 267.635 244.038 267.255 244.331C266.875 244.623 266.601 245.031 266.473 245.492L260.228 267.23L252.887 223.264C252.802 222.755 252.544 222.291 252.156 221.95C251.768 221.608 251.275 221.41 250.758 221.389C250.241 221.367 249.732 221.524 249.318 221.833C248.903 222.141 248.607 222.582 248.48 223.082L241.041 257.362H232.704C232.109 257.362 231.537 257.598 231.116 258.018C230.695 258.438 230.458 259.007 230.458 259.601C230.458 260.195 230.695 260.765 231.116 261.185C231.537 261.605 232.109 261.841 232.704 261.841H242.81C243.31 261.842 243.796 261.675 244.19 261.368C244.585 261.061 244.864 260.631 244.985 260.147L250.234 234.644L257.435 277.742C257.517 278.244 257.77 278.703 258.15 279.042C258.531 279.38 259.016 279.579 259.526 279.604H259.652C260.14 279.603 260.615 279.444 261.005 279.151C261.394 278.859 261.678 278.447 261.814 277.98L268.789 253.68L270.993 260.301C271.143 260.748 271.429 261.136 271.812 261.412C272.195 261.688 272.654 261.838 273.126 261.841H280.298C280.727 262.974 281.455 263.97 282.404 264.724C283.354 265.478 284.49 265.962 285.693 266.126C286.896 266.289 288.12 266.125 289.238 265.652C290.355 265.179 291.323 264.413 292.04 263.436C292.757 262.459 293.196 261.307 293.311 260.102C293.425 258.897 293.211 257.683 292.691 256.589C292.172 255.495 291.365 254.562 290.357 253.887C289.349 253.212 288.177 252.822 286.965 252.757H286.965Z" fill="#E6E6E6"/>
<path d="M505.445 403H403.791C403.644 403 403.502 402.942 403.398 402.838C403.294 402.734 403.235 402.593 403.235 402.446C403.235 402.299 403.294 402.158 403.398 402.054C403.502 401.95 403.644 401.892 403.791 401.892H505.445C505.592 401.892 505.733 401.95 505.837 402.054C505.942 402.158 506 402.299 506 402.446C506 402.593 505.942 402.734 505.837 402.838C505.733 402.942 505.592 403 505.445 403Z" fill="#3F3D56"/>
</g>
<defs>
<clipPath id="clip0">
<rect width="506" height="403" fill="white"/>
</clipPath>
</defs>
</svg>
