<svg width="504" height="360" viewBox="0 0 504 360" fill="none" xmlns="http://www.w3.org/2000/svg">
<path opacity="0.1" d="M252 360C391.176 360 504 352.916 504 344.178C504 335.44 391.176 328.357 252 328.357C112.824 328.357 0 335.44 0 344.178C0 352.916 112.824 360 252 360Z" fill="#B8E34B"/>
<path d="M464.472 332.461C464.476 333.711 464.347 334.958 464.088 336.181C464.04 336.411 463.987 336.661 463.934 336.857C462.571 342.318 458.726 346.312 454.137 346.566C453.984 346.566 453.83 346.566 453.657 346.566C448.805 346.566 444.701 342.385 443.347 336.627C443.309 336.474 443.275 336.32 443.241 336.148C442.983 334.924 442.854 333.677 442.857 332.427C442.857 324.627 447.691 318.308 453.657 318.308C459.624 318.308 464.472 324.67 464.472 332.461Z" fill="#3F3D56"/>
<path opacity="0.1" d="M464.472 332.461C464.476 333.711 464.347 334.958 464.088 336.181C464.04 336.411 463.987 336.661 463.935 336.857C463.771 336.857 463.613 336.857 463.455 336.857C462.266 336.793 461.084 336.633 459.922 336.378C458.892 336.696 457.839 336.936 456.773 337.097C455.956 337.22 455.132 337.297 454.306 337.327H453.471C452.482 337.327 451.494 337.262 450.514 337.131C448.929 336.919 447.372 336.533 445.872 335.98C445.051 336.253 444.214 336.477 443.367 336.651C443.328 336.498 443.295 336.344 443.261 336.172C443.002 334.948 442.873 333.701 442.877 332.451C442.877 324.651 447.711 318.332 453.677 318.332C459.643 318.332 464.472 324.67 464.472 332.461Z" fill="black"/>
<path d="M487.512 306.163C487.516 302.732 486.71 299.349 485.16 296.287L472.459 300.233L483.61 293.683C481.74 290.984 479.288 288.739 476.433 287.113C473.578 285.487 470.395 284.523 467.117 284.291C466.594 283.501 466.022 282.745 465.403 282.028L447.163 287.7L462.125 278.916C459.263 276.724 455.904 275.269 452.345 274.681C448.786 274.093 445.137 274.39 441.721 275.546C438.304 276.701 435.225 278.68 432.756 281.306C430.287 283.933 428.504 287.127 427.565 290.605L443.189 308.575L426.24 296.325C421.943 299.365 418.882 303.847 417.617 308.953C416.352 314.059 416.966 319.449 419.348 324.14C421.729 328.831 425.72 332.511 430.592 334.509C435.464 336.506 440.892 336.688 445.887 335.021C450.404 336.675 455.339 336.81 459.941 335.405C463.149 336.113 466.475 336.094 469.675 335.348C472.874 334.602 475.865 333.148 478.428 331.094C480.99 329.039 483.057 326.437 484.479 323.478C485.9 320.519 486.638 317.279 486.639 313.997C486.639 313.518 486.639 313.038 486.591 312.559C487.213 310.484 487.523 308.329 487.512 306.163Z" fill="#B8E34B"/>
<path opacity="0.1" d="M487.133 310.234C480.426 308.962 473.547 308.874 466.81 309.975C459.182 311.236 451.387 314.007 443.928 311.979C439.55 310.79 435.768 308.038 431.491 306.513C427.366 305.072 422.92 304.804 418.651 305.741C417.023 309.628 416.55 313.901 417.289 318.05C418.028 322.198 419.947 326.046 422.817 329.134C425.686 332.222 429.386 334.42 433.473 335.464C437.559 336.507 441.861 336.354 445.862 335.021C450.38 336.675 455.315 336.81 459.917 335.405C463.125 336.113 466.451 336.094 469.651 335.348C472.85 334.602 475.841 333.148 478.403 331.094C480.966 329.039 483.033 326.437 484.455 323.478C485.876 320.519 486.614 317.279 486.614 313.997C486.614 313.518 486.614 313.039 486.566 312.559C486.798 311.795 486.987 311.019 487.133 310.234V310.234Z" fill="black"/>
<path d="M335.328 82.45H332.578C331.971 82.45 331.479 82.9415 331.479 83.5479V122.114C331.479 122.721 331.971 123.212 332.578 123.212H335.328C335.935 123.212 336.427 122.721 336.427 122.114V83.5479C336.427 82.9415 335.935 82.45 335.328 82.45Z" fill="#3F3D56"/>
<path d="M168.984 50.5142H167.645C167.247 50.5142 166.925 50.8362 166.925 51.2334V63.2147C166.925 63.6119 167.247 63.9339 167.645 63.9339H168.984C169.382 63.9339 169.704 63.6119 169.704 63.2147V51.2334C169.704 50.8362 169.382 50.5142 168.984 50.5142Z" fill="#3F3D56"/>
<path d="M169.143 75.0857H167.635C167.187 75.0857 166.824 75.4485 166.824 75.896V97.634C166.824 98.0814 167.187 98.4442 167.635 98.4442H169.143C169.591 98.4442 169.954 98.0814 169.954 97.634V75.896C169.954 75.4485 169.591 75.0857 169.143 75.0857Z" fill="#3F3D56"/>
<path d="M169.08 106.614H167.645C167.218 106.614 166.872 106.959 166.872 107.386V129.402C166.872 129.828 167.218 130.174 167.645 130.174H169.08C169.507 130.174 169.853 129.828 169.853 129.402V107.386C169.853 106.959 169.507 106.614 169.08 106.614Z" fill="#3F3D56"/>
<path d="M317.016 6.17041H185.63C176.169 6.17041 168.499 13.8314 168.499 23.2818V325.327C168.499 334.777 176.169 342.438 185.63 342.438H317.016C326.477 342.438 334.147 334.777 334.147 325.327V23.2818C334.147 13.8314 326.477 6.17041 317.016 6.17041Z" fill="#3F3D56"/>
<path d="M257.256 16.21H236.563C235.89 16.21 235.344 16.7552 235.344 17.4277V19.6859C235.344 20.3585 235.89 20.9037 236.563 20.9037H257.256C257.93 20.9037 258.475 20.3585 258.475 19.6859V17.4277C258.475 16.7552 257.93 16.21 257.256 16.21Z" fill="#E6E8EC"/>
<path d="M264.638 21.2154C266.109 21.2154 267.302 20.024 267.302 18.5545C267.302 17.0849 266.109 15.8936 264.638 15.8936C263.167 15.8936 261.974 17.0849 261.974 18.5545C261.974 20.024 263.167 21.2154 264.638 21.2154Z" fill="#E6E8EC"/>
<path d="M323.918 28.0666V320.527C323.917 324.012 322.53 327.353 320.063 329.817C317.596 332.28 314.25 333.664 310.762 333.664H191.885C188.396 333.664 185.051 332.28 182.583 329.817C180.116 327.353 178.729 324.012 178.728 320.527V28.0666C178.728 26.3408 179.068 24.632 179.73 23.0375C180.391 21.4431 181.36 19.9944 182.582 18.7741C183.803 17.5538 185.254 16.5858 186.85 15.9254C188.446 15.265 190.157 14.925 191.885 14.925H209.674V17.2072C209.679 20.0742 210.822 22.8222 212.853 24.8481C214.884 26.8741 217.637 28.0126 220.507 28.0139H280.987C282.41 28.0139 283.819 27.734 285.133 27.1902C286.447 26.6464 287.642 25.8493 288.648 24.8445C289.654 23.8396 290.452 22.6467 290.996 21.3339C291.541 20.021 291.821 18.6139 291.821 17.1928V14.925H310.786C314.271 14.9314 317.611 16.3188 320.073 18.7826C322.536 21.2464 323.918 24.5854 323.918 28.0666V28.0666Z" fill="white"/>
<path opacity="0.2" d="M324.96 148.834V248.285H323.918V248.385H178.728V126.885C179.659 125.824 180.603 124.723 181.56 123.581C201.95 99.2593 229.666 92.8587 251.117 92.1875C265.814 91.708 280.445 94.7429 294.413 100.77C301.79 103.953 312.379 107.443 323.918 107.789V145.387C324.624 147.395 324.96 148.834 324.96 148.834Z" fill="#B8E34B"/>
<path opacity="0.2" d="M324.96 148.834V248.285H178.728V183.138C183.936 181.829 191.208 176.795 200.539 162.886C211.699 146.245 226.862 141.867 238.598 141.407C246.638 141.091 254.645 143.152 262.286 147.28C270.883 151.917 287.453 157.507 300.043 141.278C313.963 123.332 321.365 138.133 323.918 145.387C324.624 147.395 324.96 148.834 324.96 148.834Z" fill="#B8E34B"/>
<path d="M303.84 230.071H199.2C196.019 230.071 193.44 232.647 193.44 235.824V260.755C193.44 263.933 196.019 266.508 199.2 266.508H303.84C307.021 266.508 309.6 263.933 309.6 260.755V235.824C309.6 232.647 307.021 230.071 303.84 230.071Z" fill="#736E9E"/>
<path d="M64.3487 327.805L73.5359 322.392C72.2934 320.273 70.7052 318.375 68.8367 316.778L51.5039 322.181L65.0879 314.204C61.7253 312.364 57.9409 311.43 54.1074 311.495C50.2738 311.559 46.5232 312.62 43.2246 314.572C39.926 316.524 37.1933 319.301 35.2952 322.628C33.3972 325.956 32.3994 329.719 32.3999 333.549C32.3999 345.732 42.2831 346.154 54.4799 346.154C66.6767 346.154 76.5599 345.732 76.5599 333.549C76.5642 330.467 75.9182 327.419 74.6639 324.603L64.3487 327.805Z" fill="#B8E34B"/>
<path opacity="0.1" d="M66.6865 339.652C65.7088 338.673 64.616 337.815 63.4321 337.097C61.7617 335.989 60.0385 334.863 58.0705 334.484C56.3425 334.153 54.5617 334.431 52.7905 334.335C49.7346 334.147 46.8581 332.83 44.7217 330.639C43.4689 329.344 42.4802 327.762 40.973 326.76C39.3458 325.696 37.2817 325.466 35.3521 325.729C34.793 325.814 34.2386 325.927 33.6914 326.07C32.8251 328.47 32.3833 331.002 32.3858 333.554C32.3858 345.737 42.269 346.159 54.4657 346.159C60.3841 346.159 65.7553 346.058 69.7201 344.562L69.0577 343.325C68.426 342.006 67.6292 340.772 66.6865 339.652V339.652Z" fill="black"/>
<path d="M109.555 279.18C108.854 279.795 108.313 280.572 107.981 281.443C107.16 284.003 109.454 286.516 109.675 289.196C109.848 291.324 108.715 293.309 108.072 295.352C107.346 297.889 107.393 300.585 108.207 303.095C109.021 305.605 110.565 307.817 112.642 309.447C113.084 309.822 113.606 310.091 114.168 310.234C114.632 310.29 115.102 310.25 115.55 310.118C115.998 309.986 116.415 309.765 116.774 309.467C117.889 308.657 118.739 307.536 119.218 306.245C119.616 304.976 119.831 303.657 119.856 302.328L120.197 297.198C120.552 291.842 120.874 286.319 119.568 281.06C119.141 279.334 118.349 275.369 116.352 275.129C114.355 274.889 110.88 277.886 109.555 279.18Z" fill="#3F3D56"/>
<path d="M143.04 257.145C140.642 265.555 138.904 274.139 137.842 282.819C137.688 284.042 137.53 285.327 136.79 286.314C135.317 288.294 132.365 288.17 129.917 287.848C129.329 287.818 128.756 287.654 128.242 287.369C127.32 286.746 127.118 285.499 127.008 284.392C125.331 268.065 124.211 251.695 123.648 235.282C123.624 234.654 144.139 234.597 145.896 236.241C147.653 237.886 146.29 244.037 145.896 246.132C145.253 249.862 144.091 253.496 143.04 257.145Z" fill="#FBBEBE"/>
<path opacity="0.05" d="M143.04 257.145C140.642 265.555 138.904 274.139 137.842 282.819C137.688 284.042 137.53 285.327 136.79 286.314C135.317 288.294 132.365 288.17 129.917 287.848C129.329 287.818 128.756 287.654 128.242 287.369C127.32 286.746 127.118 285.499 127.008 284.392C125.331 268.065 124.211 251.695 123.648 235.282C123.624 234.654 144.139 234.597 145.896 236.241C147.653 237.886 146.29 244.037 145.896 246.132C145.253 249.862 144.091 253.496 143.04 257.145Z" fill="black"/>
<path d="M100.32 232.947L108.629 251.2C111.393 257.27 114.177 263.406 115.497 269.941C116.027 272.671 116.365 275.435 116.51 278.212C116.711 280.592 116.637 282.987 116.289 285.351C115.987 287.105 115.43 288.812 115.185 290.577C114.225 297.61 118.214 304.226 120.945 310.771C123.305 316.391 124.807 322.334 125.4 328.4C125.649 330.984 125.789 333.727 127.267 335.86C129.969 335.05 132.609 334.35 135.427 334.666C135.931 330.538 133.32 326.736 132.36 322.68C130.598 315.249 134.491 307.439 133.166 299.916C132.446 295.841 130.214 292.005 130.397 287.872C130.737 280.336 132.153 272.722 130.713 265.339C129.091 256.992 124.425 249.402 123.393 240.964C122.601 234.482 123.873 227.314 120.259 221.867C112.363 221.402 104.198 226.058 100.32 232.947Z" fill="#FBBEBE"/>
<path d="M127.627 347.573C126.797 347.602 125.827 347.573 125.314 346.916C125.063 346.534 124.919 346.092 124.896 345.636C124.503 342.746 124.31 339.832 124.32 336.915C124.32 335.85 124.368 334.719 124.963 333.842C125.4 333.306 125.898 332.823 126.447 332.403C127.719 331.229 128.645 329.527 130.287 328.985C131.006 328.776 131.768 328.766 132.493 328.956C133.217 329.146 133.876 329.529 134.4 330.064C135.436 331.167 136.077 332.581 136.224 334.086C136.464 335.87 136.263 337.811 137.208 339.36C137.583 339.959 138.106 340.448 138.528 341.014C139.968 342.932 141.259 346.686 138.288 347.462C135.139 348.282 130.896 347.467 127.627 347.573Z" fill="#3F3D56"/>
<path d="M134.832 124.929C136.512 121.688 135.509 117.517 133.109 114.765C130.709 112.012 127.2 110.478 123.619 109.649C118.819 108.527 113.674 108.537 109.08 110.301C105.418 111.706 102.264 114.136 98.8848 116.121C92.913 119.633 86.2292 121.763 79.3248 122.354C71.6448 123.001 63.0672 121.995 57.1296 126.88C46.2528 135.826 53.8272 155.987 43.6896 165.749C40.9536 168.381 37.3008 169.805 34.1664 171.948C31.032 174.091 28.2288 177.519 28.7328 181.278C28.9728 183.085 29.9616 184.715 31.104 186.139C36.0096 192.262 44.2464 195.469 52.0368 194.515C59.8272 193.561 66.96 188.565 70.7568 181.69C71.7168 179.969 72.4944 178.085 74.0064 176.833C77.0352 174.335 81.48 175.347 85.4064 175.227C94.1376 174.959 102.067 167.484 102.83 158.787C103.157 155.071 102.523 150.747 105.197 148.139C107.352 146.029 110.722 146.048 113.669 145.401C119.083 144.217 123.024 140.304 125.496 135.529C126.629 133.333 126.514 130.879 128.194 129.057C129.984 127.053 133.234 128.007 134.832 124.929Z" fill="#3F3D56"/>
<g opacity="0.1">
<path opacity="0.1" d="M72.168 123.874C75.3526 123.603 78.5005 123.003 81.5616 122.086C80.6976 122.205 79.8336 122.306 78.9648 122.378C72.9456 122.881 66.36 122.378 60.936 124.492C64.632 124.114 68.5056 124.181 72.168 123.874Z" fill="black"/>
<path opacity="0.1" d="M66.8111 178.353C65.2991 179.6 64.5023 181.489 63.5615 183.21C60.6526 188.447 55.9943 192.498 50.3999 194.654C50.8271 194.625 51.2543 194.587 51.6815 194.534C59.4719 193.575 66.6047 188.589 70.4015 181.714C71.3615 179.993 72.1343 178.104 73.6511 176.857L73.9103 176.656C71.2751 176.594 68.7503 176.752 66.8111 178.353Z" fill="black"/>
<path opacity="0.1" d="M132.749 114.793C130.349 112.041 126.816 110.512 123.259 109.678C118.459 108.556 113.313 108.57 108.715 110.334L108.408 110.459C111.113 110.305 113.826 110.546 116.462 111.173C120.019 112.008 123.557 113.537 125.952 116.294C128.347 119.051 129.355 123.217 127.675 126.458C126.077 129.536 122.827 128.577 120.998 130.567C119.318 132.384 119.433 134.844 118.301 137.039C116.174 141.148 112.953 144.61 108.653 146.254C110.155 145.9 111.768 145.741 113.265 145.415C118.68 144.226 122.621 140.319 125.093 135.544C126.23 133.348 126.115 130.888 127.79 129.071C129.624 127.081 132.873 128.035 134.467 124.962C136.147 121.731 135.144 117.56 132.749 114.793Z" fill="black"/>
<path opacity="0.1" d="M106.474 146.916C103.526 147.558 100.157 147.544 98.0017 149.649C95.3281 152.262 95.9617 156.586 95.6353 160.302C95.0641 166.799 90.4897 172.614 84.5713 175.256H85.0081C93.7393 174.987 101.664 167.508 102.427 158.816C102.758 155.095 102.125 150.771 104.798 148.163C105.411 147.579 106.132 147.119 106.92 146.81L106.474 146.916Z" fill="black"/>
</g>
<path d="M134.976 168.563C134.577 169.268 133.757 169.594 132.993 169.877C125.093 172.782 116.779 175.74 108.446 174.518C108.134 173.209 107.827 171.895 107.52 170.586C107.075 168.687 106.627 166.789 106.176 164.89C105.965 163.984 105.749 163.068 105.576 162.148C105.278 160.694 105.183 159.207 105.293 157.727C105.344 157.191 105.44 156.66 105.581 156.14C105.827 155.195 106.24 154.3 106.8 153.499C106.896 153.369 106.997 153.24 107.102 153.115C107.577 152.543 108.153 152.064 108.802 151.701C110.218 150.924 112.161 150.593 112.733 149.088C112.954 148.301 112.932 147.465 112.67 146.691C112.19 144.773 111.321 142.97 110.784 141.072C110.102 138.674 111.129 138.823 113.448 138.243C117.624 137.193 121.992 136.44 126.278 137.284C126.077 139.398 125.88 141.565 126.413 143.627C126.945 145.689 128.371 147.645 130.421 148.215C130.723 148.302 131.045 148.354 131.381 148.426C131.826 148.498 132.248 148.672 132.614 148.934C132.867 149.143 133.067 149.407 133.2 149.706C133.409 150.212 133.546 150.745 133.608 151.288C134.36 156.319 134.902 161.374 135.235 166.453V166.645C135.334 167.296 135.244 167.961 134.976 168.563V168.563Z" fill="#FBBEBE"/>
<path d="M94.301 160.302C92.5058 163.03 91.901 166.348 91.3538 169.57L87.869 189.754C87.389 192.516 86.9618 195.551 88.3778 197.972C88.8578 198.792 89.5298 199.501 89.8802 200.369C90.145 201.242 90.3187 202.14 90.3986 203.049C91.2146 207.676 95.7698 210.797 100.339 211.919C101.991 212.327 103.92 212.485 105.221 211.387C106.661 210.193 106.661 207.92 105.811 206.281C104.962 204.641 103.411 203.481 101.909 202.383L96.9314 198.72L99.8114 176.665C100.023 175.064 100.771 172.988 102.394 173.166C103.872 173.324 105.01 175.476 106.325 174.781C106.737 174.503 107.027 174.077 107.136 173.592C107.712 171.785 107.554 169.838 107.391 167.944L106.795 161.108C106.599 158.888 107.17 157.224 107.439 155.138C107.751 152.708 106.128 153.446 104.127 153.969C100.282 154.985 96.5234 156.917 94.301 160.302Z" fill="#FBBEBE"/>
<path d="M156.197 193.451C155.831 194.065 155.289 194.556 154.642 194.86C150.755 197.049 146.185 197.691 141.845 196.658C140.845 196.365 139.829 196.128 138.802 195.949C137.16 195.747 135.49 196.073 133.834 195.949C130.474 195.695 127.522 193.599 125.194 191.154C123.792 189.716 122.52 187.362 123.826 185.818C124.19 185.446 124.643 185.171 125.143 185.02C125.642 184.869 126.171 184.847 126.682 184.955C127.698 185.181 128.678 185.546 129.595 186.039C132.808 187.526 136.245 188.472 139.766 188.839C142.166 189.088 145.219 188.68 146.05 186.403C146.453 185.295 146.17 184.068 145.886 182.922C145.112 179.783 144.338 176.643 143.563 173.501C143.51 173.227 143.413 172.963 143.275 172.72C143.236 172.654 143.189 172.593 143.136 172.537C142.83 172.283 142.46 172.117 142.066 172.058C140.275 171.617 138.485 170.903 137.203 169.584C136.363 168.648 135.694 167.572 135.226 166.405C135.091 166.113 134.966 165.816 134.837 165.518C133.853 163.227 132.816 160.877 132.014 158.471C131.455 156.844 131.042 155.17 130.781 153.47C130.57 151.998 130.454 151.322 131.261 150.67C131.477 150.507 131.707 150.363 131.947 150.239C132.317 150.042 132.734 149.845 133.176 149.658L133.603 149.481C134.916 148.957 136.265 148.527 137.64 148.196C140.971 147.424 144.528 149.035 146.813 151.581C149.098 154.127 150.283 157.459 151.042 160.791C151.8 164.123 152.189 167.537 153.139 170.816C153.509 172.101 153.97 173.367 154.286 174.652C154.626 176.18 154.868 177.729 155.011 179.288C155.462 183.261 155.912 187.234 156.36 191.207C156.526 191.955 156.469 192.735 156.197 193.451Z" fill="#FBBEBE"/>
<path d="M106.91 191.725C107.87 197.842 105.11 203.86 102.441 209.464C103.953 210.567 105.801 211.114 107.606 211.588C119.686 214.76 132.243 215.704 144.662 214.374C144.96 212.303 145.238 210.107 144.389 208.198C143.861 207.014 142.949 206.051 142.368 204.89C141.408 202.973 141.504 200.743 141.609 198.614L142.469 180.477C136.512 177.735 129.605 180.304 123.053 180.674C119.659 180.865 116.222 180.453 112.877 181.052C111.139 181.364 105.677 182.222 104.856 184.011C104.035 185.799 106.617 189.778 106.91 191.725Z" fill="#FBBEBE"/>
<path opacity="0.05" d="M106.91 191.725C107.87 197.842 105.11 203.86 102.441 209.464C103.953 210.567 105.801 211.114 107.606 211.588C119.686 214.76 132.243 215.704 144.662 214.374C144.96 212.303 145.238 210.107 144.389 208.198C143.861 207.014 142.949 206.051 142.368 204.89C141.408 202.973 141.504 200.743 141.609 198.614L142.469 180.477C136.512 177.735 129.605 180.304 123.053 180.674C119.659 180.865 116.222 180.453 112.877 181.052C111.139 181.364 105.677 182.222 104.856 184.011C104.035 185.799 106.617 189.778 106.91 191.725Z" fill="black"/>
<path d="M122.693 209.282C116.237 207.94 109.891 205.72 103.301 205.566C102.97 205.533 102.636 205.596 102.341 205.749C102.019 206.014 101.804 206.387 101.736 206.799C101.054 209.148 100.445 211.515 99.9073 213.899C98.1217 221.824 97.2433 230.579 101.17 237.694C101.131 235.383 102.586 233.221 104.53 231.941C106.474 230.66 108.802 230.143 111.106 229.932C113.41 229.721 115.872 229.807 118.018 230.752C119.517 231.432 120.811 232.495 121.769 233.833C122.727 235.171 123.315 236.737 123.475 238.375L146.155 239.108C146.288 239.147 146.428 239.152 146.564 239.123C146.699 239.094 146.824 239.031 146.929 238.941C147.034 238.851 147.115 238.737 147.164 238.607C147.213 238.478 147.23 238.339 147.211 238.202C148.047 230.935 148.017 223.595 147.12 216.335C146.871 214.307 146.837 211.492 144.552 210.73C141.826 209.819 137.515 210.883 134.602 210.759C130.599 210.591 126.616 210.097 122.693 209.282V209.282Z" fill="#3F3D56"/>
<path d="M143.28 173.765L143.208 183.833L120.264 184.595C116.054 184.739 111.811 184.883 107.707 185.818C106.527 186.087 105.36 186.422 104.198 186.753C102.989 182.328 101.798 177.692 102.115 173.18C102.203 171.963 102.415 170.758 102.749 169.584C103.478 167.053 104.847 164.665 105.576 162.162C105.87 161.188 106.032 160.178 106.056 159.161C106.002 158.145 105.841 157.137 105.576 156.155C105.366 155.349 105.265 154.518 105.278 153.686L107.098 153.125C107.15 153.341 107.194 153.552 107.232 153.772C107.309 154.228 107.371 154.693 107.414 155.158C107.517 156.31 107.549 157.468 107.511 158.624C107.448 160.935 107.136 163.51 108.581 165.336C110.458 167.681 114.067 167.316 117.014 166.731L124.733 165.192C127.171 164.713 129.893 164.032 131.165 161.899C131.708 160.863 131.994 159.712 132 158.543V158.312C132.115 155.766 131.861 153.216 131.246 150.742C131.059 149.965 130.829 149.198 130.57 148.445H131.342C131.788 148.517 132.21 148.691 132.576 148.954C132.829 149.162 133.029 149.426 133.162 149.726L133.589 149.548C135.292 156.502 138.099 163.138 141.902 169.205C142.392 169.9 142.779 170.66 143.054 171.464C143.169 171.899 143.233 172.346 143.246 172.796C143.285 173.079 143.28 173.42 143.28 173.765Z" fill="#FF6F61"/>
<path d="M119.04 143.291C126.728 143.291 132.96 137.066 132.96 129.388C132.96 121.709 126.728 115.484 119.04 115.484C111.352 115.484 105.12 121.709 105.12 129.388C105.12 137.066 111.352 143.291 119.04 143.291Z" fill="#FBBEBE"/>
<path d="M94.301 160.302C92.5058 163.03 91.901 166.348 91.3538 169.57L87.869 189.754C87.389 192.516 86.9618 195.551 88.3778 197.972C88.8578 198.792 89.5298 199.501 89.8802 200.369C90.145 201.242 90.3187 202.14 90.3986 203.049C91.2146 207.676 95.7698 210.797 100.339 211.919C101.991 212.327 103.92 212.485 105.221 211.387C106.661 210.193 106.661 207.92 105.811 206.281C104.962 204.641 103.411 203.481 101.909 202.383L96.9314 198.72L99.8114 176.665C100.003 175.078 96.5234 156.917 94.301 160.302Z" fill="#FBBEBE"/>
<path d="M151.046 160.82C151.805 164.152 152.194 167.566 153.144 170.845C153.514 172.135 153.974 173.396 154.291 174.681C154.631 176.207 154.873 177.754 155.016 179.312L156.365 191.231C156.52 191.967 156.462 192.732 156.197 193.436C155.83 194.05 155.288 194.54 154.642 194.846C150.753 197.029 146.185 197.671 141.845 196.644C140.846 196.346 139.83 196.109 138.802 195.934C137.16 195.728 135.49 196.059 133.834 195.934C130.474 195.68 127.522 193.59 125.194 191.164C123.792 189.726 122.52 187.367 123.826 185.823C124.19 185.45 124.643 185.176 125.143 185.025C125.642 184.874 126.171 184.852 126.682 184.96C127.698 185.188 128.678 185.554 129.595 186.048C132.809 187.532 136.245 188.476 139.766 188.843C142.166 189.097 145.219 188.69 146.05 186.408C146.453 185.3 146.17 184.073 145.886 182.927L143.563 173.506C143.467 173.18 150.288 157.493 151.046 160.82Z" fill="#FBBEBE"/>
<path d="M110.424 133.669C109.805 131.449 108.936 128.673 110.678 127.168C111.304 126.685 112.059 126.396 112.848 126.338C116.76 125.859 120.806 128.16 124.55 126.933C125.744 126.543 126.8 125.816 127.59 124.84C128.38 123.865 128.87 122.681 129.002 121.433C129.133 120.185 128.9 118.926 128.331 117.807C127.762 116.689 126.88 115.758 125.793 115.129C124.157 114.17 122.203 113.983 120.317 113.815C115.349 113.36 110.169 112.938 105.523 114.774C100.877 116.61 96.9599 121.338 97.9199 126.233C98.3663 128.568 99.8111 130.577 101.28 132.437C102.408 133.851 106.934 140.587 108.753 140.491C111.317 140.348 110.827 135.112 110.424 133.669Z" fill="#3F3D56"/>
<path opacity="0.1" d="M125.793 115.129C125.516 114.969 125.227 114.829 124.929 114.712C125.772 115.476 126.4 116.447 126.748 117.529C127.097 118.611 127.156 119.766 126.918 120.878C126.679 121.989 126.153 123.019 125.392 123.864C124.63 124.708 123.659 125.339 122.577 125.691C118.833 126.918 114.787 124.617 110.875 125.096C110.086 125.155 109.332 125.443 108.705 125.926C106.963 127.431 107.832 130.207 108.451 132.427C108.854 133.866 109.344 139.106 106.79 139.25H106.747C107.539 140.022 108.254 140.525 108.763 140.496C111.317 140.352 110.827 135.117 110.424 133.674C109.805 131.454 108.936 128.678 110.678 127.172C111.304 126.69 112.059 126.401 112.848 126.343C116.76 125.864 120.806 128.165 124.55 126.938C125.744 126.548 126.8 125.821 127.59 124.845C128.38 123.869 128.87 122.686 129.002 121.438C129.133 120.19 128.9 118.931 128.331 117.812C127.762 116.693 126.88 115.763 125.793 115.134V115.129Z" fill="black"/>
<path d="M330.24 288.083H173.76V336.507H330.24V288.083Z" fill="#3F3D56"/>
<path d="M245.28 303.732V320.849L258.72 312.29L245.28 303.732Z" fill="white"/>
<path d="M125.28 16.3634L117.83 21.0811L122.352 12.8682C121.07 11.8465 119.484 11.2813 117.845 11.2621H117.725C117.207 11.2697 116.69 11.2312 116.179 11.147L113.654 12.7436L114.739 10.7779C112.948 10.1555 111.401 8.9801 110.323 7.42176L105.802 10.2984L108.658 5.11563C106.013 1.94651 102.451 0.00476074 98.5343 0.00476074C93.8351 0.00476074 89.6496 2.79512 86.9472 7.14368C86.148 8.44939 85.0156 9.51937 83.666 10.2439C82.3165 10.9685 80.7983 11.3215 79.2671 11.2669H79.0127C73.8239 11.2669 69.6191 17.1401 69.6191 24.3893C69.6191 31.6385 73.8239 37.5117 79.0127 37.5117C80.1542 37.5063 81.2774 37.225 82.2863 36.6918C84.0515 35.8337 85.9825 35.3694 87.9452 35.3314C89.908 35.2933 91.8555 35.6822 93.6527 36.4713C95.1734 37.1507 96.8205 37.502 98.4863 37.502C100.152 37.502 101.799 37.1507 103.32 36.4713C105.104 35.6985 107.035 35.3183 108.979 35.3563C110.924 35.3944 112.837 35.8498 114.59 36.6918C115.589 37.2138 116.698 37.4884 117.826 37.4925C123.014 37.4925 127.219 31.6145 127.219 24.3701C127.255 21.581 126.588 18.8278 125.28 16.3634V16.3634Z" fill="#F2F2F2"/>
<path opacity="0.03" d="M111.235 35.5652C108.529 35.0526 105.732 35.3564 103.2 36.4378C101.679 37.1158 100.032 37.4662 98.3664 37.4662C96.7008 37.4662 95.0538 37.1158 93.5328 36.4378C91.735 35.6505 89.7874 35.2628 87.8248 35.3017C85.8622 35.3406 83.9315 35.8052 82.1664 36.6631C81.1569 37.1943 80.0338 37.4739 78.8928 37.4782C74.2848 37.4782 70.4496 32.8419 69.6528 26.7242C70.5715 26.0517 71.3534 25.2104 71.9568 24.2455C74.6592 19.8922 78.8448 17.1018 83.544 17.1018C88.2432 17.1018 92.376 19.8586 95.064 24.164C95.8729 25.4589 97.0025 26.5236 98.3436 27.2551C99.6847 27.9866 101.192 28.3603 102.72 28.34H102.84C106.512 28.34 109.69 31.279 111.235 35.5652Z" fill="black"/>
<path d="M380.16 123.299L376.445 125.653L378.701 121.553C378.062 121.045 377.271 120.763 376.454 120.753H376.392C376.135 120.757 375.878 120.739 375.624 120.7L374.342 121.505L374.885 120.523C373.992 120.213 373.221 119.629 372.681 118.854L370.425 120.292L371.865 117.708C371.266 116.935 370.502 116.306 369.628 115.864C368.755 115.423 367.794 115.182 366.816 115.158C364.473 115.158 362.385 116.548 361.056 118.72C360.656 119.372 360.089 119.906 359.415 120.267C358.74 120.629 357.981 120.804 357.216 120.777H357.091C354.504 120.777 352.406 123.711 352.406 127.321C352.406 130.931 354.504 133.87 357.091 133.87C357.66 133.868 358.22 133.728 358.723 133.463C359.603 133.035 360.566 132.803 361.545 132.783C362.524 132.763 363.495 132.956 364.392 133.348C365.146 133.689 365.964 133.867 366.792 133.87C367.618 133.867 368.435 133.694 369.192 133.362C370.082 132.977 371.044 132.787 372.014 132.805C372.983 132.823 373.938 133.049 374.813 133.468C375.31 133.73 375.863 133.868 376.425 133.87C379.013 133.87 381.11 130.936 381.11 127.321C381.138 125.922 380.811 124.538 380.16 123.299V123.299Z" fill="#F2F2F2"/>
<path opacity="0.03" d="M373.138 132.878C371.786 132.619 370.389 132.771 369.125 133.314C368.369 133.651 367.552 133.824 366.725 133.824C365.898 133.824 365.08 133.651 364.325 133.314C363.428 132.923 362.457 132.73 361.478 132.749C360.5 132.768 359.537 132.998 358.656 133.424C358.153 133.692 357.593 133.833 357.024 133.837C354.725 133.837 352.814 131.521 352.416 128.472C352.874 128.137 353.264 127.717 353.563 127.235C354.912 125.063 357 123.673 359.323 123.673C361.646 123.673 363.73 125.049 365.083 127.192C365.487 127.843 366.053 128.379 366.726 128.746C367.399 129.114 368.156 129.3 368.923 129.287H368.981C370.781 129.272 372.37 130.74 373.138 132.878Z" fill="black"/>
<path d="M388.383 62.1647L394.349 65.9475L390.72 59.3647C391.747 58.5481 393.017 58.0961 394.33 58.0798H394.426C394.84 58.086 395.255 58.0555 395.664 57.9887L397.69 59.2689L396.821 57.6963C398.253 57.1944 399.491 56.2551 400.359 55.0114L403.983 57.3031L401.693 53.1511C403.81 50.6101 406.666 49.0567 409.805 49.0567C413.573 49.0567 416.923 51.2909 419.088 54.7765C419.728 55.8195 420.634 56.6746 421.712 57.2548C422.79 57.835 424.003 58.1197 425.227 58.0798H425.429C429.586 58.0798 432.955 62.788 432.955 68.594C432.955 74.4001 429.595 79.1082 425.429 79.1082C424.515 79.1035 423.616 78.8781 422.808 78.4514C421.392 77.7619 419.843 77.3888 418.268 77.3582C416.693 77.3276 415.13 77.6401 413.688 78.274C412.47 78.8176 411.151 79.0986 409.817 79.0986C408.483 79.0986 407.164 78.8176 405.946 78.274C404.517 77.654 402.97 77.3485 401.413 77.3782C399.855 77.408 398.321 77.7724 396.917 78.4466C396.115 78.8638 395.225 79.084 394.32 79.0891C390.163 79.0891 386.794 74.3809 386.794 68.5749C386.779 66.3391 387.325 64.1351 388.383 62.1647V62.1647Z" fill="#F2F2F2"/>
<path opacity="0.03" d="M399.629 77.55C401.801 77.1367 404.047 77.3805 406.08 78.25C407.298 78.7936 408.617 79.0746 409.951 79.0746C411.285 79.0746 412.604 78.7936 413.822 78.25C415.265 77.6181 416.828 77.3071 418.403 77.3386C419.977 77.37 421.526 77.7432 422.942 78.4322C423.751 78.8575 424.65 79.0812 425.563 79.0843C429.254 79.0843 432.326 75.3686 432.97 70.4543C432.229 69.9182 431.601 69.2422 431.122 68.4646C428.957 64.9838 425.602 62.7448 421.838 62.7448C418.075 62.7448 414.758 64.9551 412.594 68.4023C411.947 69.4417 411.042 70.2968 409.968 70.8848C408.893 71.4727 407.685 71.7736 406.459 71.7584H406.363C403.416 71.7632 400.867 74.1172 399.629 77.55Z" fill="black"/>
</svg>
