<svg width="502" height="359" viewBox="0 0 502 359" fill="none" xmlns="http://www.w3.org/2000/svg">
<path opacity="0.1" d="M251 359C389.623 359 502 351.936 502 343.222C502 334.509 389.623 327.445 251 327.445C112.377 327.445 0 334.509 0 343.222C0 351.936 112.377 359 251 359Z" fill="#1FB4DB"/>
<path d="M462.629 331.537C462.632 332.784 462.504 334.028 462.246 335.247C462.198 335.477 462.146 335.725 462.093 335.922C460.736 341.367 456.906 345.35 452.335 345.603C452.182 345.603 452.029 345.603 451.857 345.603C447.024 345.603 442.936 341.434 441.588 335.692C441.55 335.539 441.516 335.386 441.483 335.214C441.225 333.994 441.097 332.75 441.1 331.504C441.1 323.725 445.915 317.423 451.857 317.423C457.8 317.423 462.629 323.768 462.629 331.537Z" fill="#3F3D56"/>
<path opacity="0.1" d="M462.629 331.537C462.633 332.784 462.504 334.028 462.246 335.247C462.199 335.477 462.146 335.725 462.093 335.921C461.931 335.921 461.773 335.921 461.615 335.921C460.431 335.858 459.255 335.698 458.097 335.443C457.071 335.761 456.022 336 454.96 336.161C454.146 336.283 453.326 336.36 452.503 336.39H451.671C450.686 336.39 449.702 336.325 448.726 336.194C447.147 335.983 445.597 335.598 444.103 335.047C443.285 335.319 442.452 335.542 441.607 335.716C441.569 335.563 441.535 335.41 441.502 335.238C441.244 334.018 441.116 332.774 441.119 331.528C441.119 323.749 445.934 317.447 451.877 317.447C457.819 317.447 462.629 323.768 462.629 331.537Z" fill="black"/>
<path d="M485.578 305.313C485.582 301.891 484.779 298.517 483.235 295.464L470.584 299.398L481.691 292.867C479.829 290.176 477.386 287.937 474.542 286.316C471.699 284.694 468.528 283.733 465.263 283.501C464.743 282.714 464.172 281.96 463.556 281.245L445.389 286.901L460.291 278.142C457.44 275.955 454.095 274.504 450.55 273.918C447.005 273.332 443.371 273.628 439.968 274.78C436.565 275.932 433.498 277.905 431.039 280.525C428.58 283.144 426.804 286.329 425.868 289.798L441.43 307.718L424.549 295.502C420.268 298.533 417.22 303.003 415.959 308.094C414.699 313.186 415.311 318.561 417.683 323.24C420.056 327.918 424.031 331.588 428.883 333.579C433.735 335.571 439.142 335.753 444.117 334.09C448.617 335.74 453.532 335.874 458.116 334.473C461.311 335.18 464.624 335.16 467.811 334.416C470.998 333.672 473.977 332.223 476.529 330.174C479.081 328.125 481.141 325.53 482.556 322.579C483.971 319.628 484.707 316.398 484.707 313.125C484.707 312.647 484.707 312.169 484.66 311.691C485.279 309.622 485.589 307.472 485.578 305.313Z" fill="#1FB4DB"/>
<path opacity="0.1" d="M485.2 309.372C478.519 308.103 471.668 308.016 464.957 309.114C457.36 310.371 449.596 313.135 442.166 311.112C437.806 309.927 434.039 307.182 429.779 305.662C425.67 304.224 421.242 303.958 416.99 304.892C415.369 308.768 414.897 313.03 415.633 317.166C416.369 321.303 418.28 325.141 421.139 328.22C423.997 331.3 427.682 333.491 431.752 334.532C435.823 335.573 440.107 335.42 444.093 334.09C448.593 335.74 453.509 335.874 458.092 334.473C461.287 335.18 464.6 335.16 467.787 334.416C470.974 333.672 473.953 332.223 476.505 330.174C479.057 328.125 481.117 325.53 482.532 322.579C483.947 319.629 484.683 316.398 484.683 313.125C484.683 312.647 484.683 312.169 484.636 311.691C484.866 310.929 485.055 310.155 485.2 309.372V309.372Z" fill="black"/>
<path d="M333.997 82.2209H331.258C330.653 82.2209 330.163 82.7111 330.163 83.3158V121.775C330.163 122.38 330.653 122.87 331.258 122.87H333.997C334.602 122.87 335.092 122.38 335.092 121.775V83.3158C335.092 82.7111 334.602 82.2209 333.997 82.2209Z" fill="#3F3D56"/>
<path d="M168.313 50.3738H166.98C166.584 50.3738 166.262 50.6949 166.262 51.0909V63.039C166.262 63.435 166.584 63.7561 166.98 63.7561H168.313C168.71 63.7561 169.031 63.435 169.031 63.039V51.0909C169.031 50.6949 168.71 50.3738 168.313 50.3738Z" fill="#3F3D56"/>
<path d="M168.471 74.8772H166.97C166.524 74.8772 166.162 75.239 166.162 75.6852V97.3628C166.162 97.8091 166.524 98.1708 166.97 98.1708H168.471C168.917 98.1708 169.279 97.8091 169.279 97.3628V75.6852C169.279 75.239 168.917 74.8772 168.471 74.8772Z" fill="#3F3D56"/>
<path d="M168.409 106.318H166.98C166.555 106.318 166.21 106.662 166.21 107.087V129.042C166.21 129.467 166.555 129.812 166.98 129.812H168.409C168.834 129.812 169.179 129.467 169.179 129.042V107.087C169.179 106.662 168.834 106.318 168.409 106.318Z" fill="#3F3D56"/>
<path d="M315.758 6.15332H184.894C175.47 6.15332 167.831 13.7931 167.831 23.2171V324.423C167.831 333.847 175.47 341.487 184.894 341.487H315.758C325.182 341.487 332.821 333.847 332.821 324.423V23.2171C332.821 13.7931 325.182 6.15332 315.758 6.15332Z" fill="#3F3D56"/>
<path d="M256.235 16.165H235.625C234.954 16.165 234.41 16.7087 234.41 17.3794V19.6314C234.41 20.302 234.954 20.8458 235.625 20.8458H256.235C256.906 20.8458 257.45 20.302 257.45 19.6314V17.3794C257.45 16.7087 256.906 16.165 256.235 16.165Z" fill="#E6E8EC"/>
<path d="M263.588 21.1564C265.054 21.1564 266.242 19.9684 266.242 18.5029C266.242 17.0374 265.054 15.8494 263.588 15.8494C262.123 15.8494 260.935 17.0374 260.935 18.5029C260.935 19.9684 262.123 21.1564 263.588 21.1564Z" fill="#E6E8EC"/>
<path d="M322.633 27.9888V319.637C322.632 323.112 321.251 326.444 318.793 328.901C316.336 331.357 313.003 332.737 309.528 332.737H191.123C187.649 332.737 184.316 331.357 181.859 328.901C179.401 326.444 178.02 323.112 178.019 319.637V27.9888C178.019 26.2679 178.358 24.5637 179.016 22.9738C179.675 21.3838 180.64 19.9391 181.857 18.7222C183.074 17.5053 184.519 16.5399 186.108 15.8814C187.698 15.2228 189.402 14.8838 191.123 14.8838H208.842V17.1596C208.847 20.0187 209.986 22.759 212.009 24.7793C214.031 26.7996 216.773 27.935 219.632 27.9363H279.872C281.289 27.9363 282.692 27.6571 284.002 27.1148C285.311 26.5725 286.5 25.7777 287.502 24.7756C288.504 23.7736 289.299 22.584 289.841 21.2748C290.384 19.9656 290.663 18.5624 290.663 17.1453V14.8838H309.552C313.024 14.8901 316.351 16.2736 318.803 18.7306C321.256 21.1876 322.633 24.5173 322.633 27.9888V27.9888Z" fill="white"/>
<path opacity="0.2" d="M323.67 148.42V247.595H322.633V247.696H178.019V126.532C178.946 125.474 179.887 124.376 180.84 123.238C201.149 98.9836 228.754 92.6008 250.12 91.9314C264.76 91.4533 279.332 94.4797 293.245 100.49C300.593 103.664 311.14 107.145 322.633 107.489V144.983C323.336 146.986 323.67 148.42 323.67 148.42Z" fill="#1FB4DB"/>
<path opacity="0.2" d="M323.67 148.42V247.595H178.019V182.629C183.206 181.324 190.449 176.304 199.743 162.434C210.859 145.838 225.962 141.473 237.652 141.014C245.66 140.699 253.634 142.755 261.246 146.871C269.808 151.494 286.312 157.069 298.853 140.885C312.717 122.989 320.09 137.749 322.633 144.983C323.336 146.986 323.67 148.42 323.67 148.42Z" fill="#1FB4DB"/>
<path d="M302.634 229.432H198.41C195.241 229.432 192.672 232 192.672 235.169V260.031C192.672 263.199 195.241 265.768 198.41 265.768H302.634C305.803 265.768 308.371 263.199 308.371 260.031V235.169C308.371 232 305.803 229.432 302.634 229.432Z" fill="#736E9E"/>
<path d="M64.0935 326.895L73.2442 321.497C72.0067 319.383 70.4248 317.491 68.5637 315.898L51.2997 321.286L64.8298 313.331C61.4805 311.496 57.7112 310.565 53.8928 310.629C50.0745 310.694 46.3387 311.751 43.0532 313.698C39.7678 315.645 37.0458 318.414 35.1553 321.732C33.2648 325.05 32.2709 328.804 32.2715 332.623C32.2715 344.771 42.1155 345.192 54.2639 345.192C66.4123 345.192 76.2562 344.771 76.2562 332.623C76.2605 329.549 75.617 326.509 74.3678 323.701L64.0935 326.895Z" fill="#1FB4DB"/>
<path opacity="0.1" d="M66.4218 338.709C65.4479 337.732 64.3595 336.876 63.1803 336.161C61.5165 335.056 59.8002 333.933 57.84 333.555C56.1188 333.225 54.3451 333.502 52.5809 333.407C49.5371 333.219 46.672 331.905 44.5441 329.721C43.2963 328.43 42.3114 326.852 40.8102 325.853C39.1895 324.791 37.1337 324.562 35.2117 324.825C34.6548 324.909 34.1026 325.022 33.5575 325.164C32.6947 327.558 32.2546 330.083 32.2571 332.627C32.2571 344.776 42.1011 345.197 54.2495 345.197C60.1444 345.197 65.4943 345.097 69.4433 343.605L68.7836 342.371C68.1543 341.056 67.3607 339.825 66.4218 338.709V338.709Z" fill="black"/>
<path d="M109.121 278.405C108.422 279.018 107.883 279.793 107.552 280.661C106.735 283.214 109.02 285.72 109.24 288.392C109.412 290.515 108.284 292.495 107.643 294.531C106.92 297.062 106.967 299.75 107.778 302.253C108.588 304.756 110.126 306.962 112.195 308.588C112.635 308.962 113.155 309.23 113.715 309.372C114.177 309.428 114.646 309.389 115.092 309.257C115.538 309.125 115.953 308.904 116.311 308.607C117.421 307.799 118.268 306.682 118.745 305.394C119.141 304.129 119.355 302.814 119.38 301.488L119.72 296.372C120.074 291.032 120.394 285.524 119.094 280.279C118.668 278.558 117.879 274.604 115.89 274.365C113.901 274.126 110.44 277.114 109.121 278.405Z" fill="#3F3D56"/>
<path d="M142.472 256.431C140.084 264.818 138.353 273.378 137.295 282.034C137.142 283.253 136.984 284.534 136.247 285.519C134.78 287.494 131.839 287.369 129.401 287.049C128.816 287.018 128.245 286.855 127.733 286.571C126.815 285.949 126.614 284.706 126.504 283.602C124.834 267.32 123.718 250.996 123.157 234.629C123.133 234.002 143.567 233.945 145.317 235.585C147.067 237.225 145.709 243.359 145.317 245.448C144.676 249.168 143.519 252.792 142.472 256.431Z" fill="#FBBEBE"/>
<path opacity="0.05" d="M142.472 256.431C140.084 264.818 138.353 273.378 137.295 282.034C137.142 283.253 136.984 284.534 136.247 285.519C134.78 287.494 131.839 287.369 129.401 287.049C128.816 287.018 128.245 286.855 127.733 286.571C126.815 285.949 126.614 284.706 126.504 283.602C124.834 267.32 123.718 250.996 123.157 234.629C123.133 234.002 143.567 233.945 145.317 235.585C147.067 237.225 145.709 243.359 145.317 245.448C144.676 249.168 143.519 252.792 142.472 256.431Z" fill="black"/>
<path d="M99.9219 232.3L108.198 250.502C110.952 256.555 113.724 262.675 115.039 269.191C115.567 271.914 115.904 274.67 116.048 277.439C116.248 279.812 116.174 282.201 115.828 284.558C115.527 286.308 114.972 288.01 114.728 289.769C113.772 296.783 117.745 303.381 120.466 309.907C122.816 315.512 124.312 321.439 124.902 327.488C125.151 330.065 125.29 332.799 126.762 334.927C129.454 334.119 132.083 333.421 134.89 333.736C135.392 329.62 132.791 325.829 131.835 321.784C130.08 314.373 133.957 306.585 132.638 299.083C131.921 295.019 129.698 291.194 129.879 287.073C130.219 279.557 131.629 271.964 130.195 264.602C128.579 256.278 123.932 248.709 122.904 240.294C122.115 233.83 123.382 226.682 119.782 221.251C111.917 220.787 103.785 225.43 99.9219 232.3Z" fill="#FBBEBE"/>
<path d="M127.121 346.607C126.294 346.636 125.328 346.607 124.816 345.952C124.567 345.571 124.423 345.131 124.4 344.676C124.009 341.794 123.817 338.888 123.827 335.979C123.827 334.918 123.875 333.789 124.467 332.914C124.902 332.38 125.398 331.899 125.945 331.48C127.212 330.309 128.134 328.611 129.769 328.071C130.486 327.863 131.245 327.853 131.967 328.042C132.689 328.232 133.345 328.613 133.867 329.147C134.898 330.247 135.537 331.657 135.684 333.158C135.923 334.937 135.722 336.873 136.664 338.417C137.037 339.015 137.558 339.503 137.978 340.067C139.413 341.979 140.699 345.723 137.739 346.497C134.603 347.315 130.377 346.502 127.121 346.607Z" fill="#3F3D56"/>
<path d="M134.297 124.582C135.97 121.35 134.971 117.19 132.581 114.446C130.19 111.701 126.695 110.171 123.129 109.344C118.348 108.225 113.223 108.235 108.647 109.994C104.999 111.395 101.858 113.819 98.4924 115.799C92.5443 119.3 85.887 121.424 79.0101 122.014C71.3605 122.66 62.817 121.656 56.9029 126.528C46.0693 135.449 53.6136 155.554 43.5163 165.288C40.7911 167.913 37.1528 169.333 34.0309 171.47C30.9089 173.607 28.1168 177.026 28.6188 180.774C28.8579 182.577 29.8427 184.202 30.9806 185.622C35.8667 191.728 44.0709 194.926 51.8303 193.975C59.5898 193.023 66.6943 188.041 70.4761 181.185C71.4322 179.469 72.2068 177.59 73.7128 176.342C76.7295 173.851 81.1567 174.86 85.0675 174.74C93.7641 174.473 101.662 167.019 102.422 158.346C102.747 154.641 102.116 150.328 104.779 147.727C106.926 145.623 110.282 145.642 113.218 144.997C118.611 143.816 122.536 139.915 124.998 135.153C126.126 132.963 126.012 130.515 127.685 128.698C129.468 126.7 132.705 127.651 134.297 124.582Z" fill="#3F3D56"/>
<g opacity="0.1">
<path opacity="0.1" d="M71.8815 123.53C75.0534 123.259 78.1889 122.662 81.2379 121.747C80.3773 121.866 79.5167 121.967 78.6514 122.038C72.656 122.54 66.0966 122.038 60.6941 124.147C64.3754 123.769 68.2337 123.836 71.8815 123.53Z" fill="black"/>
<path opacity="0.1" d="M66.546 177.858C65.04 179.101 64.2464 180.985 63.3093 182.701C60.412 187.924 55.7721 191.963 50.2 194.114C50.6255 194.085 51.051 194.047 51.4765 193.994C59.236 193.038 66.3404 188.065 70.1222 181.209C71.0784 179.493 71.8481 177.609 73.3589 176.366L73.6171 176.165C70.9923 176.103 68.4775 176.261 66.546 177.858Z" fill="black"/>
<path opacity="0.1" d="M132.222 114.474C129.832 111.73 126.313 110.205 122.77 109.373C117.989 108.254 112.864 108.269 108.284 110.028L107.978 110.152C110.672 109.999 113.375 110.239 116 110.865C119.543 111.697 123.066 113.222 125.452 115.971C127.838 118.72 128.842 122.875 127.169 126.107C125.576 129.176 122.34 128.22 120.518 130.204C118.845 132.016 118.96 134.469 117.831 136.659C115.713 140.756 112.505 144.208 108.222 145.848C109.718 145.494 111.324 145.337 112.816 145.011C118.209 143.826 122.134 139.929 124.596 135.167C125.729 132.977 125.615 130.525 127.283 128.713C129.11 126.728 132.346 127.68 133.934 124.615C135.607 121.393 134.608 117.233 132.222 114.474Z" fill="black"/>
<path opacity="0.1" d="M106.051 146.508C103.116 147.149 99.7594 147.134 97.6127 149.233C94.9497 151.839 95.5808 156.152 95.2557 159.857C94.6868 166.335 90.1305 172.135 84.2356 174.769H84.6707C93.3672 174.501 101.261 167.043 102.021 158.375C102.351 154.665 101.72 150.352 104.383 147.751C104.993 147.169 105.711 146.711 106.496 146.403L106.051 146.508Z" fill="black"/>
</g>
<path d="M134.44 168.095C134.044 168.797 133.226 169.122 132.466 169.405C124.596 172.302 116.316 175.252 108.016 174.033C107.705 172.727 107.399 171.417 107.093 170.112C106.65 168.219 106.204 166.325 105.755 164.432C105.544 163.529 105.329 162.615 105.157 161.697C104.861 160.248 104.766 158.765 104.875 157.289C104.926 156.754 105.022 156.225 105.162 155.707C105.407 154.764 105.819 153.872 106.376 153.072C106.472 152.943 106.572 152.814 106.677 152.69C107.15 152.12 107.724 151.642 108.37 151.279C109.78 150.505 111.717 150.175 112.286 148.674C112.506 147.889 112.484 147.056 112.223 146.283C111.745 144.371 110.88 142.573 110.344 140.68C109.666 138.289 110.689 138.437 112.998 137.859C117.157 136.812 121.508 136.061 125.777 136.902C125.577 139.011 125.381 141.172 125.911 143.228C126.442 145.284 127.862 147.234 129.903 147.803C130.205 147.889 130.525 147.942 130.86 148.014C131.303 148.085 131.724 148.259 132.088 148.521C132.34 148.728 132.54 148.992 132.672 149.29C132.879 149.795 133.016 150.326 133.078 150.868C133.827 155.885 134.367 160.926 134.699 165.991V166.182C134.797 166.831 134.707 167.495 134.44 168.095V168.095Z" fill="#FBBEBE"/>
<path d="M93.9265 159.857C92.1385 162.577 91.5361 165.886 90.991 169.099L87.5201 189.227C87.042 191.981 86.6165 195.008 88.0268 197.422C88.5049 198.24 89.1743 198.947 89.5233 199.813C89.787 200.683 89.96 201.579 90.0396 202.485C90.8524 207.099 95.3895 210.212 99.941 211.33C101.586 211.737 103.508 211.894 104.803 210.8C106.237 209.609 106.237 207.343 105.391 205.708C104.545 204.073 103.001 202.916 101.504 201.821L96.5465 198.168L99.4151 176.175C99.6254 174.578 100.371 172.508 101.987 172.684C103.46 172.842 104.593 174.989 105.903 174.296C106.313 174.018 106.602 173.594 106.711 173.11C107.285 171.308 107.127 169.366 106.964 167.478L106.371 160.66C106.175 158.446 106.744 156.787 107.012 154.707C107.323 152.283 105.707 153.02 103.713 153.541C99.8836 154.554 96.1401 156.481 93.9265 159.857Z" fill="#FBBEBE"/>
<path d="M155.577 192.913C155.213 193.526 154.673 194.016 154.028 194.319C150.157 196.502 145.605 197.142 141.282 196.112C140.286 195.819 139.274 195.583 138.251 195.404C136.616 195.204 134.952 195.529 133.302 195.404C129.956 195.151 127.016 193.062 124.697 190.623C123.301 189.189 122.034 186.841 123.334 185.302C123.697 184.93 124.149 184.657 124.646 184.506C125.143 184.356 125.671 184.334 126.179 184.441C127.191 184.667 128.168 185.03 129.081 185.522C132.281 187.005 135.704 187.949 139.212 188.314C141.602 188.563 144.643 188.156 145.47 185.885C145.872 184.781 145.59 183.557 145.307 182.414C144.536 179.284 143.765 176.152 142.993 173.019C142.94 172.746 142.844 172.483 142.707 172.24C142.667 172.174 142.621 172.113 142.568 172.058C142.263 171.804 141.894 171.639 141.502 171.58C139.719 171.14 137.935 170.428 136.659 169.113C135.822 168.18 135.155 167.107 134.689 165.943C134.555 165.652 134.431 165.355 134.302 165.059C133.322 162.773 132.289 160.431 131.491 158.03C130.933 156.408 130.522 154.739 130.262 153.044C130.051 151.576 129.937 150.902 130.74 150.252C130.955 150.089 131.184 149.945 131.424 149.821C131.792 149.625 132.208 149.429 132.648 149.243L133.073 149.066C134.381 148.543 135.725 148.115 137.094 147.784C140.412 147.015 143.954 148.621 146.23 151.16C148.506 153.699 149.687 157.022 150.442 160.344C151.198 163.667 151.585 167.072 152.531 170.342C152.9 171.623 153.359 172.885 153.674 174.167C154.013 175.691 154.254 177.235 154.396 178.79C154.845 182.752 155.293 186.714 155.739 190.676C155.904 191.422 155.848 192.199 155.577 192.913Z" fill="#FBBEBE"/>
<path d="M106.486 191.192C107.442 197.293 104.693 203.293 102.035 208.882C103.541 209.982 105.382 210.527 107.179 211.001C119.211 214.163 131.719 215.105 144.088 213.778C144.385 211.713 144.662 209.523 143.816 207.62C143.29 206.439 142.382 205.478 141.803 204.321C140.847 202.409 140.943 200.186 141.048 198.063L141.904 179.976C135.97 177.241 129.091 179.804 122.565 180.172C119.184 180.363 115.761 179.952 112.429 180.55C110.698 180.86 105.258 181.716 104.44 183.499C103.622 185.283 106.195 189.251 106.486 191.192Z" fill="#FBBEBE"/>
<path opacity="0.05" d="M106.486 191.192C107.442 197.293 104.693 203.293 102.035 208.882C103.541 209.982 105.382 210.527 107.179 211.001C119.211 214.163 131.719 215.105 144.088 213.778C144.385 211.713 144.662 209.523 143.816 207.62C143.29 206.439 142.382 205.478 141.803 204.321C140.847 202.409 140.943 200.186 141.048 198.063L141.904 179.976C135.97 177.241 129.091 179.804 122.565 180.172C119.184 180.363 115.761 179.952 112.429 180.55C110.698 180.86 105.258 181.716 104.44 183.499C103.622 185.283 106.195 189.251 106.486 191.192Z" fill="black"/>
<path d="M122.206 208.701C115.776 207.362 109.455 205.148 102.891 204.995C102.561 204.962 102.229 205.025 101.935 205.177C101.614 205.442 101.401 205.814 101.332 206.224C100.654 208.567 100.046 210.927 99.5109 213.305C97.7324 221.208 96.8575 229.938 100.768 237.034C100.73 234.729 102.179 232.573 104.115 231.296C106.051 230.02 108.37 229.503 110.665 229.293C112.96 229.083 115.412 229.169 117.549 230.111C119.043 230.789 120.331 231.849 121.286 233.183C122.24 234.518 122.826 236.08 122.985 237.713L145.575 238.444C145.708 238.483 145.847 238.488 145.982 238.459C146.117 238.43 146.242 238.367 146.346 238.278C146.451 238.188 146.531 238.073 146.58 237.945C146.629 237.816 146.645 237.677 146.627 237.54C147.46 230.294 147.43 222.973 146.536 215.734C146.288 213.711 146.254 210.905 143.979 210.145C141.263 209.236 136.97 210.298 134.068 210.173C130.08 210.006 126.113 209.513 122.206 208.701V208.701Z" fill="#3F3D56"/>
<path d="M142.711 173.282L142.64 183.322L119.787 184.083C115.594 184.226 111.368 184.369 107.28 185.302C106.104 185.57 104.942 185.904 103.785 186.234C102.58 181.821 101.395 177.198 101.71 172.699C101.797 171.485 102.009 170.283 102.341 169.113C103.068 166.588 104.43 164.207 105.157 161.712C105.45 160.74 105.611 159.733 105.635 158.719C105.581 157.706 105.421 156.701 105.157 155.721C104.947 154.917 104.848 154.089 104.861 153.259L106.673 152.699C106.725 152.914 106.768 153.125 106.807 153.345C106.883 153.799 106.945 154.263 106.988 154.727C107.091 155.876 107.123 157.03 107.084 158.183C107.022 160.488 106.711 163.055 108.15 164.877C110.019 167.215 113.615 166.851 116.55 166.268L124.238 164.733C126.667 164.255 129.377 163.576 130.644 161.449C131.185 160.416 131.47 159.268 131.476 158.102V157.872C131.591 155.333 131.338 152.79 130.726 150.323C130.539 149.549 130.31 148.784 130.052 148.033H130.821C131.265 148.104 131.685 148.278 132.05 148.54C132.302 148.748 132.501 149.011 132.633 149.31L133.059 149.133C134.755 156.067 137.551 162.685 141.339 168.735C141.827 169.428 142.213 170.186 142.487 170.987C142.6 171.422 142.665 171.867 142.678 172.316C142.716 172.598 142.711 172.938 142.711 173.282Z" fill="#FF6F61"/>
<path d="M118.568 142.893C126.225 142.893 132.432 136.686 132.432 129.028C132.432 121.371 126.225 115.163 118.568 115.163C110.91 115.163 104.703 121.371 104.703 129.028C104.703 136.686 110.91 142.893 118.568 142.893Z" fill="#FBBEBE"/>
<path d="M93.9265 159.857C92.1385 162.577 91.5361 165.886 90.991 169.099L87.5201 189.227C87.042 191.981 86.6165 195.008 88.0268 197.422C88.5049 198.24 89.1743 198.947 89.5233 199.813C89.787 200.683 89.96 201.579 90.0396 202.485C90.8524 207.099 95.3895 210.212 99.941 211.33C101.586 211.737 103.508 211.895 104.803 210.8C106.237 209.609 106.237 207.343 105.391 205.708C104.545 204.073 103.001 202.916 101.504 201.821L96.5465 198.168L99.4151 176.175C99.6063 174.592 96.1401 156.481 93.9265 159.857Z" fill="#FBBEBE"/>
<path d="M150.447 160.373C151.202 163.696 151.59 167.1 152.536 170.37C152.904 171.657 153.363 172.914 153.679 174.195C154.018 175.718 154.259 177.261 154.401 178.814L155.744 190.7C155.899 191.434 155.841 192.197 155.577 192.899C155.211 193.511 154.672 194 154.028 194.305C150.155 196.482 145.605 197.122 141.282 196.098C140.287 195.8 139.275 195.564 138.251 195.39C136.616 195.184 134.952 195.514 133.302 195.39C129.956 195.137 127.016 193.052 124.697 190.633C123.301 189.198 122.034 186.846 123.334 185.307C123.697 184.935 124.149 184.661 124.646 184.511C125.143 184.361 125.671 184.338 126.179 184.446C127.191 184.673 128.168 185.038 129.081 185.531C132.282 187.011 135.705 187.953 139.212 188.319C141.602 188.572 144.643 188.166 145.47 185.89C145.872 184.785 145.59 183.561 145.307 182.419L142.993 173.024C142.898 172.699 149.692 157.055 150.447 160.373Z" fill="#FBBEBE"/>
<path d="M109.986 133.298C109.369 131.084 108.504 128.316 110.239 126.814C110.863 126.333 111.615 126.045 112.4 125.987C116.297 125.509 120.327 127.804 124.056 126.58C125.246 126.192 126.297 125.467 127.084 124.494C127.871 123.521 128.359 122.341 128.49 121.096C128.621 119.851 128.389 118.596 127.822 117.48C127.255 116.364 126.377 115.437 125.295 114.809C123.664 113.853 121.718 113.666 119.84 113.499C114.891 113.045 109.733 112.624 105.105 114.455C100.477 116.286 96.5754 121.001 97.5316 125.882C97.9762 128.211 99.4153 130.214 100.878 132.069C102.002 133.479 106.51 140.197 108.322 140.101C110.875 139.958 110.388 134.737 109.986 133.298Z" fill="#3F3D56"/>
<path opacity="0.1" d="M125.294 114.809C125.018 114.649 124.73 114.51 124.434 114.393C125.273 115.155 125.898 116.124 126.246 117.203C126.593 118.282 126.651 119.433 126.414 120.542C126.177 121.65 125.653 122.677 124.894 123.52C124.135 124.362 123.169 124.99 122.091 125.342C118.362 126.566 114.332 124.271 110.435 124.749C109.649 124.807 108.898 125.095 108.274 125.576C106.539 127.077 107.404 129.846 108.021 132.059C108.422 133.494 108.91 138.719 106.367 138.863H106.323C107.112 139.633 107.825 140.135 108.331 140.106C110.875 139.963 110.387 134.742 109.986 133.302C109.369 131.089 108.504 128.32 110.239 126.819C110.863 126.338 111.614 126.05 112.4 125.992C116.297 125.514 120.327 127.809 124.056 126.585C125.246 126.196 126.297 125.472 127.084 124.498C127.871 123.525 128.359 122.345 128.49 121.101C128.621 119.856 128.389 118.6 127.822 117.485C127.255 116.369 126.377 115.442 125.294 114.814V114.809Z" fill="black"/>
<path d="M328.93 287.283H173.071V335.573H328.93V287.283Z" fill="#3F3D56"/>
<path d="M244.307 302.889V319.957L257.693 311.423L244.307 302.889Z" fill="white"/>
<path d="M124.783 16.3181L117.363 21.0227L121.867 12.8326C120.59 11.8138 119.01 11.2501 117.377 11.231H117.258C116.742 11.2385 116.227 11.2001 115.718 11.1162L113.203 12.7083L114.284 10.7481C112.5 10.1274 110.959 8.95529 109.885 7.40128L105.382 10.2699L108.227 5.10156C105.592 1.94123 102.045 0.00488281 98.1435 0.00488281C93.4629 0.00488281 89.2939 2.78749 86.6023 7.12397C85.8063 8.42606 84.6784 9.49306 83.3342 10.2156C81.99 10.9381 80.4778 11.2902 78.9527 11.2357H78.6993C73.5311 11.2357 69.343 17.0926 69.343 24.3217C69.343 31.5507 73.5311 37.4076 78.6993 37.4076C79.8363 37.4023 80.955 37.1218 81.96 36.59C83.7181 35.7343 85.6414 35.2713 87.5964 35.2334C89.5514 35.1954 91.4912 35.5833 93.2812 36.3701C94.7958 37.0477 96.4364 37.3979 98.0957 37.3979C99.7549 37.3979 101.395 37.0477 102.91 36.3701C104.688 35.5995 106.61 35.2203 108.547 35.2582C110.484 35.2962 112.39 35.7504 114.136 36.59C115.13 37.1106 116.236 37.3844 117.358 37.3885C122.526 37.3885 126.714 31.5268 126.714 24.3025C126.75 21.5212 126.086 18.7756 124.783 16.3181V16.3181Z" fill="#F2F2F2"/>
<path opacity="0.03" d="M110.794 35.4663C108.099 34.9552 105.313 35.2581 102.791 36.3365C101.276 37.0126 99.6351 37.362 97.9761 37.362C96.3171 37.362 94.6767 37.0126 93.1617 36.3365C91.371 35.5513 89.4312 35.1648 87.4763 35.2036C85.5215 35.2424 83.5985 35.7056 81.8404 36.5612C80.8349 37.0909 79.7163 37.3697 78.5798 37.374C73.9901 37.374 70.1701 32.7506 69.3765 26.6499C70.2915 25.9792 71.0703 25.1403 71.6713 24.1781C74.363 19.8368 78.532 17.0542 83.2125 17.0542C87.8931 17.0542 92.0095 19.8033 94.6868 24.0968C95.4925 25.3881 96.6176 26.4498 97.9534 27.1793C99.2892 27.9088 100.791 28.2814 102.312 28.2611H102.432C106.089 28.2611 109.254 31.192 110.794 35.4663Z" fill="black"/>
<path d="M378.652 122.956L374.951 125.304L377.198 121.216C376.562 120.709 375.774 120.428 374.961 120.417H374.899C374.642 120.422 374.387 120.404 374.134 120.365L372.857 121.168L373.397 120.188C372.508 119.88 371.74 119.297 371.203 118.524L368.956 119.958L370.39 117.381C369.793 116.611 369.032 115.983 368.162 115.543C367.292 115.103 366.335 114.862 365.36 114.838C363.027 114.838 360.948 116.224 359.623 118.39C359.225 119.04 358.661 119.573 357.989 119.933C357.316 120.294 356.561 120.469 355.799 120.441H355.674C353.097 120.441 351.008 123.367 351.008 126.968C351.008 130.568 353.097 133.499 355.674 133.499C356.241 133.496 356.799 133.357 357.3 133.092C358.176 132.665 359.135 132.434 360.11 132.414C361.085 132.394 362.053 132.586 362.946 132.977C363.697 133.317 364.512 133.495 365.337 133.499C366.16 133.496 366.974 133.323 367.727 132.992C368.613 132.607 369.572 132.418 370.538 132.436C371.504 132.454 372.454 132.68 373.326 133.097C373.821 133.358 374.372 133.496 374.932 133.499C377.509 133.499 379.598 130.573 379.598 126.968C379.626 125.572 379.3 124.192 378.652 122.956V122.956Z" fill="#F2F2F2"/>
<path opacity="0.03" d="M371.657 132.509C370.311 132.251 368.919 132.402 367.66 132.944C366.908 133.279 366.093 133.453 365.27 133.453C364.446 133.453 363.631 133.279 362.879 132.944C361.986 132.553 361.019 132.361 360.044 132.38C359.069 132.399 358.11 132.629 357.233 133.054C356.732 133.32 356.174 133.462 355.607 133.465C353.317 133.465 351.414 131.156 351.018 128.115C351.474 127.781 351.862 127.362 352.16 126.881C353.504 124.716 355.583 123.329 357.897 123.329C360.211 123.329 362.286 124.701 363.635 126.838C364.036 127.488 364.6 128.023 365.271 128.389C365.941 128.755 366.695 128.941 367.459 128.928H367.517C369.309 128.913 370.892 130.376 371.657 132.509Z" fill="black"/>
<path d="M386.841 61.992L392.784 65.7643L389.169 59.1998C390.192 58.3855 391.457 57.9347 392.765 57.9185H392.86C393.273 57.9246 393.686 57.8942 394.094 57.8276L396.111 59.1042L395.246 57.536C396.672 57.0356 397.905 56.0988 398.77 54.8586L402.379 57.1439L400.099 53.0035C402.207 50.4695 405.052 48.9204 408.179 48.9204C411.932 48.9204 415.269 51.1484 417.425 54.6243C418.062 55.6644 418.964 56.5171 420.038 57.0957C421.112 57.6744 422.32 57.9582 423.54 57.9185H423.74C427.881 57.9185 431.237 62.6135 431.237 68.4035C431.237 74.1934 427.89 78.8885 423.74 78.8885C422.83 78.8838 421.935 78.659 421.13 78.2335C419.72 77.5459 418.176 77.1739 416.608 77.1433C415.039 77.1128 413.482 77.4244 412.046 78.0566C410.833 78.5987 409.519 78.8788 408.19 78.8788C406.862 78.8788 405.548 78.5987 404.335 78.0566C402.911 77.4383 401.371 77.1336 399.819 77.1633C398.268 77.193 396.74 77.5564 395.342 78.2287C394.543 78.6447 393.656 78.8643 392.755 78.8694C388.615 78.8694 385.259 74.1743 385.259 68.3844C385.243 66.1548 385.787 63.957 386.841 61.992V61.992Z" fill="#F2F2F2"/>
<path opacity="0.03" d="M398.043 77.3347C400.207 76.9225 402.444 77.1656 404.469 78.0327C405.682 78.5748 406.996 78.855 408.324 78.855C409.653 78.855 410.967 78.5748 412.18 78.0327C413.617 77.4025 415.174 77.0924 416.742 77.1238C418.311 77.1552 419.854 77.5273 421.264 78.2144C422.069 78.6385 422.965 78.8616 423.874 78.8646C427.551 78.8646 430.611 75.1593 431.251 70.2586C430.514 69.724 429.889 69.0499 429.411 68.2744C427.255 64.8033 423.913 62.5706 420.164 62.5706C416.416 62.5706 413.113 64.7747 410.956 68.2123C410.312 69.2489 409.411 70.1016 408.341 70.6879C407.27 71.2742 406.067 71.5743 404.846 71.5591H404.751C401.815 71.5638 399.276 73.9114 398.043 77.3347Z" fill="black"/>
</svg>
