<svg width="878" height="570" viewBox="0 0 878 570" fill="none" xmlns="http://www.w3.org/2000/svg">
<path d="M672.662 539.899L718.373 471.898L672.756 547.214L672.851 554.866C669.514 554.892 666.209 554.836 662.937 554.699L665.204 456.341L665.142 455.582L665.226 455.436L665.443 446.141L615.384 373.436L665.384 439.185L665.561 441.15L667.273 366.836L624.036 291.457L667.397 353.781L666.944 199.822L666.945 199.31L666.96 199.814L669.83 321.154L709.235 271.866L669.959 331.607L670.819 398.079L707.08 333.205L670.952 407.852L671.431 444.813L724.165 354.445L671.591 457.708L672.662 539.899Z" fill="#E6E6E6"/>
<path d="M826.498 542.041L872.208 474.04L826.591 549.357L826.686 557.008C823.349 557.034 820.045 556.978 816.772 556.842L819.04 458.483L818.977 457.724L819.061 457.578L819.278 448.283L769.219 375.578L819.219 441.327L819.396 443.292L821.109 368.978L777.872 293.599L821.232 355.923L820.779 201.964L820.78 201.452L820.795 201.956L823.665 323.296L863.071 274.008L823.794 333.749L824.654 400.221L860.916 335.347L824.788 409.994L825.266 446.955L878 356.587L825.427 459.85L826.498 542.041Z" fill="#E6E6E6"/>
<path d="M364.058 0H90.5206V370.124H364.058V0Z" fill="#E6E6E6"/>
<path d="M354.419 13.0425H100.159V357.082H354.419V13.0425Z" fill="white"/>
<path d="M320.999 73.386H134.395C132.883 73.3841 131.434 72.782 130.366 71.7121C129.298 70.6422 128.698 69.192 128.698 67.68C128.698 66.1679 129.298 64.7177 130.366 63.6478C131.434 62.5779 132.883 61.9759 134.395 61.9739H320.999C321.748 61.9729 322.491 62.1198 323.184 62.4061C323.877 62.6924 324.506 63.1125 325.037 63.6425C325.567 64.1725 325.988 64.8018 326.275 65.4946C326.562 66.1874 326.71 66.93 326.71 67.68C326.71 68.4299 326.562 69.1725 326.275 69.8653C325.988 70.5581 325.567 71.1875 325.037 71.7174C324.506 72.2474 323.877 72.6675 323.184 72.9538C322.491 73.2402 321.748 73.387 320.999 73.386V73.386Z" fill="#E6E6E6"/>
<path d="M320.999 132.077H134.395C132.883 132.075 131.434 131.473 130.366 130.403C129.298 129.333 128.698 127.883 128.698 126.371C128.698 124.859 129.298 123.409 130.366 122.339C131.434 121.269 132.883 120.667 134.395 120.665H320.999C321.748 120.664 322.491 120.811 323.184 121.097C323.877 121.383 324.506 121.803 325.037 122.333C325.567 122.863 325.988 123.493 326.275 124.185C326.562 124.878 326.71 125.621 326.71 126.371C326.71 127.121 326.562 127.863 326.275 128.556C325.988 129.249 325.567 129.878 325.037 130.408C324.506 130.938 323.877 131.358 323.184 131.645C322.491 131.931 321.748 132.078 320.999 132.077V132.077Z" fill="#E6E6E6"/>
<path d="M320.999 190.768H134.395C132.883 190.766 131.434 190.164 130.366 189.094C129.298 188.024 128.698 186.574 128.698 185.062C128.698 183.55 129.298 182.1 130.366 181.03C131.434 179.96 132.883 179.358 134.395 179.356H320.999C321.748 179.355 322.491 179.502 323.184 179.788C323.877 180.074 324.506 180.495 325.037 181.025C325.567 181.555 325.988 182.184 326.275 182.877C326.562 183.569 326.71 184.312 326.71 185.062C326.71 185.812 326.562 186.555 326.275 187.247C325.988 187.94 325.567 188.57 325.037 189.1C324.506 189.629 323.877 190.05 323.184 190.336C322.491 190.622 321.748 190.769 320.999 190.768V190.768Z" fill="#E6E6E6"/>
<path d="M320.999 249.459H134.395C132.883 249.457 131.434 248.855 130.366 247.785C129.298 246.715 128.698 245.265 128.698 243.753C128.698 242.241 129.298 240.791 130.366 239.721C131.434 238.651 132.883 238.049 134.395 238.047H320.999C321.748 238.046 322.491 238.193 323.184 238.479C323.877 238.766 324.506 239.186 325.037 239.716C325.567 240.246 325.988 240.875 326.275 241.568C326.562 242.261 326.71 243.003 326.71 243.753C326.71 244.503 326.562 245.246 326.275 245.939C325.988 246.631 325.567 247.261 325.037 247.791C324.506 248.321 323.877 248.741 323.184 249.027C322.491 249.313 321.748 249.46 320.999 249.459V249.459Z" fill="#E6E6E6"/>
<path d="M320.999 308.15H134.395C132.883 308.148 131.434 307.546 130.366 306.477C129.298 305.407 128.698 303.956 128.698 302.444C128.698 300.932 129.298 299.482 130.366 298.412C131.434 297.342 132.883 296.74 134.395 296.738H320.999C321.748 296.737 322.491 296.884 323.184 297.17C323.877 297.457 324.506 297.877 325.037 298.407C325.567 298.937 325.988 299.566 326.275 300.259C326.562 300.952 326.71 301.694 326.71 302.444C326.71 303.194 326.562 303.937 326.275 304.63C325.988 305.323 325.567 305.952 325.037 306.482C324.506 307.012 323.877 307.432 323.184 307.718C322.491 308.005 321.748 308.151 320.999 308.15V308.15Z" fill="#E6E6E6"/>
<path d="M288.404 73.386H133.58C132.83 73.387 132.088 73.2402 131.395 72.9538C130.702 72.6675 130.072 72.2474 129.542 71.7174C129.011 71.1875 128.59 70.5581 128.303 69.8653C128.016 69.1725 127.868 68.4299 127.868 67.68C127.868 66.93 128.016 66.1874 128.303 65.4946C128.59 64.8018 129.011 64.1725 129.542 63.6425C130.072 63.1125 130.702 62.6924 131.395 62.4061C132.088 62.1198 132.83 61.9729 133.58 61.9739H288.404C289.916 61.9759 291.364 62.5779 292.433 63.6478C293.501 64.7177 294.101 66.1679 294.101 67.68C294.101 69.192 293.501 70.6422 292.433 71.7121C291.364 72.782 289.916 73.3841 288.404 73.386V73.386Z" fill="#1FB4DB"/>
<path d="M240.327 132.077H133.58C132.067 132.077 130.616 131.476 129.546 130.406C128.477 129.336 127.876 127.884 127.876 126.371C127.876 124.858 128.477 123.406 129.546 122.336C130.616 121.266 132.067 120.665 133.58 120.665H240.327C241.077 120.664 241.819 120.811 242.512 121.097C243.205 121.383 243.835 121.803 244.365 122.333C244.896 122.863 245.317 123.493 245.604 124.185C245.891 124.878 246.039 125.621 246.039 126.371C246.039 127.121 245.891 127.863 245.604 128.556C245.317 129.249 244.896 129.878 244.365 130.408C243.835 130.938 243.205 131.358 242.512 131.645C241.819 131.931 241.077 132.078 240.327 132.077V132.077Z" fill="#1FB4DB"/>
<path d="M181.657 190.768H133.58C132.83 190.769 132.088 190.622 131.395 190.336C130.702 190.05 130.072 189.629 129.542 189.1C129.011 188.57 128.59 187.94 128.303 187.247C128.016 186.555 127.868 185.812 127.868 185.062C127.868 184.312 128.016 183.569 128.303 182.877C128.59 182.184 129.011 181.555 129.542 181.025C130.072 180.495 130.702 180.074 131.395 179.788C132.088 179.502 132.83 179.355 133.58 179.356H181.657C183.168 179.358 184.617 179.96 185.685 181.03C186.753 182.1 187.353 183.55 187.353 185.062C187.353 186.574 186.753 188.024 185.685 189.094C184.617 190.164 183.168 190.766 181.657 190.768Z" fill="#1FB4DB"/>
<path d="M303.072 249.459H133.58C132.067 249.459 130.616 248.858 129.546 247.788C128.477 246.718 127.876 245.267 127.876 243.753C127.876 242.24 128.477 240.788 129.546 239.718C130.616 238.648 132.067 238.047 133.58 238.047H303.072C304.584 238.047 306.035 238.648 307.105 239.718C308.175 240.788 308.776 242.24 308.776 243.753C308.776 245.267 308.175 246.718 307.105 247.788C306.035 248.858 304.584 249.459 303.072 249.459Z" fill="#1FB4DB"/>
<path d="M265.588 308.15H133.58C132.83 308.151 132.088 308.005 131.395 307.718C130.702 307.432 130.072 307.012 129.542 306.482C129.011 305.952 128.59 305.323 128.303 304.63C128.016 303.937 127.868 303.194 127.868 302.444C127.868 301.694 128.016 300.952 128.303 300.259C128.59 299.566 129.011 298.937 129.542 298.407C130.072 297.877 130.702 297.457 131.395 297.17C132.088 296.884 132.83 296.737 133.58 296.738H265.588C266.338 296.737 267.08 296.884 267.773 297.17C268.466 297.457 269.096 297.877 269.626 298.407C270.157 298.937 270.577 299.566 270.864 300.259C271.152 300.952 271.299 301.694 271.299 302.444C271.299 303.194 271.152 303.937 270.864 304.63C270.577 305.323 270.157 305.952 269.626 306.482C269.096 307.012 268.466 307.432 267.773 307.718C267.08 308.005 266.338 308.151 265.588 308.15V308.15Z" fill="#1FB4DB"/>
<path d="M873.72 554.872H0V556.841H873.72V554.872Z" fill="#3F3D56"/>
<path d="M497.851 266.646C497.851 266.646 491.667 221.278 481.359 233.651C471.052 246.024 481.359 264.584 481.359 264.584L489.605 274.895L497.851 268.708V266.646Z" fill="#9F616A"/>
<path d="M522.589 281.081C522.589 281.081 501.974 258.397 497.851 262.521C493.728 266.646 481.359 268.708 483.421 276.957C485.482 285.206 528.773 312.014 528.773 312.014L522.589 281.081Z" fill="#1FB4DB"/>
<path opacity="0.1" d="M522.589 281.081C522.589 281.081 501.974 258.397 497.851 262.521C493.728 266.646 481.359 268.708 483.421 276.957C485.482 285.206 528.773 312.014 528.773 312.014L522.589 281.081Z" fill="black"/>
<path d="M640.092 279.019V295.517C640.092 295.517 642.154 332.636 629.785 330.574C617.416 328.512 623.601 297.579 623.601 297.579L625.662 279.019L640.092 279.019Z" fill="#9F616A"/>
<path d="M633.908 398.627C633.908 398.627 652.461 427.498 658.646 429.56C664.83 431.622 697.814 450.182 701.937 468.741L730.797 505.861L716.367 524.421C716.367 524.421 650.4 454.306 631.847 448.12C613.293 441.933 594.74 411 594.74 411L633.908 398.627Z" fill="#9F616A"/>
<path d="M487.544 351.196C487.544 351.196 448.376 357.383 454.56 382.129C460.745 406.876 520.527 458.431 520.527 458.431L522.589 470.804L545.265 474.928L555.572 464.617L553.511 458.431C553.511 458.431 528.773 435.747 526.712 427.498C524.65 419.249 501.974 386.254 491.667 384.192L506.097 375.943L487.544 351.196Z" fill="#9F616A"/>
<path d="M724.613 505.861C724.613 505.861 716.367 493.488 728.736 495.55C741.104 497.612 749.35 499.675 749.35 507.923C749.35 516.172 739.043 573.914 726.674 569.789C714.305 565.665 724.613 547.105 724.613 547.105C724.613 547.105 718.428 530.608 714.305 528.545C710.182 526.483 710.182 516.172 714.305 516.172C718.428 516.172 726.674 509.986 724.613 505.861Z" fill="#2F2E41"/>
<path d="M549.388 460.493C549.388 460.493 549.388 450.182 557.634 460.493C565.88 470.804 570.003 479.053 561.757 485.239C553.511 491.426 524.65 505.861 524.65 505.861C524.65 505.861 493.728 512.048 497.851 497.613C497.851 497.613 518.466 487.301 518.466 479.053C518.466 470.804 518.466 456.368 524.65 460.493C530.835 464.617 549.388 466.679 549.388 460.493Z" fill="#2F2E41"/>
<path d="M588.556 305.828C588.556 305.828 617.416 309.952 615.355 351.196C615.355 351.196 652.461 388.316 642.154 400.689C631.847 413.062 609.17 435.746 600.925 429.56C592.679 423.373 567.941 375.942 567.941 375.942C567.941 375.942 510.22 396.565 499.913 386.254C489.605 375.943 479.298 351.196 479.298 351.196L530.835 324.387L588.556 305.828Z" fill="#2F2E41"/>
<path d="M508.159 188.282C521.821 188.282 532.896 177.203 532.896 163.536C532.896 149.869 521.821 138.79 508.159 138.79C494.496 138.79 483.421 149.869 483.421 163.536C483.421 177.203 494.496 188.282 508.159 188.282Z" fill="#9F616A"/>
<path d="M526.712 165.598C526.712 165.598 541.142 188.282 545.265 190.345C549.388 192.407 516.404 213.029 516.404 213.029C516.404 213.029 516.404 186.22 506.097 180.034L526.712 165.598Z" fill="#9F616A"/>
<path d="M528.773 188.282C528.773 188.282 561.757 177.971 567.941 194.469C574.125 210.966 588.556 241.899 586.494 262.521C584.433 283.143 580.31 279.019 586.494 285.206C592.679 291.392 596.802 287.268 594.74 295.517C592.679 303.766 590.617 303.765 592.679 307.89C594.74 312.014 567.941 326.45 545.265 328.512L522.589 330.574C522.589 330.574 522.589 293.454 518.466 285.206C514.343 276.957 506.097 260.459 506.097 254.273V237.903C506.097 227.008 508.939 216.302 514.343 206.842V206.842C514.343 206.842 526.712 188.282 528.773 188.282Z" fill="#1FB4DB"/>
<path d="M553.511 196.531C553.511 196.531 629.785 202.718 638.031 223.34C646.277 243.962 650.4 285.206 642.154 285.206C633.908 285.206 623.601 289.33 621.539 285.206C619.478 281.081 611.232 239.837 609.17 239.837C607.109 239.837 545.265 233.651 545.265 233.651C545.265 233.651 518.466 200.655 553.511 196.531Z" fill="#1FB4DB"/>
<path d="M507.165 157.401C507.165 157.401 500.6 145.989 492.394 155.901C484.189 165.814 470.84 147.598 472.889 143.711C474.938 139.824 482.175 143.886 494.577 139.83C506.978 135.774 530.868 127.512 534.869 154.463C538.87 181.414 529.341 178.589 529.341 178.589C529.341 178.589 524.973 154.708 521.026 161.567L517.078 168.427L513.654 169.27L507.165 157.401Z" fill="#2F2E41"/>
</svg>
