<svg width="880" height="571" viewBox="0 0 880 571" fill="none" xmlns="http://www.w3.org/2000/svg">
<path d="M674.195 540.846L720.009 472.726L674.288 548.175L674.384 555.84C671.039 555.865 667.727 555.81 664.447 555.673L666.72 457.142L666.657 456.382L666.741 456.235L666.959 446.924L616.786 374.091L666.9 439.956L667.077 441.924L668.794 367.479L625.458 291.969L668.917 354.402L668.464 200.173L668.465 199.66L668.479 200.164L671.356 321.718L710.851 272.343L671.485 332.189L672.347 398.778L708.691 333.79L672.481 408.567L672.961 445.594L725.814 355.067L673.121 458.511L674.195 540.846Z" fill="#E6E6E6"/>
<path d="M828.38 542.992L874.195 474.872L828.474 550.32L828.57 557.986C825.225 558.011 821.913 557.955 818.633 557.818L820.905 459.287L820.843 458.527L820.927 458.38L821.144 449.07L770.972 376.237L821.085 442.101L821.263 444.069L822.979 369.625L779.644 294.114L823.103 356.548L822.649 202.319L822.65 201.805L822.665 202.31L825.542 323.863L865.037 274.488L825.671 334.335L826.533 400.923L862.877 335.935L826.666 410.713L827.146 447.74L880 357.212L827.307 460.657L828.38 542.992Z" fill="#E6E6E6"/>
<path d="M364.887 0H90.7266V370.773H364.887V0Z" fill="#E6E6E6"/>
<path d="M355.226 13.0654H100.388V357.708H355.226V13.0654Z" fill="white"/>
<path d="M321.73 73.5147H134.701C133.186 73.5127 131.734 72.9096 130.663 71.8379C129.593 70.7661 128.991 69.3133 128.991 67.7986C128.991 66.2839 129.593 64.8311 130.663 63.7594C131.734 62.6876 133.186 62.0845 134.701 62.0825H321.73C322.481 62.0815 323.225 62.2287 323.92 62.5155C324.614 62.8023 325.245 63.2232 325.777 63.7541C326.309 64.285 326.731 64.9154 327.018 65.6094C327.306 66.3034 327.454 67.0473 327.454 67.7986C327.454 68.5499 327.306 69.2938 327.018 69.9878C326.731 70.6818 326.309 71.3123 325.777 71.8432C325.245 72.374 324.614 72.7949 323.92 73.0818C323.225 73.3686 322.481 73.5157 321.73 73.5147Z" fill="#E6E6E6"/>
<path d="M321.73 132.309H134.701C133.186 132.307 131.734 131.704 130.663 130.632C129.593 129.56 128.991 128.107 128.991 126.593C128.991 125.078 129.593 123.625 130.663 122.553C131.734 121.482 133.186 120.879 134.701 120.877H321.73C322.481 120.876 323.225 121.023 323.92 121.31C324.614 121.596 325.245 122.017 325.777 122.548C326.309 123.079 326.731 123.709 327.018 124.403C327.306 125.097 327.454 125.841 327.454 126.593C327.454 127.344 327.306 128.088 327.018 128.782C326.731 129.476 326.309 130.106 325.777 130.637C325.245 131.168 324.614 131.589 323.92 131.876C323.225 132.163 322.481 132.31 321.73 132.309Z" fill="#E6E6E6"/>
<path d="M321.73 191.103H134.701C133.186 191.101 131.734 190.498 130.663 189.426C129.593 188.354 128.991 186.901 128.991 185.387C128.991 183.872 129.593 182.419 130.663 181.348C131.734 180.276 133.186 179.673 134.701 179.671H321.73C322.481 179.67 323.225 179.817 323.92 180.104C324.614 180.39 325.245 180.811 325.777 181.342C326.309 181.873 326.731 182.504 327.018 183.198C327.306 183.892 327.454 184.635 327.454 185.387C327.454 186.138 327.306 186.882 327.018 187.576C326.731 188.27 326.309 188.9 325.777 189.431C325.245 189.962 324.614 190.383 323.92 190.67C323.225 190.957 322.481 191.104 321.73 191.103Z" fill="#E6E6E6"/>
<path d="M321.73 249.897H134.701C133.186 249.895 131.734 249.292 130.663 248.22C129.593 247.148 128.991 245.696 128.991 244.181C128.991 242.666 129.593 241.213 130.663 240.142C131.734 239.07 133.186 238.467 134.701 238.465H321.73C322.481 238.464 323.225 238.611 323.92 238.898C324.614 239.184 325.245 239.605 325.777 240.136C326.309 240.667 326.731 241.298 327.018 241.992C327.306 242.686 327.454 243.43 327.454 244.181C327.454 244.932 327.306 245.676 327.018 246.37C326.731 247.064 326.309 247.694 325.777 248.225C325.245 248.756 324.614 249.177 323.92 249.464C323.225 249.751 322.481 249.898 321.73 249.897Z" fill="#E6E6E6"/>
<path d="M321.73 308.691H134.701C133.186 308.689 131.734 308.086 130.663 307.014C129.593 305.942 128.991 304.49 128.991 302.975C128.991 301.46 129.593 300.007 130.663 298.936C131.734 297.864 133.186 297.261 134.701 297.259H321.73C322.481 297.258 323.225 297.405 323.92 297.692C324.614 297.979 325.245 298.399 325.777 298.93C326.309 299.461 326.731 300.092 327.018 300.786C327.306 301.48 327.454 302.224 327.454 302.975C327.454 303.726 327.306 304.47 327.018 305.164C326.731 305.858 326.309 306.489 325.777 307.019C325.245 307.55 324.614 307.971 323.92 308.258C323.225 308.545 322.481 308.692 321.73 308.691Z" fill="#E6E6E6"/>
<path d="M289.061 73.5147H133.884C133.133 73.5157 132.389 73.3686 131.694 73.0818C131 72.7949 130.368 72.374 129.837 71.8432C129.305 71.3123 128.883 70.6818 128.596 69.9878C128.308 69.2938 128.16 68.5499 128.16 67.7986C128.16 67.0473 128.308 66.3034 128.596 65.6094C128.883 64.9154 129.305 64.285 129.837 63.7541C130.368 63.2232 131 62.8023 131.694 62.5155C132.389 62.2287 133.133 62.0815 133.884 62.0825H289.061C290.576 62.0845 292.028 62.6876 293.099 63.7594C294.169 64.8311 294.771 66.2839 294.771 67.7986C294.771 69.3133 294.169 70.7661 293.099 71.8379C292.028 72.9096 290.576 73.5127 289.061 73.5147Z" fill="#B8E34B"/>
<path d="M240.874 132.309H133.884C132.368 132.309 130.914 131.707 129.841 130.635C128.769 129.563 128.167 128.109 128.167 126.593C128.167 125.077 128.769 123.623 129.841 122.551C130.914 121.479 132.368 120.877 133.884 120.877H240.874C241.626 120.876 242.37 121.023 243.064 121.31C243.759 121.596 244.39 122.017 244.922 122.548C245.453 123.079 245.875 123.709 246.163 124.403C246.451 125.097 246.599 125.841 246.599 126.593C246.599 127.344 246.451 128.088 246.163 128.782C245.875 129.476 245.453 130.106 244.922 130.637C244.39 131.168 243.759 131.589 243.064 131.876C242.37 132.163 241.626 132.31 240.874 132.309Z" fill="#B8E34B"/>
<path d="M182.071 191.103H133.884C133.133 191.104 132.389 190.957 131.694 190.67C131 190.383 130.368 189.962 129.837 189.431C129.305 188.9 128.883 188.27 128.596 187.576C128.308 186.882 128.16 186.138 128.16 185.387C128.16 184.635 128.308 183.892 128.596 183.198C128.883 182.504 129.305 181.873 129.837 181.342C130.368 180.811 131 180.39 131.694 180.104C132.389 179.817 133.133 179.67 133.884 179.671H182.071C183.586 179.673 185.038 180.276 186.108 181.348C187.179 182.419 187.78 183.872 187.78 185.387C187.78 186.901 187.179 188.354 186.108 189.426C185.038 190.498 183.586 191.101 182.071 191.103Z" fill="#B8E34B"/>
<path d="M303.762 249.897H133.884C132.368 249.897 130.914 249.295 129.841 248.223C128.769 247.151 128.167 245.697 128.167 244.181C128.167 242.665 128.769 241.211 129.841 240.139C130.914 239.067 132.368 238.465 133.884 238.465H303.762C305.278 238.465 306.732 239.067 307.804 240.139C308.877 241.211 309.479 242.665 309.479 244.181C309.479 245.697 308.877 247.151 307.804 248.223C306.732 249.295 305.278 249.897 303.762 249.897Z" fill="#B8E34B"/>
<path d="M266.193 308.691H133.884C133.133 308.692 132.389 308.545 131.694 308.258C131 307.971 130.368 307.55 129.837 307.019C129.305 306.489 128.883 305.858 128.596 305.164C128.308 304.47 128.16 303.726 128.16 302.975C128.16 302.224 128.308 301.48 128.596 300.786C128.883 300.092 129.305 299.461 129.837 298.93C130.368 298.399 131 297.979 131.694 297.692C132.389 297.405 133.133 297.258 133.884 297.259H266.193C266.944 297.258 267.689 297.405 268.383 297.692C269.078 297.979 269.709 298.399 270.24 298.93C270.772 299.461 271.194 300.092 271.482 300.786C271.769 301.48 271.918 302.224 271.918 302.975C271.918 303.726 271.769 304.47 271.482 305.164C271.194 305.858 270.772 306.489 270.24 307.019C269.709 307.55 269.078 307.971 268.383 308.258C267.689 308.545 266.944 308.692 266.193 308.691Z" fill="#B8E34B"/>
<path d="M875.711 555.846H0V557.818H875.711V555.846Z" fill="#3F3D56"/>
<path d="M498.985 267.114C498.985 267.114 492.787 221.666 482.456 234.061C472.125 246.455 482.456 265.048 482.456 265.048L490.72 275.377L498.985 269.179V267.114Z" fill="#9F616A"/>
<path d="M523.779 281.574C523.779 281.574 503.117 258.85 498.985 262.982C494.853 267.114 482.456 269.18 484.522 277.443C486.588 285.706 529.978 312.562 529.978 312.562L523.779 281.574Z" fill="#B8E34B"/>
<path opacity="0.1" d="M523.779 281.574C523.779 281.574 503.117 258.85 498.985 262.982C494.853 267.114 482.456 269.18 484.522 277.443C486.588 285.706 529.978 312.562 529.978 312.562L523.779 281.574Z" fill="black"/>
<path d="M641.551 279.509V296.035C641.551 296.035 643.617 333.22 631.22 331.154C618.823 329.088 625.021 298.101 625.021 298.101L627.087 279.509L641.551 279.509Z" fill="#9F616A"/>
<path d="M635.352 399.326C635.352 399.326 653.947 428.248 660.146 430.313C666.344 432.379 699.403 450.972 703.535 469.564L732.461 506.749L717.998 525.341C717.998 525.341 651.881 455.103 633.286 448.906C614.69 442.708 596.095 411.721 596.095 411.721L635.352 399.326Z" fill="#9F616A"/>
<path d="M488.655 351.812C488.655 351.812 449.397 358.01 455.596 382.8C461.794 407.589 521.713 459.235 521.713 459.235L523.779 471.63L546.507 475.761L556.838 465.432L554.772 459.235C554.772 459.235 529.978 436.511 527.912 428.248C525.845 419.984 503.118 386.931 492.787 384.865L507.25 376.602L488.655 351.812Z" fill="#9F616A"/>
<path d="M726.263 506.749C726.263 506.749 717.998 494.354 730.395 496.42C742.792 498.485 751.057 500.551 751.057 508.815C751.057 517.078 740.726 574.921 728.329 570.789C715.932 566.657 726.263 548.065 726.263 548.065C726.263 548.065 720.065 531.539 715.932 529.473C711.8 527.407 711.8 517.078 715.932 517.078C720.065 517.078 728.329 510.88 726.263 506.749Z" fill="#2F2E41"/>
<path d="M550.639 461.301C550.639 461.301 550.639 450.972 558.904 461.301C567.169 471.63 571.301 479.893 563.036 486.091C554.772 492.288 525.845 506.749 525.845 506.749C525.845 506.749 494.853 512.946 498.985 498.485C498.985 498.485 519.647 488.156 519.647 479.893C519.647 471.63 519.647 457.169 525.845 461.301C532.044 465.432 550.639 467.498 550.639 461.301Z" fill="#2F2E41"/>
<path d="M589.896 306.364C589.896 306.364 618.823 310.496 616.756 351.812C616.756 351.812 653.947 388.997 643.616 401.392C633.286 413.787 610.558 436.511 602.293 430.313C594.029 424.116 569.235 376.602 569.235 376.602C569.235 376.602 511.382 397.26 501.051 386.931C490.72 376.602 480.39 351.812 480.39 351.812L532.044 324.957L589.896 306.364Z" fill="#2F2E41"/>
<path d="M509.316 188.613C523.009 188.613 534.11 177.514 534.11 163.823C534.11 150.132 523.009 139.033 509.316 139.033C495.623 139.033 484.522 150.132 484.522 163.823C484.522 177.514 495.623 188.613 509.316 188.613Z" fill="#9F616A"/>
<path d="M527.912 165.889C527.912 165.889 542.375 188.613 546.507 190.678C550.639 192.744 517.581 213.402 517.581 213.402C517.581 213.402 517.581 186.547 507.25 180.349L527.912 165.889Z" fill="#9F616A"/>
<path d="M529.978 188.613C529.978 188.613 563.036 178.283 569.235 194.81C575.433 211.337 589.897 242.324 587.83 262.982C585.764 283.64 581.632 279.509 587.83 285.706C594.029 291.903 598.161 287.772 596.095 296.035C594.029 304.298 591.963 304.298 594.029 308.43C596.095 312.562 569.235 327.022 546.507 329.088L523.779 331.154C523.779 331.154 523.779 293.969 519.647 285.706C515.515 277.443 507.25 260.916 507.25 254.719V238.321C507.25 227.407 510.099 216.681 515.515 207.205C515.515 207.205 527.912 188.613 529.978 188.613Z" fill="#B8E34B"/>
<path d="M554.772 196.876C554.772 196.876 631.22 203.073 639.485 223.732C647.749 244.39 651.882 285.706 643.617 285.706C635.352 285.706 625.021 289.838 622.955 285.706C620.889 281.574 612.624 240.258 610.558 240.258C608.492 240.258 546.507 234.061 546.507 234.061C546.507 234.061 519.647 201.007 554.772 196.876Z" fill="#B8E34B"/>
<path d="M508.32 157.677C508.32 157.677 501.74 146.245 493.516 156.175C485.291 166.105 471.912 147.857 473.966 143.963C476.02 140.069 483.273 144.138 495.703 140.075C508.133 136.013 532.077 127.736 536.087 154.734C540.097 181.733 530.547 178.902 530.547 178.902C530.547 178.902 526.169 154.979 522.212 161.851L518.256 168.723L514.824 169.567L508.32 157.677Z" fill="#2F2E41"/>
</svg>
