<svg width="508" height="357" viewBox="0 0 508 357" fill="none" xmlns="http://www.w3.org/2000/svg">
<g clip-path="url(#clip0)">
<path d="M259.446 356.243C274.725 356.243 287.111 343.892 287.111 328.656C287.111 313.419 274.725 301.068 259.446 301.068C244.167 301.068 231.781 313.419 231.781 328.656C231.781 343.892 244.167 356.243 259.446 356.243Z" fill="#1FB4DB"/>
<path d="M424.719 354.693C440.196 350.058 456.65 345.225 468.924 334.206C479.893 324.359 487.298 309.323 482.754 294.556C478.219 279.82 464.637 269.993 450.613 265.106C442.659 262.334 434.338 260.796 426.02 259.588C416.978 258.275 407.896 257.199 398.818 256.164C362.061 251.971 325.165 249.41 288.132 248.481C269.858 248.022 251.588 248.033 233.311 248.297C216.989 248.534 199.799 248.528 184.657 241.61C172.883 236.23 162.196 226.443 158.915 213.582C155.128 198.736 162.113 183.617 172.134 172.865C177.416 167.197 183.589 162.427 189.958 158.041C196.866 153.282 204.016 148.861 211.32 144.734C225.707 136.609 240.748 129.694 256.286 124.062C263.952 121.282 271.731 118.884 279.577 116.672C286.203 114.804 292.85 112.934 299.253 110.388C311.632 105.468 323.407 97.1344 326.554 83.4714C329.537 70.5222 324.508 56.4649 315.69 46.8452C305.488 35.7159 290.106 30.8371 275.359 30.0478C258.803 29.1616 242.628 33.2935 227.067 38.5376C210.47 44.1307 194.231 50.5618 177.283 55.0922C160.477 59.5803 143.346 62.7558 126.045 64.59C117.576 65.4893 108.851 66.5048 100.331 65.8163C93.1907 65.2393 86.0869 63.1452 80.8246 58.0919C76.3125 53.7589 73.6246 47.804 74.5487 41.5197C74.7165 40.3783 76.4553 40.8636 76.2885 41.998C75.1636 49.6478 80.3781 56.6968 86.8037 60.3076C94.2301 64.4807 103.267 64.4864 111.535 64.0092C129.462 62.9294 147.269 60.3625 164.769 56.3352C181.965 52.4185 198.547 46.8195 215.11 40.8385C230.84 35.1581 246.922 29.614 263.728 28.3836C278.31 27.316 293.649 29.4345 306.353 37.0337C317.517 43.7124 325.727 54.8502 328.343 67.6311C330.9 80.1204 327.359 92.6911 317.879 101.407C308.063 110.43 294.603 114.288 282.06 117.842C266.152 122.348 250.584 127.616 235.516 134.456C220.242 141.37 205.593 149.582 191.732 159.002C178.353 168.119 165.15 179.591 160.918 195.857C158.947 203.433 159.311 211.469 162.609 218.625C165.542 224.989 170.371 230.341 175.997 234.47C189.421 244.32 206.34 246.342 222.556 246.544C240.767 246.77 258.979 246.157 277.197 246.455C314.324 247.062 351.375 249.316 388.35 253.215C397.615 254.193 406.868 255.274 416.11 256.458C424.422 257.523 432.762 258.582 440.935 260.473C455.467 263.837 469.607 270.304 478.639 282.59C482.647 287.916 485.131 294.227 485.824 300.85C486.456 307.761 484.759 314.685 481.626 320.834C474.69 334.442 461.699 343.098 447.903 348.784C440.513 351.83 432.848 354.137 425.198 356.428C424.084 356.762 423.608 355.026 424.719 354.693L424.719 354.693Z" fill="#F2F2F2"/>
<path d="M75.7137 56.0754C83.6854 56.0754 90.1477 49.6312 90.1477 41.6818C90.1477 33.7324 83.6854 27.2881 75.7137 27.2881C67.7421 27.2881 61.2798 33.7324 61.2798 41.6818C61.2798 49.6312 67.7421 56.0754 75.7137 56.0754Z" fill="#F2F2F2"/>
<path d="M175.849 83.3633C183.821 83.3633 190.283 76.919 190.283 68.9696C190.283 61.0202 183.821 54.5759 175.849 54.5759C167.878 54.5759 161.415 61.0202 161.415 68.9696C161.415 76.919 167.878 83.3633 175.849 83.3633Z" fill="#F2F2F2"/>
<path d="M260.649 28.7873C268.62 28.7873 275.083 22.3431 275.083 14.3937C275.083 6.44427 268.62 0 260.649 0C252.677 0 246.215 6.44427 246.215 14.3937C246.215 22.3431 252.677 28.7873 260.649 28.7873Z" fill="#F2F2F2"/>
<path d="M313.573 89.9604C321.545 89.9604 328.007 83.5162 328.007 75.5668C328.007 67.6174 321.545 61.1731 313.573 61.1731C305.601 61.1731 299.139 67.6174 299.139 75.5668C299.139 83.5162 305.601 89.9604 313.573 89.9604Z" fill="#F2F2F2"/>
<path d="M242.005 160.729C249.976 160.729 256.439 154.285 256.439 146.336C256.439 138.386 249.976 131.942 242.005 131.942C234.033 131.942 227.571 138.386 227.571 146.336C227.571 154.285 234.033 160.729 242.005 160.729Z" fill="#F2F2F2"/>
<path d="M151.191 194.914C159.163 194.914 165.625 188.47 165.625 180.521C165.625 172.571 159.163 166.127 151.191 166.127C143.22 166.127 136.757 172.571 136.757 180.521C136.757 188.47 143.22 194.914 151.191 194.914Z" fill="#F2F2F2"/>
<path d="M247.418 248.291C255.389 248.291 261.852 241.847 261.852 233.897C261.852 225.948 255.389 219.503 247.418 219.503C239.446 219.503 232.984 225.948 232.984 233.897C232.984 241.847 239.446 248.291 247.418 248.291Z" fill="#F2F2F2"/>
<path d="M350.861 278.278C358.833 278.278 365.295 271.833 365.295 263.884C365.295 255.934 358.833 249.49 350.861 249.49C342.889 249.49 336.427 255.934 336.427 263.884C336.427 271.833 342.889 278.278 350.861 278.278Z" fill="#F2F2F2"/>
<path d="M471.745 271.681C479.717 271.681 486.179 265.236 486.179 257.287C486.179 249.338 479.717 242.893 471.745 242.893C463.774 242.893 457.311 249.338 457.311 257.287C457.311 265.236 463.774 271.681 471.745 271.681Z" fill="#F2F2F2"/>
<path d="M256.482 40.7841C213.246 41.0886 177.844 76.1265 177.23 119.239C177.224 119.637 177.221 122.436 177.222 126.097C177.222 131.464 179.36 136.612 183.166 140.407C186.972 144.202 192.133 146.335 197.516 146.336H197.516C200.184 146.335 202.826 145.81 205.29 144.791C207.755 143.772 209.994 142.279 211.88 140.396C213.765 138.514 215.26 136.279 216.28 133.82C217.299 131.362 217.823 128.727 217.82 126.066C217.818 123.576 217.817 121.852 217.817 121.746C217.816 115.083 219.554 108.535 222.86 102.745C226.166 96.9546 230.927 92.1226 236.674 88.7239C242.421 85.3252 248.957 83.4769 255.637 83.3609C262.318 83.2449 268.914 84.8651 274.776 88.0621C280.639 91.2592 285.565 95.923 289.072 101.595C292.578 107.266 294.544 113.751 294.775 120.41C295.007 127.069 293.496 133.673 290.391 139.573C287.286 145.473 282.695 150.466 277.068 154.06L277.075 154.068C277.075 154.068 248.191 172.612 239.384 198.05L239.392 198.052C237.843 203.263 237.059 208.671 237.062 214.106C237.062 216.34 237.194 235.889 237.449 251.756C237.538 257.231 239.781 262.451 243.696 266.291C247.61 270.13 252.881 272.282 258.372 272.28H258.372C261.131 272.28 263.863 271.736 266.41 270.679C268.957 269.622 271.27 268.074 273.214 266.122C275.159 264.171 276.698 261.855 277.742 259.308C278.786 256.762 279.315 254.034 279.298 251.283C279.209 236.752 279.161 219.832 279.161 218.604C279.161 202.984 294.272 187.421 306.684 177.272C320.977 165.585 331.263 149.658 335.394 131.692C336.308 127.993 336.812 124.206 336.897 120.397C336.897 109.893 334.813 99.4936 330.764 89.7969C326.716 80.1001 320.784 71.298 313.309 63.8977C305.834 56.4974 296.965 50.6452 287.212 46.6783C277.459 42.7114 267.015 40.7082 256.482 40.7841V40.7841Z" fill="#1FB4DB"/>
<path d="M507.284 357H0.716221C0.52666 356.999 0.345055 356.924 0.211209 356.79C0.0773635 356.656 0.00219727 356.475 0.00219727 356.286C0.00219727 356.097 0.0773635 355.916 0.211209 355.782C0.345055 355.648 0.52666 355.572 0.716221 355.572H507.284C507.474 355.572 507.656 355.647 507.79 355.781C507.925 355.915 508 356.097 508 356.286C508 356.475 507.925 356.657 507.79 356.791C507.656 356.925 507.474 357 507.284 357V357Z" fill="#3F3D56"/>
<path d="M377.958 163.726C387.923 163.726 396.001 155.67 396.001 145.734C396.001 135.797 387.923 127.741 377.958 127.741C367.994 127.741 359.916 135.797 359.916 145.734C359.916 155.67 367.994 163.726 377.958 163.726Z" fill="#2F2E41"/>
<path d="M344.618 349.124H337.245L333.737 320.764H344.62L344.618 349.124Z" fill="#A0616A"/>
<path d="M331.978 347.023H346.198V355.951H323.025C323.025 354.779 323.256 353.618 323.706 352.534C324.156 351.451 324.816 350.467 325.647 349.638C326.479 348.809 327.466 348.151 328.552 347.703C329.638 347.254 330.802 347.023 331.978 347.023Z" fill="#2F2E41"/>
<path d="M401.752 349.124H394.379L390.871 320.764H401.754L401.752 349.124Z" fill="#A0616A"/>
<path d="M389.113 347.023H403.332V355.951H380.159C380.159 354.779 380.391 353.618 380.841 352.534C381.291 351.451 381.95 350.467 382.782 349.638C383.613 348.809 384.6 348.151 385.686 347.703C386.773 347.254 387.937 347.023 389.113 347.023V347.023Z" fill="#2F2E41"/>
<path d="M375.216 163.831C383.374 163.831 389.988 157.236 389.988 149.101C389.988 140.965 383.374 134.37 375.216 134.37C367.058 134.37 360.445 140.965 360.445 149.101C360.445 157.236 367.058 163.831 375.216 163.831Z" fill="#A0616A"/>
<path d="M384.021 211.351L390.63 196.207C392.235 192.655 392.695 188.693 391.947 184.869C391.198 181.045 389.278 177.546 386.45 174.857C385.87 174.284 385.253 173.749 384.604 173.255C381.343 170.711 377.324 169.325 373.183 169.315C370.399 169.326 367.65 169.936 365.124 171.102C364.908 171.198 364.697 171.3 364.481 171.402C364.066 171.6 363.657 171.816 363.26 172.038C360.671 173.52 358.467 175.589 356.827 178.077C355.187 180.564 354.156 183.402 353.817 186.36L350.901 210.733C350.167 212.646 323.993 281.736 333.147 334.483C333.244 335.046 333.52 335.563 333.933 335.959C334.347 336.355 334.876 336.609 335.444 336.684L344.724 337.943C345.402 338.035 346.089 337.868 346.648 337.476C347.208 337.083 347.597 336.493 347.737 335.826L363.308 261.813C363.405 261.353 363.654 260.938 364.015 260.636C364.375 260.334 364.828 260.161 365.298 260.145C365.769 260.129 366.232 260.271 366.613 260.549C366.993 260.826 367.27 261.222 367.397 261.675L389.397 339.508C389.554 340.074 389.892 340.573 390.361 340.928C390.829 341.283 391.401 341.476 391.989 341.475C392.165 341.474 392.34 341.458 392.513 341.427L403.849 339.25C404.508 339.128 405.097 338.764 405.501 338.23C405.905 337.696 406.095 337.031 406.032 336.366C404.367 317.84 395.514 225.043 384.021 211.351Z" fill="#2F2E41"/>
<path d="M317.811 161.359C317.709 162.235 317.8 163.122 318.078 163.959C318.357 164.796 318.816 165.561 319.424 166.202C320.031 166.842 320.772 167.342 321.594 167.667C322.417 167.991 323.3 168.131 324.183 168.078L332.439 187.865L338.685 178.632L329.887 161.258C329.699 159.785 328.976 158.433 327.855 157.456C326.734 156.48 325.292 155.947 323.804 155.96C322.315 155.972 320.883 156.529 319.779 157.524C318.674 158.519 317.974 159.883 317.811 161.359L317.811 161.359Z" fill="#A0616A"/>
<path d="M374.397 231.274C375.275 231.17 376.119 230.874 376.87 230.409C377.621 229.944 378.261 229.32 378.744 228.582C379.227 227.843 379.542 227.008 379.667 226.136C379.792 225.263 379.723 224.373 379.465 223.53L396.837 210.912L386.378 207.007L371.485 219.587C370.093 220.112 368.942 221.129 368.251 222.443C367.56 223.758 367.377 225.28 367.736 226.721C368.095 228.161 368.971 229.42 370.199 230.26C371.427 231.099 372.92 231.46 374.397 231.274V231.274Z" fill="#A0616A"/>
<path d="M346.078 201.056C345.412 201.056 344.747 200.99 344.094 200.861C342.514 200.561 341.032 199.878 339.779 198.873C338.526 197.867 337.54 196.569 336.909 195.094L325.341 181.028C325.096 180.731 324.918 180.385 324.819 180.013C324.719 179.642 324.7 179.253 324.764 178.874C324.827 178.495 324.971 178.133 325.186 177.814C325.4 177.494 325.681 177.224 326.009 177.022L334.239 171.942C334.543 171.754 334.881 171.628 335.234 171.572C335.587 171.515 335.947 171.529 336.295 171.612C336.642 171.695 336.97 171.846 337.259 172.056C337.547 172.266 337.791 172.531 337.977 172.835L346.13 186.23L361.744 174.723C362.987 174.073 364.423 173.891 365.79 174.209C367.157 174.528 368.363 175.327 369.188 176.459C370.013 177.591 370.402 178.982 370.284 180.377C370.166 181.771 369.549 183.077 368.545 184.056L352.962 198.232C351.13 200.042 348.656 201.057 346.078 201.056Z" fill="#2F2E41"/>
<path d="M388.267 222.21C388.246 222.21 388.225 222.21 388.203 222.21C387.824 222.201 387.451 222.112 387.108 221.95C386.765 221.787 386.46 221.555 386.212 221.268L378.895 212.756C378.646 212.466 378.461 212.126 378.353 211.76C378.245 211.394 378.217 211.009 378.269 210.631C378.321 210.252 378.454 209.889 378.657 209.566C378.86 209.242 379.13 208.966 379.449 208.754L393.15 199.645L380.738 184.764C380.016 183.564 379.751 182.145 379.991 180.766C380.232 179.387 380.962 178.14 382.049 177.253C383.135 176.367 384.505 175.9 385.908 175.937C387.311 175.975 388.654 176.515 389.691 177.458L404.777 192.159C405.964 193.241 406.87 194.593 407.418 196.101C407.966 197.609 408.138 199.227 407.921 200.816C407.703 202.405 407.103 203.917 406.17 205.224C405.237 206.53 404.001 207.591 402.566 208.316L390.237 221.363C389.983 221.63 389.678 221.843 389.339 221.989C389.001 222.135 388.636 222.21 388.267 222.21Z" fill="#2F2E41"/>
<path d="M371.46 190.845C371.343 190.845 371.226 190.837 371.109 190.822C370.6 190.761 370.119 190.554 369.723 190.228C369.328 189.902 369.034 189.469 368.878 188.982L363.379 172.172C363.242 171.747 363.263 171.286 363.439 170.876C363.615 170.465 363.935 170.132 364.338 169.938L364.516 169.854C364.678 169.777 364.838 169.701 365.002 169.629C367.566 168.443 370.357 167.824 373.183 167.816C376.852 167.822 380.439 168.897 383.504 170.908C383.915 171.181 384.202 171.604 384.304 172.086C384.405 172.567 384.313 173.069 384.046 173.484L373.732 189.597C373.49 189.98 373.155 190.295 372.758 190.513C372.36 190.731 371.914 190.845 371.46 190.845V190.845Z" fill="#E6E6E6"/>
<path d="M392.183 137.701C395.444 137.701 398.087 135.065 398.087 131.814C398.087 128.562 395.444 125.926 392.183 125.926C388.922 125.926 386.279 128.562 386.279 131.814C386.279 135.065 388.922 137.701 392.183 137.701Z" fill="#2F2E41"/>
<path d="M371.944 125.343C367.797 125.343 363.82 126.985 360.887 129.91C357.955 132.834 356.307 136.8 356.307 140.936V147.533H364.444L368.336 140.936L369.503 147.533H394.197L387.581 140.936C387.581 136.8 385.933 132.834 383.001 129.91C380.069 126.985 376.091 125.343 371.944 125.343V125.343Z" fill="#2F2E41"/>
<path d="M395.218 127.781C395.87 125.745 397.222 124.004 399.035 122.864C400.848 121.724 403.006 121.257 405.129 121.547C408.892 122.174 411.867 125.19 413.639 128.558C415.411 131.927 416.23 135.696 417.422 139.31C418.613 142.924 420.303 146.557 423.311 148.896C426.319 151.236 430.935 151.87 433.89 149.464C433.552 151.972 432.433 154.31 430.689 156.149C428.946 157.987 426.667 159.233 424.175 159.709C421.683 160.185 419.104 159.868 416.802 158.802C414.501 157.737 412.594 155.976 411.351 153.771C409.792 151.005 409.389 147.763 408.927 144.624C408.465 141.485 407.864 138.237 406.003 135.664C404.142 133.09 400.658 131.41 397.701 132.582L395.218 127.781Z" fill="#2F2E41"/>
<path d="M203.246 136.763C197.864 136.762 192.702 134.63 188.896 130.834C185.09 127.039 182.952 121.892 182.952 116.524C182.951 112.864 182.954 110.065 182.96 109.667C183.131 97.1283 186.297 84.8112 192.197 73.7373C182.504 86.9692 177.174 102.878 176.945 119.263C176.94 119.661 176.937 122.459 176.938 126.12C176.938 131.487 179.076 136.635 182.882 140.43C186.688 144.226 191.849 146.358 197.232 146.359V146.359C201.655 146.357 205.956 144.916 209.482 142.254C213.009 139.592 215.568 135.855 216.77 131.611C213.054 134.934 208.237 136.769 203.246 136.763V136.763Z" fill="#3F3D56"/>
<path d="M257.858 83.429C264.08 83.7253 270.138 85.5232 275.51 88.6682C280.882 91.8132 285.408 96.2114 288.7 101.485C291.992 106.759 293.952 112.751 294.41 118.946C294.869 125.141 293.812 131.355 291.332 137.053C294.92 132.852 297.556 127.928 299.063 122.619C300.569 117.309 300.91 111.738 300.061 106.285C299.213 100.832 297.195 95.6261 294.146 91.0213C291.097 86.4166 287.088 82.5216 282.392 79.6019C277.697 76.6822 272.425 74.8065 266.937 74.1026C261.449 73.3987 255.873 73.8832 250.589 75.5231C245.306 77.163 240.439 79.9197 236.321 83.6052C232.202 87.2907 228.929 91.8185 226.725 96.8797C230.535 92.4101 235.324 88.8728 240.722 86.5407C246.119 84.2086 251.982 83.144 257.858 83.429V83.429Z" fill="#3F3D56"/>
<path d="M264.102 262.707C258.611 262.709 253.34 260.557 249.426 256.718C245.512 252.878 243.268 247.658 243.179 242.183C242.924 226.316 242.792 206.767 242.792 204.533C242.789 199.098 243.573 193.691 245.122 188.479L245.114 188.478C246.029 185.862 247.133 183.316 248.419 180.86C244.472 186.105 241.332 191.906 239.1 198.073L239.108 198.075C237.559 203.286 236.775 208.694 236.778 214.129C236.778 216.363 236.91 235.912 237.165 251.779C237.254 257.253 239.497 262.474 243.412 266.313C247.326 270.153 252.597 272.304 258.088 272.303V272.303C262.615 272.302 267.02 270.838 270.642 268.129C274.264 265.421 276.907 261.614 278.176 257.281C274.329 260.779 269.308 262.715 264.102 262.707V262.707Z" fill="#3F3D56"/>
<path d="M76.1036 349.398L83.4763 349.397L86.9844 321.037L76.1018 321.037L76.1036 349.398Z" fill="#FFB8B8"/>
<path d="M97.6965 356.224L74.5236 356.225L74.5232 347.297L88.743 347.296C91.1175 347.296 93.3948 348.237 95.0739 349.911C96.753 351.585 97.6964 353.856 97.6965 356.224V356.224L97.6965 356.224Z" fill="#2F2E41"/>
<path d="M49.6415 349.398L57.0142 349.397L60.5222 321.037L49.6396 321.037L49.6415 349.398Z" fill="#FFB8B8"/>
<path d="M71.2344 356.224L48.0615 356.225L48.061 347.297L62.2808 347.296C64.6553 347.296 66.9326 348.237 68.6118 349.911C70.2909 351.585 71.2343 353.856 71.2344 356.224V356.224L71.2344 356.224Z" fill="#2F2E41"/>
<path d="M56.0846 340.675L48.8826 340.298C48.5113 340.278 48.1475 340.185 47.8123 340.025C47.4772 339.864 47.1773 339.639 46.9302 339.361C46.683 339.084 46.4934 338.761 46.3724 338.41C46.2514 338.06 46.2014 337.689 46.2253 337.319L54.8331 242.281L94.473 252.947L98.2921 251.908L86.349 336.042C86.2473 336.675 85.9321 337.255 85.4555 337.685C84.979 338.115 84.3696 338.37 83.7279 338.408L75.9643 338.769C75.5761 338.79 75.1877 338.731 74.8235 338.595C74.4594 338.46 74.1275 338.25 73.8487 337.98C73.57 337.709 73.3505 337.384 73.2042 337.025C73.0578 336.666 72.9878 336.28 72.9985 335.893L74.4052 285.397C74.4118 285.164 74.3304 284.936 74.1771 284.759C74.0239 284.583 73.8098 284.47 73.5772 284.443C73.3445 284.416 73.1101 284.476 72.9201 284.613C72.7302 284.75 72.5985 284.952 72.5509 285.181L58.9848 338.445C58.8568 339.077 58.5129 339.645 58.0118 340.053C57.5107 340.46 56.8834 340.682 56.2369 340.68C56.1864 340.68 56.1357 340.678 56.0846 340.675Z" fill="#2F2E41"/>
<path d="M77.4274 164.52C85.5854 164.52 92.1987 157.925 92.1987 149.789C92.1987 141.654 85.5854 135.059 77.4274 135.059C69.2694 135.059 62.656 141.654 62.656 149.789C62.656 157.925 69.2694 164.52 77.4274 164.52Z" fill="#FFB8B8"/>
<path d="M52.834 193.066L54.4582 228.011L55.0453 240.724C55.0687 241.278 55.2571 241.812 55.5865 242.258C55.9159 242.704 56.3712 243.042 56.8942 243.229L94.9854 256.989C95.2931 257.103 95.6191 257.16 95.9474 257.157C96.3226 257.159 96.6943 257.085 97.0403 256.94C97.3864 256.796 97.6996 256.583 97.9614 256.315C98.2232 256.047 98.4282 255.729 98.564 255.38C98.6999 255.032 98.7639 254.659 98.7522 254.285L97.1906 191.452C97.088 186.297 95.1851 181.34 91.8098 177.434C88.4346 173.528 83.7985 170.918 78.7009 170.056C78.3324 170 77.9576 169.943 77.5827 169.894C74.4218 169.502 71.2132 169.807 68.1828 170.785C65.1525 171.763 62.3738 173.392 60.0425 175.556C57.6284 177.77 55.7315 180.486 54.4859 183.512C53.2403 186.537 52.6764 189.799 52.834 193.066L52.834 193.066Z" fill="#CCCCCC"/>
<path d="M113.181 250.016C112.281 249.737 111.457 249.252 110.778 248.6C110.098 247.947 109.581 247.146 109.267 246.258C108.954 245.371 108.852 244.423 108.971 243.49C109.09 242.557 109.426 241.664 109.953 240.884L97.0354 223.755L108.182 223.067L118.74 239.438C119.87 240.31 120.656 241.55 120.961 242.942C121.266 244.334 121.07 245.788 120.406 247.05C119.743 248.312 118.656 249.301 117.335 249.843C116.014 250.385 114.543 250.447 113.181 250.016H113.181Z" fill="#FFB8B8"/>
<path d="M104.099 237.784C103.757 237.646 103.446 237.441 103.184 237.182C102.921 236.922 102.713 236.614 102.571 236.274L83.1105 190.037C82.7287 189.132 82.5295 188.161 82.5243 187.179C82.5191 186.197 82.708 185.223 83.0803 184.314C83.4525 183.405 84.0008 182.578 84.6938 181.88C85.3868 181.182 86.2108 180.627 87.1189 180.247C88.027 179.867 89.0013 179.669 89.9862 179.665C90.971 179.66 91.947 179.849 92.8585 180.221C93.77 180.593 94.599 181.141 95.2983 181.832C95.9975 182.524 96.5532 183.346 96.9337 184.252L116.394 230.489C116.682 231.174 116.685 231.946 116.403 232.633C116.121 233.321 115.577 233.87 114.891 234.158L106.251 237.774C105.911 237.917 105.546 237.992 105.176 237.994C104.807 237.996 104.441 237.924 104.099 237.784L104.099 237.784Z" fill="#CCCCCC"/>
<path d="M72.6782 236.153L91.3697 200.464C91.7302 199.777 92.3489 199.262 93.0902 199.03C93.8316 198.798 94.6349 198.868 95.324 199.226L122.455 213.356C123.143 213.715 123.66 214.332 123.893 215.072C124.126 215.811 124.055 216.612 123.696 217.299L105.004 252.989C104.644 253.675 104.025 254.191 103.284 254.423C102.542 254.655 101.739 254.584 101.05 254.226L73.9192 240.096C73.2309 239.737 72.7137 239.12 72.4811 238.381C72.2484 237.642 72.3193 236.84 72.6782 236.153Z" fill="#3F3D56"/>
<path d="M85.2134 219.847C84.8811 218.967 84.3471 218.176 83.6539 217.538C82.9607 216.9 82.1276 216.433 81.221 216.173C80.3144 215.913 79.3595 215.868 78.4324 216.042C77.5052 216.215 76.6316 216.602 75.8813 217.172L57.9721 205.325L57.9417 216.462L74.9532 226.005C75.8922 227.079 77.1804 227.788 78.5917 228.01C80.003 228.231 81.4474 227.949 82.6715 227.215C83.8955 226.48 84.8212 225.339 85.286 223.992C85.7508 222.645 85.7251 221.178 85.2134 219.847V219.847Z" fill="#FFB8B8"/>
<path d="M62.57 222.352L47.9335 210.79C46.3501 210.26 44.9194 209.355 43.7642 208.152C42.6089 206.949 41.7637 205.484 41.301 203.884C40.8383 202.283 40.7719 200.595 41.1076 198.963C41.4433 197.332 42.1711 195.806 43.2284 194.516L56.5179 177.148C57.4414 176.023 58.7402 175.267 60.1769 175.017C61.6136 174.768 63.0922 175.043 64.3424 175.792C65.5926 176.54 66.5309 177.712 66.9858 179.094C67.4407 180.476 67.3818 181.974 66.8199 183.316L56.3049 200.469L71.7576 207.778C72.117 207.947 72.436 208.192 72.6938 208.494C72.9515 208.796 73.1421 209.149 73.2528 209.53C73.3635 209.911 73.392 210.311 73.3362 210.703C73.2804 211.096 73.1417 211.472 72.9293 211.808L66.6916 221.652C66.4807 221.984 66.2022 222.268 65.8741 222.486C65.546 222.704 65.1757 222.851 64.787 222.918C64.7716 222.92 64.7561 222.923 64.7406 222.925C64.3587 222.983 63.969 222.961 63.5957 222.863C63.2223 222.764 62.8732 222.59 62.57 222.352V222.352Z" fill="#CCCCCC"/>
<path d="M66.2656 159.653C66.2022 159.468 66.1821 159.271 66.2068 159.077C66.2316 158.883 66.3004 158.698 66.4082 158.535C66.516 158.371 66.6598 158.235 66.8286 158.136C66.9974 158.037 67.1867 157.977 67.3821 157.962C67.7821 157.984 68.1736 158.086 68.533 158.263C68.8923 158.44 69.2119 158.687 69.4726 158.991C70.0072 159.605 70.6296 160.138 71.3197 160.572C72.0342 160.932 73.0033 160.88 73.4107 160.196C73.7932 159.553 73.5311 158.691 73.2995 157.944C72.7103 156.044 72.3805 154.073 72.3193 152.085C72.2526 149.866 72.5666 147.55 73.7986 145.819C75.3887 143.585 78.2319 142.737 80.9226 142.799C83.6134 142.86 86.2605 143.688 88.9257 144.212C89.8458 144.393 90.9274 144.485 91.5428 143.774C92.1972 143.018 91.9568 141.794 91.6785 140.773C90.9562 138.124 90.19 135.385 88.5119 133.245C86.6974 131.022 84.1056 129.567 81.2583 129.173C78.5248 128.835 75.75 129.149 73.1619 130.089C68.9453 131.415 65.235 133.992 62.5272 137.477C59.7358 141.183 58.5297 145.841 59.1724 150.432C59.8004 154.43 61.925 158.042 65.1179 160.54L66.2656 159.653Z" fill="#2F2E41"/>
<path d="M253.351 349.514C249.421 347.807 245.942 345.213 243.19 341.936C240.438 338.659 238.487 334.789 237.491 330.631C236.496 326.474 236.483 322.142 237.453 317.978C238.424 313.815 240.352 309.933 243.084 306.64C239.916 308.947 237.276 311.899 235.339 315.301C233.403 318.703 232.214 322.477 231.852 326.373C231.49 330.268 231.962 334.195 233.239 337.895C234.515 341.594 236.566 344.98 239.255 347.828C241.944 350.677 245.209 352.922 248.835 354.416C252.461 355.91 256.364 356.617 260.285 356.491C264.206 356.366 268.055 355.41 271.577 353.688C275.1 351.965 278.214 349.515 280.714 346.501C276.815 349.343 272.236 351.117 267.435 351.646C262.634 352.174 257.778 351.44 253.351 349.514V349.514Z" fill="#3F3D56"/>
</g>
<defs>
<clipPath id="clip0">
<rect width="508" height="357" fill="white"/>
</clipPath>
</defs>
</svg>
