<svg width="505" height="355" viewBox="0 0 505 355" fill="none" xmlns="http://www.w3.org/2000/svg">
<g clip-path="url(#clip0)">
<path d="M257.914 354.248C273.103 354.248 285.415 341.965 285.415 326.814C285.415 311.663 273.103 299.381 257.914 299.381C242.725 299.381 230.412 311.663 230.412 326.814C230.412 341.965 242.725 354.248 257.914 354.248Z" fill="#B8E34B"/>
<path d="M422.21 352.706C437.596 348.097 453.953 343.291 466.155 332.334C477.059 322.542 484.42 307.59 479.903 292.906C475.395 278.252 461.893 268.481 447.952 263.621C440.045 260.865 431.773 259.335 423.505 258.134C414.516 256.828 405.487 255.758 396.463 254.729C359.923 250.56 323.245 248.013 286.43 247.089C268.264 246.632 250.102 246.643 231.933 246.906C215.708 247.141 198.619 247.135 183.567 240.256C171.862 234.907 161.238 225.175 157.976 212.386C154.212 197.622 161.156 182.588 171.117 171.896C176.368 166.261 182.505 161.517 188.836 157.155C195.704 152.424 202.811 148.027 210.072 143.923C224.374 135.844 239.326 128.968 254.773 123.367C262.393 120.603 270.126 118.218 277.926 116.019C284.513 114.161 291.12 112.301 297.486 109.77C309.792 104.878 321.497 96.5902 324.626 83.0038C327.591 70.1272 322.591 56.1486 313.825 46.5828C303.684 35.5158 288.393 30.6644 273.733 29.8794C257.274 28.9982 241.195 33.107 225.726 38.3217C209.227 43.8835 193.084 50.2785 176.236 54.7836C159.529 59.2465 142.499 62.4042 125.301 64.2281C116.882 65.1224 108.208 66.1322 99.7384 65.4476C92.6403 64.8738 85.5785 62.7914 80.3473 57.7664C75.8618 53.4578 73.1898 47.5362 74.1084 41.2871C74.2753 40.1521 76.0038 40.6347 75.8379 41.7628C74.7197 49.3696 79.9033 56.3791 86.2911 59.9697C93.6736 64.1195 102.657 64.1252 110.876 63.6506C128.698 62.5769 146.399 60.0244 163.796 56.0196C180.89 52.1249 197.374 46.5572 213.839 40.6097C229.477 34.9611 245.464 29.4481 262.171 28.2246C276.666 27.163 291.915 29.2696 304.544 36.8262C315.642 43.4675 323.804 54.5429 326.404 67.2522C328.945 79.6716 325.426 92.1718 316.001 100.838C306.243 109.812 292.864 113.648 280.395 117.181C264.58 121.663 249.104 126.901 234.125 133.703C218.941 140.578 204.379 148.744 190.6 158.111C177.3 167.178 164.174 178.585 159.968 194.759C158.008 202.294 158.37 210.284 161.649 217.401C164.564 223.728 169.365 229.051 174.958 233.156C188.303 242.951 205.122 244.962 221.241 245.162C239.345 245.387 257.45 244.778 275.56 245.074C312.468 245.678 349.3 247.919 386.056 251.797C395.267 252.769 404.465 253.844 413.652 255.022C421.916 256.081 430.207 257.133 438.331 259.014C452.777 262.359 466.833 268.79 475.812 281.007C479.797 286.303 482.266 292.579 482.955 299.164C483.583 306.037 481.897 312.922 478.782 319.036C471.887 332.568 458.972 341.175 445.257 346.83C437.912 349.859 430.292 352.153 422.687 354.432C421.579 354.764 421.106 353.037 422.21 352.706L422.21 352.706Z" fill="#F2F2F2"/>
<path d="M75.2667 55.7612C83.1913 55.7612 89.6154 49.353 89.6154 41.4482C89.6154 33.5433 83.1913 27.1351 75.2667 27.1351C67.3421 27.1351 60.918 33.5433 60.918 41.4482C60.918 49.353 67.3421 55.7612 75.2667 55.7612Z" fill="#F2F2F2"/>
<path d="M174.811 82.8963C182.735 82.8963 189.16 76.4882 189.16 68.5833C189.16 60.6784 182.735 54.2703 174.811 54.2703C166.886 54.2703 160.462 60.6784 160.462 68.5833C160.462 76.4882 166.886 82.8963 174.811 82.8963Z" fill="#F2F2F2"/>
<path d="M259.109 28.6261C267.034 28.6261 273.458 22.2179 273.458 14.313C273.458 6.40816 267.034 0 259.109 0C251.185 0 244.761 6.40816 244.761 14.313C244.761 22.2179 251.185 28.6261 259.109 28.6261Z" fill="#F2F2F2"/>
<path d="M311.721 89.4565C319.646 89.4565 326.07 83.0483 326.07 75.1434C326.07 67.2386 319.646 60.8304 311.721 60.8304C303.797 60.8304 297.373 67.2386 297.373 75.1434C297.373 83.0483 303.797 89.4565 311.721 89.4565Z" fill="#F2F2F2"/>
<path d="M240.576 159.829C248.5 159.829 254.924 153.421 254.924 145.516C254.924 137.611 248.5 131.203 240.576 131.203C232.651 131.203 226.227 137.611 226.227 145.516C226.227 153.421 232.651 159.829 240.576 159.829Z" fill="#F2F2F2"/>
<path d="M150.298 193.822C158.223 193.822 164.647 187.414 164.647 179.509C164.647 171.604 158.223 165.196 150.298 165.196C142.374 165.196 135.95 171.604 135.95 179.509C135.95 187.414 142.374 193.822 150.298 193.822Z" fill="#F2F2F2"/>
<path d="M245.956 246.9C253.881 246.9 260.305 240.492 260.305 232.587C260.305 224.682 253.881 218.274 245.956 218.274C238.032 218.274 231.608 224.682 231.608 232.587C231.608 240.492 238.032 246.9 245.956 246.9Z" fill="#F2F2F2"/>
<path d="M348.789 276.719C356.713 276.719 363.138 270.311 363.138 262.406C363.138 254.501 356.713 248.093 348.789 248.093C340.864 248.093 334.44 254.501 334.44 262.406C334.44 270.311 340.864 276.719 348.789 276.719Z" fill="#F2F2F2"/>
<path d="M468.959 270.159C476.884 270.159 483.308 263.75 483.308 255.846C483.308 247.941 476.884 241.532 468.959 241.532C461.035 241.532 454.611 247.941 454.611 255.846C454.611 263.75 461.035 270.159 468.959 270.159Z" fill="#F2F2F2"/>
<path d="M254.968 40.5556C211.986 40.8585 176.794 75.7 176.183 118.571C176.177 118.967 176.175 121.75 176.175 125.391C176.175 130.728 178.301 135.846 182.084 139.621C185.868 143.395 190.999 145.515 196.349 145.516H196.349C199.002 145.515 201.628 144.993 204.078 143.98C206.528 142.967 208.754 141.481 210.628 139.61C212.503 137.738 213.989 135.516 215.003 133.071C216.016 130.626 216.536 128.005 216.534 125.36C216.532 122.883 216.531 121.17 216.531 121.064C216.529 114.439 218.257 107.927 221.544 102.169C224.831 96.4115 229.563 91.6065 235.277 88.2269C240.99 84.8472 247.486 83.0093 254.128 82.8939C260.769 82.7786 267.326 84.3897 273.154 87.5689C278.981 90.748 283.879 95.3857 287.365 101.026C290.851 106.666 292.805 113.114 293.035 119.735C293.264 126.357 291.762 132.925 288.676 138.792C285.59 144.659 281.025 149.623 275.432 153.197L275.439 153.205C275.439 153.205 246.725 171.645 237.971 196.941L237.978 196.943C236.439 202.125 235.659 207.502 235.662 212.906C235.662 215.128 235.793 234.568 236.046 250.345C236.135 255.789 238.365 260.981 242.257 264.799C246.148 268.617 251.388 270.756 256.846 270.755H256.846C259.589 270.755 262.304 270.214 264.837 269.163C267.369 268.112 269.668 266.572 271.601 264.631C273.534 262.691 275.064 260.388 276.102 257.856C277.139 255.323 277.665 252.611 277.648 249.875C277.56 235.426 277.513 218.6 277.513 217.379C277.513 201.847 292.534 186.371 304.873 176.278C319.082 164.657 329.306 148.82 333.413 130.954C334.322 127.276 334.823 123.51 334.907 119.723C334.907 109.278 332.835 98.9363 328.811 89.2939C324.787 79.6514 318.889 70.8986 311.458 63.5398C304.028 56.181 295.211 50.3616 285.516 46.4169C275.82 42.4722 265.438 40.4802 254.968 40.5556V40.5556Z" fill="#B8E34B"/>
<path d="M504.288 355H0.71176C0.523319 354.999 0.342786 354.924 0.209731 354.791C0.0766754 354.658 0.00195312 354.478 0.00195312 354.29C0.00195312 354.102 0.0766754 353.922 0.209731 353.789C0.342786 353.655 0.523319 353.58 0.71176 353.58H504.288C504.477 353.58 504.658 353.655 504.791 353.788C504.925 353.921 505 354.102 505 354.29C505 354.478 504.925 354.659 504.791 354.792C504.658 354.925 504.477 355 504.288 355V355Z" fill="#3F3D56"/>
<path d="M375.726 162.808C385.632 162.808 393.662 154.798 393.662 144.917C393.662 135.036 385.632 127.026 375.726 127.026C365.82 127.026 357.79 135.036 357.79 144.917C357.79 154.798 365.82 162.808 375.726 162.808Z" fill="#2F2E41"/>
<path d="M342.583 347.168H335.253L331.766 318.967H342.584L342.583 347.168Z" fill="#A0616A"/>
<path d="M330.018 345.079H344.153V353.957H321.117C321.117 352.791 321.348 351.637 321.795 350.559C322.242 349.482 322.898 348.504 323.724 347.679C324.551 346.855 325.532 346.201 326.612 345.755C327.691 345.308 328.849 345.079 330.018 345.079Z" fill="#2F2E41"/>
<path d="M399.38 347.168H392.05L388.563 318.967H399.381L399.38 347.168Z" fill="#A0616A"/>
<path d="M386.815 345.079H400.95V353.957H377.914C377.914 352.791 378.145 351.637 378.592 350.559C379.039 349.482 379.695 348.504 380.521 347.679C381.348 346.855 382.329 346.201 383.409 345.755C384.488 345.308 385.646 345.079 386.815 345.079V345.079Z" fill="#2F2E41"/>
<path d="M373.001 162.913C381.11 162.913 387.685 156.355 387.685 148.265C387.685 140.176 381.11 133.618 373.001 133.618C364.891 133.618 358.316 140.176 358.316 148.265C358.316 156.355 364.891 162.913 373.001 162.913Z" fill="#A0616A"/>
<path d="M381.753 210.167L388.323 195.108C389.919 191.576 390.376 187.636 389.632 183.833C388.888 180.03 386.979 176.552 384.168 173.877C383.591 173.308 382.978 172.776 382.332 172.285C379.091 169.755 375.095 168.376 370.979 168.367C368.212 168.377 365.479 168.983 362.968 170.144C362.752 170.239 362.543 170.341 362.328 170.442C361.915 170.639 361.509 170.853 361.114 171.074C358.541 172.548 356.35 174.605 354.72 177.079C353.089 179.553 352.064 182.374 351.728 185.316L348.828 209.552C348.099 211.455 322.08 280.157 331.18 332.609C331.276 333.169 331.55 333.683 331.961 334.077C332.372 334.471 332.898 334.723 333.463 334.797L342.688 336.05C343.362 336.142 344.045 335.976 344.601 335.585C345.157 335.194 345.544 334.608 345.684 333.944L361.162 260.346C361.259 259.888 361.506 259.477 361.865 259.176C362.224 258.875 362.673 258.704 363.141 258.688C363.609 258.672 364.069 258.813 364.448 259.089C364.826 259.365 365.1 259.759 365.228 260.209L387.098 337.606C387.253 338.169 387.59 338.664 388.055 339.018C388.521 339.371 389.089 339.562 389.674 339.562C389.849 339.561 390.023 339.545 390.195 339.515L401.464 337.35C402.119 337.228 402.705 336.866 403.107 336.335C403.508 335.804 403.696 335.143 403.635 334.481C401.978 316.059 393.178 223.782 381.753 210.167Z" fill="#2F2E41"/>
<path d="M315.934 160.455C315.832 161.326 315.923 162.208 316.2 163.04C316.477 163.872 316.934 164.634 317.538 165.271C318.141 165.908 318.878 166.405 319.695 166.727C320.513 167.05 321.391 167.189 322.268 167.136L330.476 186.812L336.685 177.632L327.939 160.354C327.752 158.89 327.033 157.545 325.919 156.574C324.804 155.603 323.371 155.074 321.892 155.086C320.412 155.098 318.988 155.652 317.89 156.641C316.792 157.631 316.096 158.988 315.934 160.455L315.934 160.455Z" fill="#A0616A"/>
<path d="M372.186 229.978C373.059 229.874 373.898 229.581 374.645 229.118C375.391 228.656 376.027 228.035 376.508 227.301C376.988 226.567 377.301 225.737 377.425 224.869C377.549 224.001 377.48 223.116 377.224 222.277L394.494 209.731L384.097 205.847L369.291 218.357C367.907 218.879 366.763 219.89 366.076 221.197C365.389 222.505 365.207 224.018 365.564 225.45C365.921 226.883 366.792 228.135 368.013 228.97C369.233 229.804 370.718 230.163 372.186 229.978V229.978Z" fill="#A0616A"/>
<path d="M344.034 199.93C343.372 199.929 342.711 199.864 342.062 199.736C340.491 199.438 339.018 198.759 337.772 197.758C336.527 196.758 335.547 195.468 334.919 194.001L323.419 180.014C323.176 179.718 322.999 179.374 322.9 179.005C322.802 178.635 322.783 178.249 322.846 177.872C322.909 177.495 323.052 177.135 323.265 176.817C323.479 176.5 323.758 176.231 324.084 176.03L332.265 170.978C332.567 170.792 332.903 170.667 333.254 170.61C333.605 170.554 333.963 170.568 334.309 170.65C334.654 170.733 334.98 170.883 335.267 171.092C335.554 171.301 335.797 171.564 335.981 171.867L344.086 185.186L359.607 173.744C360.843 173.098 362.271 172.916 363.63 173.233C364.988 173.55 366.187 174.344 367.008 175.47C367.828 176.596 368.215 177.979 368.098 179.366C367.98 180.753 367.367 182.052 366.369 183.025L350.877 197.121C349.057 198.921 346.597 199.931 344.034 199.93Z" fill="#2F2E41"/>
<path d="M385.974 220.965C385.953 220.965 385.932 220.966 385.911 220.965C385.534 220.956 385.163 220.868 384.822 220.706C384.481 220.545 384.177 220.314 383.932 220.028L376.658 211.564C376.41 211.276 376.226 210.938 376.119 210.574C376.012 210.21 375.983 209.827 376.035 209.451C376.087 209.074 376.219 208.714 376.421 208.392C376.623 208.07 376.891 207.795 377.208 207.584L390.828 198.527L378.489 183.729C377.772 182.536 377.508 181.124 377.748 179.753C377.987 178.382 378.713 177.142 379.793 176.26C380.873 175.379 382.234 174.914 383.629 174.952C385.024 174.989 386.359 175.526 387.39 176.464L402.386 191.083C403.567 192.158 404.468 193.503 405.012 195.003C405.556 196.502 405.728 198.111 405.512 199.691C405.296 201.271 404.699 202.775 403.771 204.074C402.844 205.373 401.615 206.428 400.189 207.149L387.932 220.123C387.68 220.389 387.377 220.601 387.04 220.746C386.704 220.89 386.341 220.965 385.974 220.965Z" fill="#2F2E41"/>
<path d="M369.267 189.776C369.15 189.776 369.034 189.768 368.918 189.753C368.411 189.692 367.933 189.487 367.54 189.163C367.147 188.838 366.855 188.408 366.699 187.923L361.234 171.207C361.097 170.785 361.118 170.327 361.293 169.918C361.468 169.51 361.786 169.179 362.187 168.986L362.364 168.902C362.525 168.826 362.684 168.751 362.847 168.678C365.395 167.499 368.17 166.884 370.979 166.876C374.627 166.882 378.193 167.951 381.239 169.951C381.648 170.222 381.933 170.643 382.034 171.122C382.135 171.601 382.043 172.1 381.778 172.512L371.525 188.535C371.285 188.916 370.951 189.229 370.556 189.446C370.161 189.663 369.718 189.776 369.267 189.776V189.776Z" fill="#E6E6E6"/>
<path d="M389.867 136.93C393.108 136.93 395.736 134.309 395.736 131.075C395.736 127.842 393.108 125.221 389.867 125.221C386.626 125.221 383.998 127.842 383.998 131.075C383.998 134.309 386.626 136.93 389.867 136.93Z" fill="#2F2E41"/>
<path d="M369.748 124.64C365.625 124.64 361.671 126.274 358.756 129.182C355.841 132.09 354.203 136.034 354.203 140.146V146.706H362.292L366.16 140.146L367.321 146.706H391.868L385.292 140.146C385.292 136.034 383.654 132.09 380.739 129.182C377.824 126.274 373.87 124.64 369.748 124.64V124.64Z" fill="#2F2E41"/>
<path d="M392.884 127.065C393.533 125.041 394.876 123.309 396.678 122.176C398.481 121.042 400.626 120.578 402.737 120.865C406.477 121.489 409.434 124.488 411.196 127.838C412.958 131.187 413.772 134.936 414.956 138.53C416.141 142.123 417.821 145.736 420.811 148.062C423.802 150.388 428.391 151.019 431.328 148.626C430.992 151.12 429.879 153.446 428.146 155.274C426.413 157.102 424.147 158.34 421.67 158.814C419.193 159.287 416.629 158.972 414.341 157.912C412.053 156.853 410.157 155.102 408.921 152.909C407.372 150.159 406.972 146.935 406.512 143.814C406.052 140.692 405.455 137.462 403.605 134.904C401.755 132.345 398.292 130.673 395.352 131.839L392.884 127.065Z" fill="#2F2E41"/>
<path d="M202.046 135.997C196.695 135.996 191.564 133.876 187.78 130.101C183.997 126.327 181.872 121.209 181.871 115.871C181.871 112.231 181.874 109.448 181.879 109.052C182.049 96.5841 185.197 84.336 191.062 73.3241C181.426 86.4819 176.128 102.301 175.9 118.594C175.895 118.99 175.892 121.773 175.893 125.413C175.893 130.751 178.018 135.869 181.802 139.643C185.585 143.418 190.716 145.538 196.067 145.539V145.539C200.464 145.537 204.74 144.104 208.245 141.457C211.751 138.81 214.295 135.094 215.49 130.873C211.796 134.178 207.007 136.003 202.046 135.997V135.997Z" fill="#3F3D56"/>
<path d="M256.335 82.9615C262.521 83.2562 268.542 85.044 273.883 88.1714C279.223 91.2988 283.723 95.6724 286.995 100.917C290.268 106.161 292.216 112.119 292.672 118.279C293.127 124.44 292.077 130.619 289.612 136.285C293.178 132.107 295.799 127.212 297.297 121.932C298.794 116.652 299.133 111.112 298.289 105.69C297.446 100.267 295.44 95.0903 292.409 90.5113C289.378 85.9324 285.393 82.0592 280.725 79.1559C276.057 76.2525 270.817 74.3873 265.361 73.6874C259.905 72.9875 254.362 73.4693 249.109 75.0999C243.857 76.7306 239.019 79.4718 234.925 83.1367C230.831 86.8016 227.577 91.304 225.386 96.3369C229.174 91.8923 233.934 88.3749 239.3 86.0558C244.666 83.7368 250.494 82.6781 256.335 82.9615V82.9615Z" fill="#3F3D56"/>
<path d="M262.542 261.236C257.084 261.237 251.844 259.098 247.953 255.28C244.062 251.461 241.831 246.27 241.743 240.826C241.489 225.048 241.358 205.609 241.358 203.387C241.355 197.982 242.135 192.606 243.674 187.423L243.667 187.422C244.576 184.821 245.674 182.289 246.952 179.847C243.029 185.062 239.907 190.831 237.688 196.964L237.696 196.966C236.156 202.148 235.376 207.524 235.38 212.929C235.38 215.151 235.511 234.59 235.764 250.368C235.853 255.812 238.083 261.003 241.974 264.822C245.865 268.64 251.105 270.779 256.564 270.778V270.778C261.064 270.777 265.443 269.321 269.043 266.627C272.644 263.934 275.272 260.149 276.533 255.839C272.709 259.318 267.718 261.243 262.542 261.236V261.236Z" fill="#3F3D56"/>
<path d="M75.6541 347.44L82.9833 347.439L86.4707 319.238L75.6523 319.239L75.6541 347.44Z" fill="#FFB8B8"/>
<path d="M97.1196 354.228L74.0836 354.229L74.0831 345.351L88.2189 345.35C90.5794 345.35 92.8433 346.286 94.5125 347.951C96.1817 349.615 97.1195 351.874 97.1196 354.228V354.228L97.1196 354.228Z" fill="#2F2E41"/>
<path d="M49.3482 347.44L56.6774 347.439L60.1648 319.238L49.3464 319.239L49.3482 347.44Z" fill="#FFB8B8"/>
<path d="M70.8137 354.228L47.7776 354.229L47.7772 345.351L61.913 345.35C64.2735 345.35 66.5374 346.286 68.2066 347.951C69.8758 349.615 70.8136 351.874 70.8137 354.228V354.228L70.8137 354.228Z" fill="#2F2E41"/>
<path d="M55.7534 338.767L48.594 338.391C48.2248 338.372 47.8631 338.279 47.53 338.12C47.1968 337.96 46.8987 337.736 46.653 337.46C46.4073 337.185 46.2188 336.863 46.0986 336.514C45.9783 336.166 45.9286 335.797 45.9523 335.429L54.5093 240.923L93.915 251.53L97.7116 250.497L85.8391 334.16C85.7379 334.789 85.4246 335.365 84.9509 335.793C84.4771 336.221 83.8713 336.474 83.2335 336.512L75.5157 336.871C75.1298 336.892 74.7437 336.833 74.3817 336.698C74.0197 336.563 73.6897 336.355 73.4126 336.086C73.1355 335.817 72.9173 335.494 72.7719 335.137C72.6264 334.78 72.5567 334.396 72.5674 334.011L73.9658 283.798C73.9723 283.566 73.8914 283.34 73.7391 283.164C73.5867 282.988 73.3739 282.876 73.1427 282.849C72.9114 282.822 72.6783 282.883 72.4895 283.018C72.3007 283.154 72.1697 283.356 72.1224 283.583L58.6365 336.549C58.5092 337.177 58.1673 337.742 57.6692 338.148C57.1711 338.553 56.5475 338.773 55.9048 338.771C55.8546 338.771 55.8042 338.77 55.7534 338.767Z" fill="#2F2E41"/>
<path d="M76.97 163.598C85.0798 163.598 91.6541 157.04 91.6541 148.95C91.6541 140.861 85.0798 134.303 76.97 134.303C68.8602 134.303 62.2859 140.861 62.2859 148.95C62.2859 157.04 68.8602 163.598 76.97 163.598Z" fill="#FFB8B8"/>
<path d="M52.5221 191.984L54.1366 226.734L54.7203 239.376C54.7436 239.926 54.9309 240.457 55.2583 240.901C55.5857 241.344 56.0384 241.68 56.5583 241.866L94.4246 255.549C94.7305 255.662 95.0546 255.719 95.3809 255.716C95.7539 255.718 96.1234 255.645 96.4673 255.501C96.8113 255.357 97.1228 255.146 97.383 254.879C97.6433 254.613 97.847 254.296 97.9821 253.95C98.1171 253.603 98.1807 253.232 98.1691 252.861L96.6167 190.38C96.5147 185.254 94.623 180.324 91.2677 176.44C87.9124 172.555 83.3037 169.961 78.2362 169.103C77.8699 169.047 77.4973 168.991 77.1247 168.942C73.9824 168.553 70.7928 168.855 67.7803 169.828C64.7678 170.801 62.0056 172.42 59.688 174.572C57.2882 176.774 55.4025 179.475 54.1642 182.483C52.926 185.492 52.3654 188.736 52.5221 191.984L52.5221 191.984Z" fill="#CCCCCC"/>
<path d="M112.513 248.615C111.617 248.338 110.799 247.856 110.124 247.207C109.448 246.558 108.934 245.761 108.622 244.879C108.31 243.996 108.209 243.054 108.328 242.126C108.446 241.198 108.78 240.31 109.303 239.534L96.4624 222.502L107.543 221.818L118.038 238.097C119.162 238.963 119.944 240.197 120.247 241.581C120.55 242.965 120.355 244.411 119.695 245.666C119.036 246.921 117.955 247.904 116.642 248.443C115.329 248.983 113.867 249.043 112.513 248.615H112.513Z" fill="#FFB8B8"/>
<path d="M103.485 236.452C103.144 236.314 102.835 236.111 102.574 235.853C102.313 235.595 102.106 235.288 101.965 234.95L82.6195 188.973C82.2399 188.073 82.0419 187.107 82.0367 186.13C82.0316 185.153 82.2194 184.185 82.5894 183.281C82.9595 182.377 83.5045 181.555 84.1934 180.861C84.8823 180.167 85.7015 179.615 86.6043 179.237C87.507 178.859 88.4755 178.662 89.4545 178.658C90.4336 178.654 91.4038 178.842 92.3099 179.212C93.216 179.581 94.0402 180.126 94.7353 180.813C95.4304 181.501 95.9828 182.319 96.361 183.22L115.707 229.197C115.993 229.879 115.996 230.646 115.716 231.33C115.435 232.014 114.895 232.559 114.212 232.846L105.623 236.442C105.285 236.584 104.922 236.659 104.555 236.661C104.188 236.662 103.824 236.591 103.484 236.452L103.485 236.452Z" fill="#CCCCCC"/>
<path d="M72.249 234.83L90.8301 199.341C91.1885 198.658 91.8036 198.145 92.5405 197.914C93.2774 197.684 94.076 197.754 94.761 198.11L121.732 212.161C122.416 212.518 122.93 213.132 123.161 213.867C123.392 214.602 123.322 215.398 122.965 216.082L104.384 251.571C104.026 252.254 103.411 252.767 102.674 252.998C101.937 253.228 101.138 253.158 100.453 252.802L73.4827 238.751C72.7984 238.394 72.2843 237.78 72.053 237.045C71.8217 236.31 71.8922 235.514 72.249 234.83Z" fill="#3F3D56"/>
<path d="M84.7101 218.616C84.3798 217.74 83.8489 216.954 83.1598 216.32C82.4707 215.685 81.6425 215.22 80.7412 214.962C79.84 214.703 78.8907 214.659 77.9691 214.831C77.0474 215.004 76.179 215.389 75.4331 215.956L57.6296 204.175L57.5994 215.249L74.5104 224.739C75.4439 225.807 76.7245 226.512 78.1275 226.732C79.5305 226.952 80.9663 226.672 82.1831 225.942C83.4 225.211 84.3201 224.077 84.7822 222.737C85.2443 221.398 85.2187 219.939 84.7101 218.616V218.616Z" fill="#FFB8B8"/>
<path d="M62.2006 221.106L47.6505 209.61C46.0765 209.082 44.6542 208.182 43.5058 206.986C42.3574 205.79 41.5171 204.333 41.0571 202.742C40.5972 201.15 40.5312 199.471 40.8649 197.849C41.1987 196.226 41.9221 194.709 42.9732 193.427L56.1842 176.156C57.1023 175.037 58.3934 174.285 59.8216 174.037C61.2498 173.789 62.7197 174.063 63.9625 174.807C65.2053 175.551 66.1381 176.717 66.5903 178.091C67.0425 179.465 66.984 180.955 66.4254 182.289L55.9725 199.346L71.3339 206.614C71.6911 206.783 72.0083 207.025 72.2646 207.326C72.5208 207.626 72.7102 207.977 72.8203 208.356C72.9304 208.735 72.9586 209.132 72.9032 209.523C72.8477 209.913 72.7099 210.288 72.4987 210.621L66.2978 220.41C66.0882 220.74 65.8113 221.023 65.4852 221.24C65.159 221.457 64.7909 221.603 64.4045 221.669C64.3892 221.672 64.3737 221.674 64.3583 221.676C63.9787 221.734 63.5913 221.713 63.2202 221.614C62.8491 221.516 62.502 221.343 62.2006 221.106V221.106Z" fill="#CCCCCC"/>
<path d="M65.8743 158.759C65.8113 158.575 65.7913 158.379 65.8159 158.186C65.8405 157.993 65.909 157.809 66.0161 157.647C66.1232 157.484 66.2662 157.349 66.434 157.25C66.6018 157.151 66.79 157.092 66.9842 157.077C67.3819 157.099 67.7711 157.201 68.1283 157.376C68.4855 157.552 68.8032 157.798 69.0624 158.1C69.5938 158.711 70.2125 159.241 70.8986 159.673C71.6089 160.03 72.5723 159.979 72.9772 159.298C73.3575 158.659 73.0969 157.802 72.8667 157.06C72.2809 155.17 71.9532 153.21 71.8923 151.233C71.826 149.026 72.1381 146.723 73.3628 145.002C74.9435 142.781 77.7699 141.937 80.4448 141.999C83.1196 142.06 85.7511 142.883 88.4006 143.404C89.3153 143.584 90.3905 143.676 91.0022 142.968C91.6527 142.217 91.4138 141 91.1371 139.984C90.4191 137.35 89.6574 134.626 87.9892 132.498C86.1855 130.288 83.609 128.841 80.7785 128.449C78.0611 128.113 75.3027 128.426 72.7299 129.36C68.5382 130.678 64.8498 133.241 62.158 136.707C59.3831 140.392 58.1841 145.024 58.823 149.589C59.4473 153.565 61.5593 157.157 64.7334 159.641L65.8743 158.759Z" fill="#2F2E41"/>
<path d="M251.855 347.556C247.948 345.859 244.49 343.279 241.754 340.021C239.018 336.762 237.078 332.913 236.089 328.779C235.099 324.645 235.086 320.337 236.051 316.197C237.016 312.057 238.932 308.197 241.649 304.922C238.499 307.216 235.875 310.152 233.95 313.535C232.024 316.918 230.843 320.671 230.483 324.544C230.123 328.418 230.592 332.323 231.861 336.002C233.13 339.68 235.169 343.047 237.842 345.88C240.515 348.712 243.761 350.945 247.366 352.43C250.97 353.916 254.85 354.619 258.748 354.494C262.646 354.37 266.472 353.419 269.973 351.706C273.475 349.993 276.571 347.557 279.057 344.56C275.18 347.386 270.629 349.15 265.856 349.676C261.083 350.201 256.256 349.471 251.855 347.556V347.556Z" fill="#3F3D56"/>
</g>
<defs>
<clipPath id="clip0">
<rect width="505" height="355" fill="white"/>
</clipPath>
</defs>
</svg>
