<svg width="500" height="522" viewBox="0 0 500 522" fill="none" xmlns="http://www.w3.org/2000/svg">
<path d="M193.417 522C300.238 522 386.834 506.737 386.834 487.909C386.834 469.081 300.238 453.818 193.417 453.818C86.5957 453.818 0 469.081 0 487.909C0 506.737 86.5957 522 193.417 522Z" fill="#3F3D56"/>
<path d="M310.972 377.191C415.369 377.191 500 292.754 500 188.596C500 84.4371 415.369 0 310.972 0C206.574 0 121.944 84.4371 121.944 188.596C121.944 292.754 206.574 377.191 310.972 377.191Z" fill="#3F3D56"/>
<path opacity="0.05" d="M310.972 344.287C397.155 344.287 467.021 274.582 467.021 188.595C467.021 102.609 397.155 32.9038 310.972 32.9038C224.788 32.9038 154.923 102.609 154.923 188.595C154.923 274.582 224.788 344.287 310.972 344.287Z" fill="black"/>
<path opacity="0.05" d="M310.972 316.199C381.607 316.199 438.868 259.069 438.868 188.596C438.868 118.122 381.607 60.9927 310.972 60.9927C240.337 60.9927 183.076 118.122 183.076 188.596C183.076 259.069 240.337 316.199 310.972 316.199Z" fill="black"/>
<path opacity="0.05" d="M310.972 280.085C361.616 280.085 402.671 239.124 402.671 188.596C402.671 138.068 361.616 97.1069 310.972 97.1069C260.328 97.1069 219.273 138.068 219.273 188.596C219.273 239.124 260.328 280.085 310.972 280.085Z" fill="black"/>
<path d="M123.618 205.474C123.618 205.474 108.756 247.21 115.361 262.037C121.966 276.865 132.424 291.143 132.424 291.143C132.424 291.143 128.572 208.219 123.618 205.474Z" fill="#D0CDE1"/>
<path opacity="0.1" d="M123.618 205.474C123.618 205.474 108.756 247.21 115.361 262.037C121.966 276.865 132.424 291.143 132.424 291.143C132.424 291.143 128.572 208.219 123.618 205.474Z" fill="black"/>
<path d="M134.076 302.126C134.076 302.126 132.975 312.56 132.424 313.109C131.874 313.659 132.975 314.757 132.424 316.404C131.874 318.052 131.324 320.248 132.424 320.798C133.525 321.347 126.37 369.673 126.37 369.673C126.37 369.673 108.756 392.738 115.912 428.983L118.113 465.777C118.113 465.777 135.177 466.875 135.177 460.834C135.177 460.834 134.076 453.695 134.076 450.4C134.076 447.105 136.828 447.105 135.177 445.458C133.525 443.81 133.525 442.712 133.525 442.712C133.525 442.712 136.277 440.515 135.727 439.966C135.177 439.417 140.681 400.426 140.681 400.426C140.681 400.426 146.735 394.385 146.735 391.09V387.795C146.735 387.795 149.488 380.656 149.488 380.107C149.488 379.558 164.349 346.059 164.349 346.059L170.404 370.222L177.009 404.82C177.009 404.82 180.311 436.122 186.916 448.203C186.916 448.203 198.475 487.743 198.475 486.645C198.475 485.546 217.74 482.801 217.189 477.858C216.639 472.916 205.631 403.721 205.631 403.721L208.383 301.028L134.076 302.126Z" fill="#2F2E41"/>
<path d="M119.214 463.031C119.214 463.031 104.353 492.137 114.26 493.235C124.168 494.333 128.021 494.333 132.424 489.94C134.832 487.538 139.707 484.316 143.632 481.888C145.957 480.472 147.836 478.431 149.052 475.999C150.269 473.567 150.774 470.843 150.509 468.137C150.219 465.451 149.212 463.237 146.735 463.031C140.13 462.482 132.424 456.441 132.424 456.441L119.214 463.031Z" fill="#2F2E41"/>
<path d="M201.227 484.448C201.227 484.448 186.366 513.554 196.274 514.652C206.181 515.751 210.034 515.751 214.437 511.357C216.845 508.956 221.72 505.733 225.645 503.305C227.97 501.89 229.849 499.849 231.066 497.417C232.282 494.985 232.787 492.26 232.522 489.555C232.232 486.868 231.225 484.654 228.748 484.448C222.143 483.899 214.437 477.858 214.437 477.858L201.227 484.448Z" fill="#2F2E41"/>
<path d="M185.52 157.843C198.299 157.843 208.658 147.507 208.658 134.758C208.658 122.009 198.299 111.673 185.52 111.673C172.742 111.673 162.383 122.009 162.383 134.758C162.383 147.507 172.742 157.843 185.52 157.843Z" fill="#FFB8B8"/>
<path d="M170.646 142.343C170.646 142.343 154.119 172.683 152.797 172.683C151.475 172.683 182.545 182.577 182.545 182.577C182.545 182.577 191.139 153.556 192.462 150.918L170.646 142.343Z" fill="#FFB8B8"/>
<path d="M195.998 175.544C195.998 175.544 162.973 157.422 159.67 157.971C156.368 158.52 121.141 189.273 121.691 201.904C122.242 214.535 126.645 235.403 126.645 235.403C126.645 235.403 128.296 293.614 131.599 294.164C134.901 294.713 131.048 304.598 132.149 304.598C133.25 304.598 209.208 304.598 209.759 302.95C210.309 301.303 195.998 175.544 195.998 175.544Z" fill="#D0CDE1"/>
<path d="M214.437 305.971C214.437 305.971 224.895 337.822 216.089 336.724C207.282 335.625 203.429 309.266 203.429 309.266L214.437 305.971Z" fill="#FFB8B8"/>
<path d="M186.366 173.622C186.366 173.622 166 178.015 169.303 205.473C172.605 232.932 178.66 260.39 178.66 260.39L199.026 304.872L201.227 313.109L216.089 309.265L205.08 245.562C205.08 245.562 201.227 177.466 196.273 175.27C193.15 173.941 189.753 173.376 186.366 173.622V173.622Z" fill="#D0CDE1"/>
<path opacity="0.1" d="M173.981 259.567L199.301 304.597L177.969 257.147L173.981 259.567Z" fill="black"/>
<path d="M208.556 127.961L208.632 126.197L212.149 127.07C212.112 126.504 211.951 125.953 211.679 125.454C211.407 124.956 211.03 124.522 210.573 124.183L214.32 123.974C211.176 119.517 207.159 115.742 202.512 112.876C197.865 110.011 192.684 108.115 187.283 107.303C179.179 106.131 170.155 107.827 164.598 113.828C161.902 116.738 160.209 120.44 159.004 124.216C156.785 131.171 156.333 139.461 160.96 145.114C165.662 150.86 173.876 151.985 181.277 152.696C183.881 152.946 186.61 153.179 189.023 152.171C189.291 149.41 188.937 146.623 187.986 144.016C187.59 143.209 187.401 142.317 187.435 141.419C187.764 139.222 190.701 138.669 192.907 138.966C195.113 139.262 197.766 139.717 199.215 138.031C200.214 136.87 200.155 135.179 200.287 133.655C200.647 129.505 208.518 128.831 208.556 127.961Z" fill="#2F2E41"/>
<path d="M350.47 492.6C365.359 492.6 377.429 480.558 377.429 465.703C377.429 450.848 365.359 438.805 350.47 438.805C335.581 438.805 323.511 450.848 323.511 465.703C323.511 480.558 335.581 492.6 350.47 492.6Z" fill="#1FB4DB"/>
<path d="M33.8559 483.217C48.745 483.217 60.8151 471.175 60.8151 456.32C60.8151 441.465 48.745 429.422 33.8559 429.422C18.9667 429.422 6.89661 441.465 6.89661 456.32C6.89661 471.175 18.9667 483.217 33.8559 483.217Z" fill="#1FB4DB"/>
<path d="M33.8558 440.056C44.5898 440.056 53.2915 431.375 53.2915 420.665C53.2915 409.956 44.5898 401.274 33.8558 401.274C23.1217 401.274 14.42 409.956 14.42 420.665C14.42 431.375 23.1217 440.056 33.8558 440.056Z" fill="#1FB4DB"/>
<path d="M33.8558 404.402C41.4736 404.402 47.649 398.24 47.649 390.64C47.649 383.04 41.4736 376.878 33.8558 376.878C26.2381 376.878 20.0627 383.04 20.0627 390.64C20.0627 398.24 26.2381 404.402 33.8558 404.402Z" fill="#1FB4DB"/>
</svg>
