<svg width="502" height="355" viewBox="0 0 502 355" fill="none" xmlns="http://www.w3.org/2000/svg">
<g clip-path="url(#clip0)">
<path d="M267.293 156.579L264.883 160.309L297.065 181.094L299.475 177.364L267.293 156.579Z" fill="#2F2E41"/>
<path d="M301.069 181.036C305.062 174.855 307.047 169.035 305.501 168.036C303.956 167.038 299.465 171.24 295.472 177.421C291.479 183.603 289.495 189.423 291.04 190.421C292.586 191.419 297.076 187.218 301.069 181.036Z" fill="#2F2E41"/>
<path d="M268.886 160.251C272.88 154.07 274.864 148.25 273.318 147.252C271.773 146.253 267.283 150.455 263.29 156.637C259.296 162.818 257.312 168.638 258.858 169.636C260.403 170.635 264.893 166.433 268.886 160.251Z" fill="#2F2E41"/>
<path d="M373.779 355C444.593 355 502 350.622 502 345.222C502 339.821 444.593 335.443 373.779 335.443C302.964 335.443 245.557 339.821 245.557 345.222C245.557 350.622 302.964 355 373.779 355Z" fill="#E6E6E6"/>
<path d="M128.221 308.133C199.036 308.133 256.443 303.755 256.443 298.355C256.443 292.954 199.036 288.576 128.221 288.576C57.4067 288.576 0 292.954 0 298.355C0 303.755 57.4067 308.133 128.221 308.133Z" fill="#E6E6E6"/>
<path d="M479.252 298.333C478.831 314.043 476.199 329.616 471.434 344.592C471.325 344.939 471.211 345.282 471.097 345.629H441.921C441.952 345.318 441.983 344.97 442.014 344.592C443.96 322.23 455.175 186.132 441.765 162.857C442.938 164.745 481.513 227.281 479.252 298.333Z" fill="#E6E6E6"/>
<path d="M477.062 344.592C476.818 344.939 476.564 345.287 476.305 345.629H454.418C454.584 345.334 454.776 344.986 454.999 344.592C458.615 338.066 469.317 318.558 479.252 298.334C489.928 276.6 499.722 254.041 498.897 245.877C499.152 247.718 506.539 303.853 477.062 344.592Z" fill="#E6E6E6"/>
<path d="M272.521 321.623C272.735 329.597 274.071 337.501 276.489 345.103C276.545 345.279 276.603 345.453 276.661 345.629H291.47C291.454 345.471 291.438 345.295 291.422 345.103C290.435 333.752 284.742 264.671 291.549 252.857C290.954 253.816 271.373 285.558 272.521 321.623Z" fill="#E6E6E6"/>
<path d="M273.632 345.103C273.756 345.279 273.885 345.455 274.017 345.629H285.126C285.042 345.479 284.944 345.303 284.831 345.103C282.996 341.791 277.564 331.888 272.521 321.623C267.102 310.591 262.13 299.14 262.549 294.996C262.42 295.931 258.67 324.424 273.632 345.103Z" fill="#E6E6E6"/>
<path d="M291.422 148.957C291.422 148.957 266.681 173.2 277.073 176.169C287.464 179.137 299.339 153.905 299.339 153.905L291.422 148.957Z" fill="#A0616A"/>
<path d="M316.163 230.591L313.194 244.445L335.461 245.434L331.997 230.591H316.163Z" fill="#A0616A"/>
<path d="M386.427 316.184L383.458 330.038L405.725 331.027L402.261 316.184H386.427Z" fill="#A0616A"/>
<path d="M347.337 138.072L349.316 145.988C349.316 145.988 294.391 135.104 297.36 162.81C300.329 190.516 313.194 217.233 313.194 217.233C313.194 217.233 312.205 226.139 314.184 227.623C316.163 229.107 314.184 234.055 314.184 234.055C314.184 234.055 332.492 236.529 332.987 232.076C333.252 229.099 333.085 226.1 332.492 223.17C332.492 223.17 333.482 223.17 332.492 218.223C331.503 213.275 327.505 173.374 324.536 167.932C324.536 167.932 350.801 188.043 364.655 185.569C364.655 185.569 362.676 205.359 370.593 231.581C378.51 257.803 378.51 260.772 378.51 260.772C378.51 260.772 387.912 310.742 385.438 316.679L384.943 319.153H403.251C403.251 319.153 401.767 292.931 403.251 289.468C404.735 286.004 404.735 256.319 396.324 241.476C390.367 230.965 391.476 200.488 394.735 188.442C397.471 178.326 398.162 170.54 396.558 160.184C394.843 149.109 389.72 143.32 383.458 138.072H347.337Z" fill="#2F2E41"/>
<path d="M361.934 63.6115C371.772 63.6115 379.747 55.6372 379.747 45.8003C379.747 35.9634 371.772 27.9891 361.934 27.9891C352.096 27.9891 344.121 35.9634 344.121 45.8003C344.121 55.6372 352.096 63.6115 361.934 63.6115Z" fill="#A0616A"/>
<path d="M357.233 58.4166C357.233 58.4166 362.676 74.2488 362.181 77.2173C361.686 80.1859 378.015 71.2802 378.015 71.2802C378.015 71.2802 371.583 55.448 373.562 50.9952L357.233 58.4166Z" fill="#A0616A"/>
<path d="M377.026 65.838L359.707 72.7645L360.697 78.7016C360.697 78.7016 359.212 80.6806 359.707 81.6702C360.202 82.6597 353.275 86.6177 354.264 88.102C355.254 89.5863 348.326 95.5233 348.821 97.0076C349.316 98.4919 332.987 107.397 341.894 124.714C341.894 124.714 346.512 130.716 345.933 137.815C345.913 138.064 345.886 138.315 345.852 138.567C344.863 145.988 383.458 137.578 383.458 137.578V129.167C383.458 129.167 386.922 127.682 386.427 121.251C385.932 114.819 382.964 117.787 386.427 114.324C389.891 110.861 389.891 111.356 389.396 108.387C389.199 107.202 389.159 102.939 389.182 98.2464C389.228 88.3309 385.998 78.6777 379.995 70.7855V70.7855L377.026 65.838Z" fill="#B8E34B"/>
<path d="M367.624 78.7016L335.461 112.345L288.454 149.452L298.845 157.863L385.438 99.9761C385.438 99.9761 392.86 68.3117 367.624 78.7016Z" fill="#B8E34B"/>
<path d="M317.648 238.013C317.648 238.013 314.184 232.076 311.71 234.055L294.391 247.908C294.391 247.908 263.713 256.814 293.402 263.74C293.402 263.74 309.731 266.214 313.195 263.74C316.658 261.267 322.101 261.761 323.586 262.751C325.07 263.74 343.873 262.256 343.873 258.298C343.873 254.34 333.503 237.042 333.503 237.042C333.503 237.042 327.544 243.95 317.648 238.013Z" fill="#2F2E41"/>
<path d="M387.912 323.606C387.912 323.606 384.448 317.669 381.974 319.648L364.656 333.501C364.656 333.501 333.977 342.407 363.666 349.333C363.666 349.333 379.995 351.807 383.459 349.333C386.922 346.859 392.365 347.354 393.85 348.344C395.334 349.333 414.137 347.849 414.137 343.891C414.137 339.933 403.767 322.634 403.767 322.634C403.767 322.634 397.808 329.543 387.912 323.606Z" fill="#2F2E41"/>
<path d="M340.586 38.7367C340.586 38.7367 343.598 12.264 369.358 19.7804C369.358 19.7804 387.581 16.0742 394.018 38.8318L400.551 62.6916L397.561 61.1377L396.239 64.1799L391.466 65.4863L389.336 61.4529L388.438 66.4179L355.479 73.0807C355.479 73.0807 366.626 60.3466 366.547 41.6964L363.264 45.3015L340.586 38.7367Z" fill="#2F2E41"/>
<path d="M163.582 17.2108H122.378V68.5859H163.582V17.2108Z" fill="#2F2E41"/>
<path d="M88.3539 256.857L82.7354 277.532L92.1002 284.424L94.597 282.545L98.9672 261.243L88.3539 256.857Z" fill="#FFB8B8"/>
<path d="M158.899 254.978L157.026 280.038H168.888V256.857L158.899 254.978Z" fill="#FFB8B8"/>
<path d="M121.442 96.4662V111.503L144.541 115.262L164.518 107.117L160.772 97.719L121.442 96.4662Z" fill="#FFB8B8"/>
<path d="M140.171 108.997L120.193 105.238L115.199 145.962L102.713 196.711C102.713 196.711 83.9845 239.941 86.4817 249.965L87.7303 253.098L86.4817 258.737L98.9675 263.749L103.962 255.604C103.962 255.604 107.708 261.243 113.951 249.339C120.193 237.435 146.414 163.505 146.414 163.505L150.784 176.035C149.653 179.901 149.44 183.977 150.16 187.939C151.408 194.204 152.657 213.627 152.657 213.627C152.657 213.627 145.789 247.459 155.154 249.965L157.027 257.484L170.137 258.737L172.634 251.218C172.634 251.218 185.12 246.833 181.998 224.904C178.877 202.976 177.628 130.925 177.628 130.925L165.33 100.492L140.171 108.997Z" fill="#2F2E41"/>
<path d="M86.4816 276.279C86.4816 276.279 83.3601 273.773 82.1115 274.4C80.863 275.026 67.7528 291.943 67.7528 291.943C67.7528 291.943 54.0183 302.594 64.007 303.847C73.9957 305.1 101.465 291.316 101.465 288.183C101.465 285.051 95.6928 277.205 95.6928 277.205C95.6928 277.205 91.4759 280.665 86.4816 276.279Z" fill="#2F2E41"/>
<path d="M155.778 274.4C155.778 274.4 167.016 273.699 168.888 275.616C170.761 277.532 170.137 286.93 170.137 286.93C170.137 286.93 171.386 303.847 161.397 303.847C151.408 303.847 153.905 292.569 153.905 292.569L155.778 274.4Z" fill="#2F2E41"/>
<path d="M144.541 41.332C153.161 41.332 160.148 34.3194 160.148 25.6688C160.148 17.0183 153.161 10.0057 144.541 10.0057C135.921 10.0057 128.934 17.0183 128.934 25.6688C128.934 34.3194 135.921 41.332 144.541 41.332Z" fill="#FFB8B8"/>
<path d="M134.24 35.38C134.24 35.38 142.98 46.031 125.5 54.1758C108.02 62.3206 137.986 96.1531 137.986 96.1531C137.986 96.1531 172.946 82.996 169.825 57.3084C169.825 57.3084 148.599 53.5493 153.593 36.0065L134.24 35.38Z" fill="#FFB8B8"/>
<path d="M124.875 53.5492C124.875 53.5492 110.517 51.6697 109.892 63.5737C109.268 75.4777 109.892 104.298 109.892 104.298C109.892 104.298 103.65 129.359 106.771 151.287C106.771 151.287 103.025 176.975 113.014 175.722C123.003 174.469 115.511 149.408 115.511 149.408L119.881 108.684L118.008 78.6103L126.124 60.4411L124.875 53.5492Z" fill="#FFB8B8"/>
<path d="M166.2 56.3171C166.2 56.3171 179.813 56.0553 180.438 66.0798C181.062 76.1042 176.068 106.804 176.068 106.804L168.576 110.563L161.709 89.2613L166.2 56.3171Z" fill="#FFB8B8"/>
<path d="M170.137 107.744L168.888 110.876L172.634 120.274C172.634 120.274 157.651 132.178 158.9 134.684C160.148 137.191 167.015 131.552 167.015 131.552L177.004 136.564C177.004 136.564 185.12 127.793 181.374 119.648C179.299 115.269 177.563 110.738 176.182 106.094C176.182 106.094 170.761 105.864 170.137 107.744Z" fill="#FFB8B8"/>
<path d="M122.067 51.3565L120.194 72.0318C120.194 72.0318 111.454 80.8032 121.442 92.7072L120.194 102.105C120.194 102.105 143.292 100.852 147.663 102.105C152.033 103.358 165.529 101.096 165.529 101.096L165.767 93.9602C165.767 93.9602 172.01 85.1889 170.137 72.0318C168.264 58.8748 170.137 54.4891 170.137 54.4891L165.767 53.8626C165.767 53.8626 162.958 72.9716 143.605 74.8512C143.605 74.8512 119.569 77.044 126.437 51.3564L122.067 51.3565Z" fill="#E6E6E6"/>
<path d="M146.102 0.294535C146.102 0.294535 129.87 -0.715316 126.124 9.41439C122.378 19.5441 115.823 24.8621 115.823 24.8621C115.823 24.8621 105.498 32.0655 110.66 44.9245C110.66 44.9245 94.5974 55.7576 105.21 65.3808C105.21 65.3808 104.586 75.004 110.829 81.5882C110.829 81.5882 115.823 84.1207 113.95 85.6401C112.078 87.1596 126.436 86.1466 125.188 72.4715C123.939 58.7965 132.367 49.1636 132.367 49.1636C132.367 49.1636 124.251 31.4334 127.997 25.3556C130.271 21.6655 131.248 18.9137 133.136 17.3211C134.187 16.4551 135.163 15.5001 136.05 14.4667C136.888 13.4022 138.027 12.616 139.32 12.2114C140.613 11.8069 141.997 11.8029 143.292 12.2C148.911 13.7195 150.159 18.2778 150.159 18.2778C150.159 18.2778 154.217 29.1672 161.085 34.232C167.952 39.2969 155.778 48.1603 155.778 48.1603C155.778 48.1603 157.894 58.5957 163.391 64.7739C168.888 70.9521 161.807 76.3374 161.397 77.0299C160.46 78.6103 156.721 88.5906 172.169 88.6348C172.169 88.6348 175.755 81.0817 180.75 76.5234C185.744 71.9651 181.998 58.7965 181.998 58.7965C181.998 58.7965 189.49 54.2381 181.374 43.0955C181.374 43.0955 183.871 32.9658 177.004 26.3816C177.004 26.3816 167.327 -3.25084 146.102 0.294535Z" fill="#2F2E41"/>
<path d="M127.685 27.8617C128.547 27.8617 129.245 26.7397 129.245 25.3556C129.245 23.9715 128.547 22.8495 127.685 22.8495C126.823 22.8495 126.124 23.9715 126.124 25.3556C126.124 26.7397 126.823 27.8617 127.685 27.8617Z" fill="#FFB8B8"/>
<path d="M53.139 283.786H14.8271V288.227H53.139V283.786Z" fill="#2F2E41"/>
<path d="M53.1391 299.331C54.979 299.331 56.4706 293.366 56.4706 286.007C56.4706 278.648 54.979 272.683 53.1391 272.683C51.2992 272.683 49.8076 278.648 49.8076 286.007C49.8076 293.366 51.2992 299.331 53.1391 299.331Z" fill="#2F2E41"/>
<path d="M14.8271 299.331C16.667 299.331 18.1586 293.366 18.1586 286.007C18.1586 278.648 16.667 272.683 14.8271 272.683C12.9872 272.683 11.4956 278.648 11.4956 286.007C11.4956 293.366 12.9872 299.331 14.8271 299.331Z" fill="#2F2E41"/>
<path d="M44.0443 283.786H5.73242V288.227H44.0443V283.786Z" fill="#2F2E41"/>
<path d="M44.0444 299.331C45.8843 299.331 47.3759 293.366 47.3759 286.007C47.3759 278.648 45.8843 272.683 44.0444 272.683C42.2044 272.683 40.7129 278.648 40.7129 286.007C40.7129 293.366 42.2044 299.331 44.0444 299.331Z" fill="#2F2E41"/>
<path d="M5.73285 299.331C7.57277 299.331 9.06433 293.366 9.06433 286.007C9.06433 278.648 7.57277 272.683 5.73285 272.683C3.89292 272.683 2.40137 278.648 2.40137 286.007C2.40137 293.366 3.89292 299.331 5.73285 299.331Z" fill="#2F2E41"/>
<path d="M479.891 328.555H441.579V332.996H479.891V328.555Z" fill="#2F2E41"/>
<path d="M479.891 344.099C481.731 344.099 483.223 338.134 483.223 330.775C483.223 323.416 481.731 317.451 479.891 317.451C478.051 317.451 476.56 323.416 476.56 330.775C476.56 338.134 478.051 344.099 479.891 344.099Z" fill="#2F2E41"/>
<path d="M441.579 344.099C443.419 344.099 444.91 338.134 444.91 330.775C444.91 323.416 443.419 317.451 441.579 317.451C439.739 317.451 438.248 323.416 438.248 330.775C438.248 338.134 439.739 344.099 441.579 344.099Z" fill="#2F2E41"/>
</g>
<defs>
<clipPath id="clip0">
<rect width="502" height="355" fill="white"/>
</clipPath>
</defs>
</svg>
